<svg width="645" height="661" viewBox="0 0 645 661" fill="none" xmlns="http://www.w3.org/2000/svg">
<path d="M1 660.071L644 1" stroke="#97036C" stroke-miterlimit="10"/>
<path d="M108.478 630.105C146.846 630.105 177.95 599.001 177.95 560.632C177.95 522.263 146.846 491.159 108.478 491.159C70.1089 491.159 39.0049 522.263 39.0049 560.632C39.0049 599.001 70.1089 630.105 108.478 630.105Z" stroke="#311C5A" stroke-miterlimit="10"/>
<path d="M153.844 601.981C202.568 601.981 242.066 562.483 242.066 513.759C242.066 465.035 202.568 425.537 153.844 425.537C105.12 425.537 65.6221 465.035 65.6221 513.759C65.6221 562.483 105.12 601.981 153.844 601.981Z" stroke="#563F86" stroke-miterlimit="10"/>
<path d="M199.211 574.025C258.382 574.025 306.35 526.057 306.35 466.886C306.35 407.715 258.382 359.747 199.211 359.747C140.04 359.747 92.0723 407.715 92.0723 466.886C92.0723 526.057 140.04 574.025 199.211 574.025Z" stroke="#382363" stroke-miterlimit="10"/>
<path d="M244.745 545.901C314.271 545.901 370.633 489.539 370.633 420.013C370.633 350.487 314.271 294.125 244.745 294.125C175.219 294.125 118.857 350.487 118.857 420.013C118.857 489.539 175.219 545.901 244.745 545.901Z" stroke="#43277B" stroke-miterlimit="10"/>
<path d="M290.111 517.944C370.085 517.944 434.916 453.113 434.916 373.14C434.916 293.166 370.085 228.335 290.111 228.335C210.138 228.335 145.307 293.166 145.307 373.14C145.307 453.113 210.138 517.944 290.111 517.944Z" stroke="#733EE0" stroke-miterlimit="10"/>
<path d="M335.645 489.82C425.974 489.82 499.199 416.594 499.199 326.266C499.199 235.937 425.974 162.712 335.645 162.712C245.317 162.712 172.091 235.937 172.091 326.266C172.091 416.594 245.317 489.82 335.645 489.82Z" stroke="#8547FF" stroke-opacity="0.86" stroke-miterlimit="10"/>
<path d="M381.012 461.863C481.788 461.863 563.482 380.168 563.482 279.393C563.482 178.617 481.788 96.9219 381.012 96.9219C280.236 96.9219 198.541 178.617 198.541 279.393C198.541 380.168 280.236 461.863 381.012 461.863Z" stroke="#5D00D3" stroke-miterlimit="10"/>
<path d="M426.379 433.74C537.509 433.74 627.599 343.65 627.599 232.52C627.599 121.389 537.509 31.2998 426.379 31.2998C315.248 31.2998 225.159 121.389 225.159 232.52C225.159 343.65 315.248 433.74 426.379 433.74Z" stroke="#8547FF" stroke-opacity="0.86" stroke-miterlimit="10"/>
</svg>
