<svg width="38" height="38" viewBox="0 0 38 38" fill="none" xmlns="http://www.w3.org/2000/svg">
<path d="M4.75 14.25C4.75 17.7478 7.58553 20.5833 11.0833 20.5833C14.5811 20.5833 17.4167 17.7478 17.4167 14.25V11.0833C17.4167 7.58553 14.5811 4.75 11.0833 4.75C7.58553 4.75 4.75 7.58553 4.75 11.0833V14.25ZM4.75 28.5C4.75 31.1234 6.87665 33.25 9.5 33.25H12.6667C15.29 33.25 17.4167 31.1234 17.4167 28.5C17.4167 25.8766 15.29 23.75 12.6667 23.75H9.5C6.87665 23.75 4.75 25.8766 4.75 28.5ZM20.5833 26.9167C20.5833 30.4145 23.4189 33.25 26.9167 33.25C30.4145 33.25 33.25 30.4145 33.25 26.9167V23.75C33.25 20.2522 30.4145 17.4167 26.9167 17.4167C23.4189 17.4167 20.5833 20.2522 20.5833 23.75V26.9167ZM25.3333 4.75C22.71 4.75 20.5833 6.87665 20.5833 9.5C20.5833 12.1234 22.71 14.25 25.3333 14.25H28.5C31.1234 14.25 33.25 12.1234 33.25 9.5C33.25 6.87665 31.1234 4.75 28.5 4.75H25.3333Z" fill="#AE78FF"/>
</svg>
