<svg width="713" height="611" viewBox="0 0 713 611" fill="none" xmlns="http://www.w3.org/2000/svg">
<path d="M661.871 238.493C662.991 241.185 662.276 244.683 659.636 248.975C657.005 253.252 652.528 258.206 646.355 263.731C634.013 274.777 614.987 288.022 590.698 302.605C542.126 331.766 472.584 366.226 393.587 399.069C314.59 431.912 241.114 456.911 186.185 470.781C158.717 477.717 135.908 481.865 119.373 482.824C111.102 483.304 104.432 482.985 99.545 481.834C94.6398 480.678 91.6563 478.718 90.5371 476.026C89.4179 473.334 90.1322 469.836 92.7726 465.544C95.4032 461.267 99.8803 456.313 106.054 450.788C118.395 439.742 137.422 426.496 161.711 411.914C210.283 382.753 279.825 348.293 358.822 315.45C437.819 282.606 511.294 257.607 566.223 243.737C593.692 236.801 616.501 232.654 633.036 231.694C641.307 231.214 647.976 231.534 652.863 232.685C657.769 233.841 660.752 235.801 661.871 238.493Z" stroke="#8547FF" stroke-opacity="0.86"/>
<path d="M645.624 189.455C646.743 192.147 646.029 195.644 643.388 199.937C640.758 204.214 636.281 209.168 630.107 214.693C617.766 225.738 598.739 238.984 574.45 253.567C525.878 282.728 456.336 317.188 377.339 350.031C298.342 382.874 224.867 407.873 169.938 421.743C142.469 428.679 119.66 432.827 103.125 433.786C94.8543 434.266 88.1847 433.947 83.2975 432.795C78.3922 431.64 75.4088 429.68 74.2896 426.988C73.1704 424.296 73.8846 420.798 76.525 416.506C79.1557 412.229 83.6327 407.275 89.806 401.75C102.148 390.704 121.174 377.458 145.463 362.876C194.035 333.715 263.577 299.255 342.574 266.411C421.571 233.568 495.047 208.569 549.976 194.699C577.444 187.763 600.253 183.616 616.788 182.656C625.059 182.176 631.729 182.496 636.616 183.647C641.521 184.802 644.505 186.763 645.624 189.455Z" stroke="#8547FF" stroke-opacity="0.86"/>
<path d="M622.363 134.245C623.482 136.937 622.768 140.435 620.127 144.727C617.497 149.004 613.019 153.958 606.846 159.483C594.505 170.528 575.478 183.774 551.189 198.357C502.617 227.518 433.075 261.978 354.078 294.821C275.081 327.664 201.606 352.663 146.676 366.533C119.208 373.469 96.3988 377.617 79.8639 378.576C71.5931 379.056 64.9235 378.737 60.0363 377.585C55.131 376.43 52.1475 374.47 51.0283 371.778C49.9091 369.086 50.6234 365.588 53.2638 361.296C55.8944 357.019 60.3715 352.065 66.5447 346.54C78.8863 335.494 97.9128 322.248 122.202 307.666C170.774 278.505 240.316 244.045 319.313 211.201C398.31 178.358 471.785 153.359 526.714 139.489C554.183 132.553 576.992 128.406 593.527 127.446C601.798 126.966 608.467 127.286 613.355 128.437C618.26 129.593 621.243 131.553 622.363 134.245Z" stroke="#8547FF" stroke-opacity="0.86"/>
<path d="M289.284 183.083C276.36 188.412 264.45 199.969 261.963 213.953C259.385 228.446 272.475 245.448 281.449 255.91C290.316 266.248 300.333 276.745 311.981 284.007C328.612 294.376 345.719 304.332 358.087 319.956C372.343 337.963 379.445 354.624 377.715 378.422C376.875 389.978 373.216 399.466 365.986 408.484C356.456 420.37 346.609 431.828 337.541 444.121C325.993 459.778 316.276 476.726 306.937 493.77C299.739 506.906 294.801 520.161 299.95 535.015C304.611 548.462 316.138 561.248 331.049 562.259C345.287 563.224 359.208 560.038 372.029 554.281" stroke="#EC407C" stroke-linecap="round"/>
</svg>
