<svg width="874" height="563" viewBox="0 0 874 563" fill="none" xmlns="http://www.w3.org/2000/svg">
<path d="M33.28 498.88V497.56H24.46V511H33.28V509.68H25.78V504.82H30V503.5H25.78V498.88H33.28ZM45.6686 497.56L41.0486 509.3L36.4086 497.56H35.0486L40.3686 511H41.7086L47.0086 497.56H45.6686ZM64.1256 511L61.0256 497.56H59.8056L56.3256 508.32L52.8056 497.56H51.6056L48.5056 511H49.8256L52.4056 500.02L55.8656 511H56.7456L60.2256 500.02L62.8056 511H64.1256ZM76.4047 509.84C74.7247 509.86 73.2447 508.7 72.7847 507.12L81.5247 505.54C81.5247 505.46 81.5247 505.38 81.5047 505.28C81.2047 502.74 79.0247 500.76 76.4047 500.74C73.5447 500.76 71.2447 503.04 71.2447 505.92C71.2447 506.4 71.3047 506.9 71.4447 507.36C72.1047 509.54 74.1847 511.06 76.4047 511.06C79.1047 511.08 80.8447 509.1 81.3647 507.7L80.2447 507.3C79.7847 508.56 78.2847 509.84 76.4047 509.84ZM76.2847 501.96C78.0047 501.94 79.5247 503.1 80.0247 504.7L72.5847 506.04C72.5847 505.84 72.5647 505.7 72.5647 505.58C72.6647 503.6 74.2847 502 76.2847 501.96ZM87.9253 500.84C86.6453 500.84 85.4653 501.48 84.7253 502.48V501H83.4053V511H84.7253V505.14C84.7253 503.42 86.0453 502.06 87.7053 502.06C89.3653 502.06 90.6853 503.42 90.6853 505.14V511H92.0253V505.1C92.0253 502.72 90.2453 500.84 87.9253 500.84ZM102.98 501V502.62C102.04 501.52 100.64 500.84 99.0805 500.84C96.2205 500.84 93.9205 503.14 93.9205 506C93.9205 508.84 96.2205 511.16 99.0805 511.16C100.64 511.16 102.04 510.46 102.98 509.38V511H104.3V501H102.98ZM99.1005 509.9C96.9605 509.9 95.2405 508.18 95.2405 506C95.2405 503.82 96.9605 502.1 99.1005 502.1C101.26 502.1 102.94 503.82 102.94 506C102.94 508.18 101.26 509.9 99.1005 509.9ZM112.356 500.84C110.796 500.84 109.376 501.54 108.436 502.64V496.12H107.116V511H108.436V509.34C109.376 510.46 110.796 511.16 112.356 511.16C115.216 511.16 117.516 508.84 117.516 506C117.516 503.14 115.216 500.84 112.356 500.84ZM112.316 509.9C110.176 509.9 108.476 508.18 108.476 506C108.476 503.82 110.176 502.1 112.316 502.1C114.456 502.1 116.156 503.82 116.156 506C116.156 508.18 114.456 509.9 112.316 509.9ZM119.694 511H121.014V496.12H119.694V511ZM128.319 509.84C126.639 509.86 125.159 508.7 124.699 507.12L133.439 505.54C133.439 505.46 133.439 505.38 133.419 505.28C133.119 502.74 130.939 500.76 128.319 500.74C125.459 500.76 123.159 503.04 123.159 505.92C123.159 506.4 123.219 506.9 123.359 507.36C124.019 509.54 126.099 511.06 128.319 511.06C131.019 511.08 132.759 509.1 133.279 507.7L132.159 507.3C131.699 508.56 130.199 509.84 128.319 509.84ZM128.199 501.96C129.919 501.94 131.439 503.1 131.939 504.7L124.499 506.04C124.499 505.84 124.479 505.7 124.479 505.58C124.579 503.6 126.199 502 128.199 501.96ZM144.172 496.12V502.62C143.232 501.52 141.832 500.84 140.272 500.84C137.412 500.84 135.112 503.14 135.112 506C135.112 508.84 137.412 511.16 140.272 511.16C141.832 511.16 143.232 510.46 144.172 509.38V511H145.492V496.12H144.172ZM140.292 509.9C138.132 509.9 136.432 508.18 136.432 506C136.432 503.82 138.132 502.1 140.292 502.1C142.452 502.1 144.132 503.82 144.132 506C144.132 508.18 142.452 509.9 140.292 509.9Z" fill="white"/>
<path d="M24.46 439H25.78V425.56H24.46V439ZM28.5616 439H33.1216C36.2216 439 38.0616 437.36 38.0616 435.32C38.0616 434 37.2616 432.86 35.8216 432.28C37.2616 431.7 38.0616 430.56 38.0616 429.26C38.0616 427.22 36.2216 425.56 33.1216 425.56H28.5616V439ZM29.8816 431.72V426.82H33.1216C35.3416 426.82 36.7016 427.9 36.7016 429.28C36.7016 430.64 35.3416 431.72 33.1216 431.72H29.8816ZM29.8816 437.74V432.84H33.1216C35.3416 432.84 36.7016 433.92 36.7016 435.28C36.7016 436.66 35.3416 437.74 33.1216 437.74H29.8816ZM46.2403 439.16C48.9203 439.16 50.8603 437.82 51.9003 435.82L50.6603 435.08C49.8603 436.76 48.2803 437.92 46.2403 437.92C43.1203 437.92 41.2203 435.44 41.2203 432.3C41.2203 429.14 43.1203 426.68 46.2403 426.68C48.2803 426.68 49.8403 427.82 50.6603 429.5L51.9003 428.78C50.8603 426.76 48.9203 425.42 46.2403 425.42C42.1803 425.42 39.7603 428.5 39.7603 432.3C39.7603 436.08 42.1803 439.16 46.2403 439.16ZM64.3734 437.84C62.6934 437.86 61.2134 436.7 60.7534 435.12L69.4934 433.54C69.4934 433.46 69.4934 433.38 69.4734 433.28C69.1734 430.74 66.9934 428.76 64.3734 428.74C61.5134 428.76 59.2134 431.04 59.2134 433.92C59.2134 434.4 59.2734 434.9 59.4134 435.36C60.0734 437.54 62.1534 439.06 64.3734 439.06C67.0734 439.08 68.8134 437.1 69.3334 435.7L68.2134 435.3C67.7534 436.56 66.2534 437.84 64.3734 437.84ZM64.2534 429.96C65.9734 429.94 67.4934 431.1 67.9934 432.7L60.5534 434.04C60.5534 433.84 60.5334 433.7 60.5334 433.58C60.6334 431.6 62.2534 430 64.2534 429.96ZM75.8941 428.84C74.6141 428.84 73.4341 429.48 72.6941 430.48V429H71.3741V439H72.6941V433.14C72.6941 431.42 74.0141 430.06 75.6741 430.06C77.3341 430.06 78.6541 431.42 78.6541 433.14V439H79.9941V433.1C79.9941 430.72 78.2141 428.84 75.8941 428.84ZM90.9492 429V430.62C90.0092 429.52 88.6092 428.84 87.0492 428.84C84.1892 428.84 81.8892 431.14 81.8892 434C81.8892 436.84 84.1892 439.16 87.0492 439.16C88.6092 439.16 90.0092 438.46 90.9492 437.38V439H92.2692V429H90.9492ZM87.0692 437.9C84.9292 437.9 83.2092 436.18 83.2092 434C83.2092 431.82 84.9292 430.1 87.0692 430.1C89.2292 430.1 90.9092 431.82 90.9092 434C90.9092 436.18 89.2292 437.9 87.0692 437.9ZM100.325 428.84C98.765 428.84 97.345 429.54 96.405 430.64V424.12H95.085V439H96.405V437.34C97.345 438.46 98.765 439.16 100.325 439.16C103.185 439.16 105.485 436.84 105.485 434C105.485 431.14 103.185 428.84 100.325 428.84ZM100.285 437.9C98.145 437.9 96.445 436.18 96.445 434C96.445 431.82 98.145 430.1 100.285 430.1C102.425 430.1 104.125 431.82 104.125 434C104.125 436.18 102.425 437.9 100.285 437.9ZM107.663 439H108.983V424.12H107.663V439ZM116.288 437.84C114.608 437.86 113.127 436.7 112.668 435.12L121.408 433.54C121.408 433.46 121.408 433.38 121.388 433.28C121.088 430.74 118.908 428.76 116.288 428.74C113.428 428.76 111.128 431.04 111.128 433.92C111.128 434.4 111.188 434.9 111.328 435.36C111.988 437.54 114.068 439.06 116.288 439.06C118.988 439.08 120.728 437.1 121.248 435.7L120.128 435.3C119.668 436.56 118.168 437.84 116.288 437.84ZM116.168 429.96C117.888 429.94 119.408 431.1 119.908 432.7L112.468 434.04C112.468 433.84 112.448 433.7 112.448 433.58C112.548 431.6 114.168 430 116.168 429.96ZM132.141 424.12V430.62C131.201 429.52 129.801 428.84 128.241 428.84C125.381 428.84 123.081 431.14 123.081 434C123.081 436.84 125.381 439.16 128.241 439.16C129.801 439.16 131.201 438.46 132.141 437.38V439H133.461V424.12H132.141ZM128.261 437.9C126.101 437.9 124.401 436.18 124.401 434C124.401 431.82 126.101 430.1 128.261 430.1C130.421 430.1 132.101 431.82 132.101 434C132.101 436.18 130.421 437.9 128.261 437.9Z" fill="white"/>
<path d="M768.35 241.16C771.03 241.16 772.97 239.82 774.01 237.82L772.77 237.08C771.97 238.76 770.39 239.92 768.35 239.92C765.23 239.92 763.33 237.44 763.33 234.3C763.33 231.14 765.23 228.68 768.35 228.68C770.39 228.68 771.95 229.82 772.77 231.5L774.01 230.78C772.97 228.76 771.03 227.42 768.35 227.42C764.29 227.42 761.87 230.5 761.87 234.3C761.87 238.08 764.29 241.16 768.35 241.16ZM780.816 230.84C779.536 230.84 778.356 231.48 777.616 232.48V231H776.296V241H777.616V235.14C777.616 233.42 778.916 232.06 780.596 232.06C781.176 232.06 781.776 232.3 782.296 232.68L782.756 231.36C782.176 231.02 781.516 230.84 780.816 230.84ZM791.208 231L788.468 238.14L785.468 231H784.148L787.848 239.78L785.748 245.26H787.068L792.528 231H791.208ZM799.876 230.82C798.316 230.82 796.896 231.52 795.956 232.62V230.98H794.636V245.86H795.956V239.32C796.896 240.44 798.316 241.14 799.876 241.14C802.736 241.14 805.036 238.82 805.036 235.98C805.036 233.12 802.736 230.82 799.876 230.82ZM799.836 239.88C797.696 239.88 795.996 238.16 795.996 235.98C795.996 233.78 797.696 232.06 799.836 232.06C801.976 232.06 803.696 233.78 803.696 235.98C803.696 238.16 801.976 239.88 799.836 239.88ZM812.598 238.76C812.598 238.88 811.878 239.94 810.838 239.94C809.938 239.94 808.958 239.24 808.958 237.94V232.2H811.978V230.98H808.958V227.66L807.638 227.82V230.98H806.038V232.2H807.638V238.24C807.638 240.24 809.038 241.16 810.598 241.16C812.278 241.14 813.258 239.78 813.258 239.78L812.598 238.76ZM819.08 241.16C821.92 241.16 824.24 238.84 824.24 236C824.24 233.14 821.92 230.84 819.08 230.84C816.22 230.84 813.92 233.14 813.92 236C813.92 238.84 816.22 241.16 819.08 241.16ZM819.1 239.9C816.96 239.9 815.26 238.18 815.26 236C815.26 233.82 816.96 232.08 819.1 232.08C821.26 232.08 822.94 233.82 822.94 236C822.94 238.18 821.26 239.9 819.1 239.9ZM825.62 241H827.04V238.88H825.62V241ZM834.08 241.16C835.92 241.16 837.56 240.18 838.46 238.7L837.26 238.12C836.56 239.2 835.38 239.9 834.08 239.9C831.92 239.9 830.24 238.18 830.24 236C830.24 233.82 831.92 232.1 834.08 232.1C835.38 232.1 836.56 232.8 837.26 233.88L838.46 233.3C837.56 231.82 835.92 230.84 834.08 230.84C831.22 230.84 828.92 233.14 828.92 236C828.92 238.84 831.22 241.16 834.08 241.16ZM845.038 241.16C847.878 241.16 850.198 238.84 850.198 236C850.198 233.14 847.878 230.84 845.038 230.84C842.178 230.84 839.878 233.14 839.878 236C839.878 238.84 842.178 241.16 845.038 241.16ZM845.058 239.9C842.918 239.9 841.218 238.18 841.218 236C841.218 233.82 842.918 232.08 845.058 232.08C847.218 232.08 848.898 233.82 848.898 236C848.898 238.18 847.218 239.9 845.058 239.9ZM864.014 230.84C862.334 230.84 860.974 231.7 860.294 232.98C859.594 231.7 858.274 230.84 856.714 230.84C855.434 230.84 854.254 231.48 853.514 232.48V231H852.194V241H853.514V235.14C853.514 233.42 854.834 232.06 856.494 232.06C858.154 232.06 859.474 233.42 859.474 235.14V241H860.814V235.14C860.814 233.42 862.114 232.06 863.794 232.06C865.474 232.06 866.754 233.42 866.754 235.14V241H868.114V235.1C868.114 232.72 866.354 230.84 864.014 230.84ZM870.01 241.96H871.09L872.27 238.78H870.91L870.01 241.96ZM765.858 265.16C768.698 265.16 771.018 262.84 771.018 260C771.018 257.14 768.698 254.84 765.858 254.84C762.998 254.84 760.698 257.14 760.698 260C760.698 262.84 762.998 265.16 765.858 265.16ZM765.878 263.9C763.738 263.9 762.038 262.18 762.038 260C762.038 257.82 763.738 256.08 765.878 256.08C768.038 256.08 769.718 257.82 769.718 260C769.718 262.18 768.038 263.9 765.878 263.9ZM778.594 262.76C778.594 262.88 777.874 263.94 776.834 263.94C775.934 263.94 774.954 263.24 774.954 261.94V256.2H777.974V254.98H774.954V251.66L773.634 251.82V254.98H772.034V256.2H773.634V262.24C773.634 264.24 775.034 265.16 776.594 265.16C778.274 265.14 779.254 263.78 779.254 263.78L778.594 262.76ZM785.367 254.84C784.087 254.84 782.907 255.48 782.167 256.48V250.12H780.847V265H782.167V259.14C782.167 257.42 783.487 256.08 785.147 256.08C786.827 256.08 788.127 257.44 788.127 259.16V265H789.467V259.14C789.467 256.76 787.687 254.84 785.367 254.84ZM796.522 263.84C794.842 263.86 793.362 262.7 792.902 261.12L801.642 259.54C801.642 259.46 801.642 259.38 801.622 259.28C801.322 256.74 799.142 254.76 796.522 254.74C793.662 254.76 791.362 257.04 791.362 259.92C791.362 260.4 791.422 260.9 791.562 261.36C792.222 263.54 794.302 265.06 796.522 265.06C799.222 265.08 800.962 263.1 801.482 261.7L800.362 261.3C799.902 262.56 798.402 263.84 796.522 263.84ZM796.402 255.96C798.122 255.94 799.642 257.1 800.142 258.7L792.702 260.04C792.702 259.84 792.682 259.7 792.682 259.58C792.782 257.6 794.402 256 796.402 255.96ZM808.043 254.84C806.763 254.84 805.583 255.48 804.843 256.48V255H803.523V265H804.843V259.14C804.843 257.42 806.143 256.06 807.823 256.06C808.403 256.06 809.003 256.3 809.523 256.68L809.983 255.36C809.403 255.02 808.743 254.84 808.043 254.84ZM817.194 265H820.234C824.774 265 827.474 261.98 827.474 258.28C827.474 254.56 824.774 251.56 820.234 251.56H817.194V265ZM818.514 263.74V252.82H820.234C823.834 252.82 826.034 255.22 826.034 258.28C826.034 261.34 823.834 263.74 820.234 263.74H818.514ZM838.319 252.88V251.56H829.499V265H838.319V263.68H830.819V258.82H835.039V257.5H830.819V252.88H838.319ZM851.018 265L846.458 258.22L850.938 251.56H849.438L845.718 257.1L841.978 251.56H840.478L844.958 258.22L840.398 265H841.898L845.718 259.34L849.518 265H851.018ZM857.987 263.84C856.307 263.86 854.827 262.7 854.367 261.12L863.107 259.54C863.107 259.46 863.107 259.38 863.087 259.28C862.787 256.74 860.607 254.76 857.987 254.74C855.127 254.76 852.827 257.04 852.827 259.92C852.827 260.4 852.887 260.9 853.027 261.36C853.687 263.54 855.767 265.06 857.987 265.06C860.687 265.08 862.427 263.1 862.947 261.7L861.827 261.3C861.367 262.56 859.867 263.84 857.987 263.84ZM857.867 255.96C859.587 255.94 861.107 257.1 861.607 258.7L854.167 260.04C854.167 259.84 854.147 259.7 854.147 259.58C854.247 257.6 855.867 256 857.867 255.96ZM868.503 265.16C871.083 265.16 872.183 263.9 872.183 262.34C872.183 259.12 865.763 259.62 865.763 257.64C865.763 256.6 866.783 256.04 868.183 256.04C869.883 256.04 871.103 257.26 871.103 257.26L872.043 256.44C872.043 256.44 870.643 254.84 868.203 254.84C865.643 254.84 864.523 256.1 864.523 257.66C864.523 260.88 870.943 260.36 870.943 262.36C870.943 263.4 869.943 263.96 868.523 263.96C866.843 263.96 865.623 262.74 865.623 262.74L864.683 263.54C864.683 263.54 866.083 265.16 868.503 265.16Z" fill="white"/>
<path d="M30.42 367.16C33.1 367.16 35.04 365.82 36.08 363.82L34.84 363.08C34.04 364.76 32.46 365.92 30.42 365.92C27.3 365.92 25.4 363.44 25.4 360.3C25.4 357.14 27.3 354.68 30.42 354.68C32.46 354.68 34.02 355.82 34.84 357.5L36.08 356.78C35.04 354.76 33.1 353.42 30.42 353.42C26.36 353.42 23.94 356.5 23.94 360.3C23.94 364.08 26.36 367.16 30.42 367.16ZM42.5766 367.16C45.4166 367.16 47.7366 364.84 47.7366 362C47.7366 359.14 45.4166 356.84 42.5766 356.84C39.7166 356.84 37.4166 359.14 37.4166 362C37.4166 364.84 39.7166 367.16 42.5766 367.16ZM42.5966 365.9C40.4566 365.9 38.7566 364.18 38.7566 362C38.7566 359.82 40.4566 358.08 42.5966 358.08C44.7566 358.08 46.4366 359.82 46.4366 362C46.4366 364.18 44.7566 365.9 42.5966 365.9ZM53.2883 367.16C55.8683 367.16 56.9683 365.9 56.9683 364.34C56.9683 361.12 50.5483 361.62 50.5483 359.64C50.5483 358.6 51.5683 358.04 52.9683 358.04C54.6683 358.04 55.8883 359.26 55.8883 359.26L56.8283 358.44C56.8283 358.44 55.4283 356.84 52.9883 356.84C50.4283 356.84 49.3083 358.1 49.3083 359.66C49.3083 362.88 55.7283 362.36 55.7283 364.36C55.7283 365.4 54.7283 365.96 53.3083 365.96C51.6283 365.96 50.4083 364.74 50.4083 364.74L49.4683 365.54C49.4683 365.54 50.8683 367.16 53.2883 367.16ZM71.0652 356.84C69.3852 356.84 68.0252 357.7 67.3452 358.98C66.6452 357.7 65.3252 356.84 63.7652 356.84C62.4852 356.84 61.3052 357.48 60.5652 358.48V357H59.2452V367H60.5652V361.14C60.5652 359.42 61.8852 358.06 63.5452 358.06C65.2052 358.06 66.5252 359.42 66.5252 361.14V367H67.8652V361.14C67.8652 359.42 69.1652 358.06 70.8452 358.06C72.5252 358.06 73.8052 359.42 73.8052 361.14V367H75.1652V361.1C75.1652 358.72 73.4052 356.84 71.0652 356.84ZM82.2055 367.16C85.0455 367.16 87.3655 364.84 87.3655 362C87.3655 359.14 85.0455 356.84 82.2055 356.84C79.3455 356.84 77.0455 359.14 77.0455 362C77.0455 364.84 79.3455 367.16 82.2055 367.16ZM82.2255 365.9C80.0855 365.9 78.3855 364.18 78.3855 362C78.3855 359.82 80.0855 358.08 82.2255 358.08C84.3855 358.08 86.0655 359.82 86.0655 362C86.0655 364.18 84.3855 365.9 82.2255 365.9ZM92.9172 367.16C95.4972 367.16 96.5972 365.9 96.5972 364.34C96.5972 361.12 90.1772 361.62 90.1772 359.64C90.1772 358.6 91.1972 358.04 92.5972 358.04C94.2972 358.04 95.5172 359.26 95.5172 359.26L96.4572 358.44C96.4572 358.44 95.0572 356.84 92.6172 356.84C90.0572 356.84 88.9372 358.1 88.9372 359.66C88.9372 362.88 95.3572 362.36 95.3572 364.36C95.3572 365.4 94.3572 365.96 92.9372 365.96C91.2572 365.96 90.0372 364.74 90.0372 364.74L89.0972 365.54C89.0972 365.54 90.4972 367.16 92.9172 367.16Z" fill="white"/>
<path d="M790.808 155H792.128V149.92H795.368C798.468 149.92 800.308 148.04 800.308 145.74C800.308 143.42 798.468 141.56 795.368 141.56H790.808V155ZM792.128 148.66V142.82H795.368C797.588 142.82 798.948 144.12 798.948 145.74C798.948 147.38 797.588 148.66 795.368 148.66H792.128ZM806.444 155.16C809.284 155.16 811.604 152.84 811.604 150C811.604 147.14 809.284 144.84 806.444 144.84C803.584 144.84 801.284 147.14 801.284 150C801.284 152.84 803.584 155.16 806.444 155.16ZM806.464 153.9C804.324 153.9 802.624 152.18 802.624 150C802.624 147.82 804.324 146.08 806.464 146.08C808.624 146.08 810.304 147.82 810.304 150C810.304 152.18 808.624 153.9 806.464 153.9ZM813.796 155H815.116V140.12H813.796V155ZM824.618 145H823.158L819.218 149.74V140.1H817.898V154.98H819.218V151.48L820.218 150.28L823.218 155H824.618L820.998 149.34L824.618 145ZM834.406 145V146.62C833.466 145.52 832.066 144.84 830.506 144.84C827.646 144.84 825.346 147.14 825.346 150C825.346 152.84 827.646 155.16 830.506 155.16C832.066 155.16 833.466 154.46 834.406 153.38V155H835.726V145H834.406ZM830.526 153.9C828.386 153.9 826.666 152.18 826.666 150C826.666 147.82 828.386 146.1 830.526 146.1C832.686 146.1 834.366 147.82 834.366 150C834.366 152.18 832.686 153.9 830.526 153.9ZM846.828 140.12V146.62C845.888 145.52 844.488 144.84 842.928 144.84C840.068 144.84 837.768 147.14 837.768 150C837.768 152.84 840.068 155.16 842.928 155.16C844.488 155.16 845.888 154.46 846.828 153.38V155H848.148V140.12H846.828ZM842.948 153.9C840.788 153.9 839.088 152.18 839.088 150C839.088 147.82 840.788 146.1 842.948 146.1C845.108 146.1 846.788 147.82 846.788 150C846.788 152.18 845.108 153.9 842.948 153.9ZM855.448 155.16C858.288 155.16 860.608 152.84 860.608 150C860.608 147.14 858.288 144.84 855.448 144.84C852.588 144.84 850.288 147.14 850.288 150C850.288 152.84 852.588 155.16 855.448 155.16ZM855.468 153.9C853.328 153.9 851.628 152.18 851.628 150C851.628 147.82 853.328 146.08 855.468 146.08C857.628 146.08 859.308 147.82 859.308 150C859.308 152.18 857.628 153.9 855.468 153.9ZM868.184 152.76C868.184 152.88 867.464 153.94 866.424 153.94C865.524 153.94 864.544 153.24 864.544 151.94V146.2H867.564V144.98H864.544V141.66L863.224 141.82V144.98H861.624V146.2H863.224V152.24C863.224 154.24 864.624 155.16 866.184 155.16C867.864 155.14 868.844 153.78 868.844 153.78L868.184 152.76ZM870.01 155.96H871.09L872.27 152.78H870.91L870.01 155.96ZM768.408 165.56H766.828L760.448 173.42V165.56H759.128V179H760.448V175.36L762.568 172.74L766.768 179H768.268L763.388 171.74L768.408 165.56ZM778.006 169V174.86C778.006 176.56 776.706 177.92 775.026 177.92C773.366 177.92 772.066 176.58 772.066 174.86V169H770.706V174.9C770.706 177.28 772.486 179.16 774.806 179.16C776.086 179.16 777.266 178.52 778.006 177.52V179H779.326V169H778.006ZM785.593 179.16C788.173 179.16 789.273 177.9 789.273 176.34C789.273 173.12 782.853 173.62 782.853 171.64C782.853 170.6 783.873 170.04 785.273 170.04C786.973 170.04 788.193 171.26 788.193 171.26L789.133 170.44C789.133 170.44 787.733 168.84 785.293 168.84C782.733 168.84 781.613 170.1 781.613 171.66C781.613 174.88 788.033 174.36 788.033 176.36C788.033 177.4 787.033 177.96 785.613 177.96C783.933 177.96 782.713 176.74 782.713 176.74L781.773 177.54C781.773 177.54 783.173 179.16 785.593 179.16ZM799.758 169V170.62C798.818 169.52 797.418 168.84 795.858 168.84C792.998 168.84 790.698 171.14 790.698 174C790.698 176.84 792.998 179.16 795.858 179.16C797.418 179.16 798.818 178.46 799.758 177.38V179H801.078V169H799.758ZM795.878 177.9C793.738 177.9 792.018 176.18 792.018 174C792.018 171.82 793.738 170.1 795.878 170.1C798.038 170.1 799.718 171.82 799.718 174C799.718 176.18 798.038 177.9 795.878 177.9ZM815.596 168.84C813.916 168.84 812.556 169.7 811.876 170.98C811.176 169.7 809.856 168.84 808.296 168.84C807.016 168.84 805.836 169.48 805.096 170.48V169H803.776V179H805.096V173.14C805.096 171.42 806.416 170.06 808.076 170.06C809.736 170.06 811.056 171.42 811.056 173.14V179H812.396V173.14C812.396 171.42 813.696 170.06 815.376 170.06C817.056 170.06 818.336 171.42 818.336 173.14V179H819.696V173.1C819.696 170.72 817.936 168.84 815.596 168.84ZM830.637 169V170.62C829.697 169.52 828.297 168.84 826.737 168.84C823.877 168.84 821.577 171.14 821.577 174C821.577 176.84 823.877 179.16 826.737 179.16C828.297 179.16 829.697 178.46 830.637 177.38V179H831.957V169H830.637ZM826.757 177.9C824.617 177.9 822.897 176.18 822.897 174C822.897 171.82 824.617 170.1 826.757 170.1C828.917 170.1 830.597 171.82 830.597 174C830.597 176.18 828.917 177.9 826.757 177.9ZM834.013 179.96H835.093L836.273 176.78H834.913L834.013 179.96ZM848.534 177.84C846.854 177.86 845.374 176.7 844.914 175.12L853.654 173.54C853.654 173.46 853.654 173.38 853.634 173.28C853.334 170.74 851.154 168.76 848.534 168.74C845.674 168.76 843.374 171.04 843.374 173.92C843.374 174.4 843.434 174.9 843.574 175.36C844.234 177.54 846.314 179.06 848.534 179.06C851.234 179.08 852.974 177.1 853.494 175.7L852.374 175.3C851.914 176.56 850.414 177.84 848.534 177.84ZM848.414 169.96C850.134 169.94 851.654 171.1 852.154 172.7L844.714 174.04C844.714 173.84 844.694 173.7 844.694 173.58C844.794 171.6 846.414 170 848.414 169.96ZM861.191 176.76C861.191 176.88 860.471 177.94 859.431 177.94C858.531 177.94 857.551 177.24 857.551 175.94V170.2H860.571V168.98H857.551V165.66L856.231 165.82V168.98H854.631V170.2H856.231V176.24C856.231 178.24 857.631 179.16 859.191 179.16C860.871 179.14 861.851 177.78 861.851 177.78L861.191 176.76ZM867.674 179.16C869.514 179.16 871.154 178.18 872.054 176.7L870.854 176.12C870.154 177.2 868.974 177.9 867.674 177.9C865.514 177.9 863.834 176.18 863.834 174C863.834 171.82 865.514 170.1 867.674 170.1C868.974 170.1 870.154 170.8 870.854 171.88L872.054 171.3C871.154 169.82 869.514 168.84 867.674 168.84C864.814 168.84 862.514 171.14 862.514 174C862.514 176.84 864.814 179.16 867.674 179.16Z" fill="white"/>
<path d="M30.4 295.16C34.46 295.16 36.84 292.08 36.84 288.3C36.84 284.5 34.46 281.42 30.4 281.42C26.34 281.42 23.94 284.5 23.94 288.3C23.94 292.08 26.34 295.16 30.4 295.16ZM30.4 293.92C27.3 293.92 25.36 291.44 25.36 288.3C25.36 285.14 27.3 282.68 30.4 282.68C33.5 282.68 35.46 285.14 35.46 288.3C35.46 291.44 33.5 293.92 30.4 293.92ZM42.6047 295.16C45.1847 295.16 46.2847 293.9 46.2847 292.34C46.2847 289.12 39.8647 289.62 39.8647 287.64C39.8647 286.6 40.8847 286.04 42.2847 286.04C43.9847 286.04 45.2047 287.26 45.2047 287.26L46.1447 286.44C46.1447 286.44 44.7447 284.84 42.3047 284.84C39.7447 284.84 38.6247 286.1 38.6247 287.66C38.6247 290.88 45.0447 290.36 45.0447 292.36C45.0447 293.4 44.0447 293.96 42.6247 293.96C40.9447 293.96 39.7247 292.74 39.7247 292.74L38.7847 293.54C38.7847 293.54 40.1847 295.16 42.6047 295.16ZM60.3816 284.84C58.7016 284.84 57.3416 285.7 56.6616 286.98C55.9616 285.7 54.6416 284.84 53.0816 284.84C51.8016 284.84 50.6216 285.48 49.8816 286.48V285H48.5616V295H49.8816V289.14C49.8816 287.42 51.2016 286.06 52.8616 286.06C54.5216 286.06 55.8416 287.42 55.8416 289.14V295H57.1816V289.14C57.1816 287.42 58.4816 286.06 60.1616 286.06C61.8416 286.06 63.1216 287.42 63.1216 289.14V295H64.4816V289.1C64.4816 286.72 62.7216 284.84 60.3816 284.84ZM71.5219 295.16C74.3619 295.16 76.6819 292.84 76.6819 290C76.6819 287.14 74.3619 284.84 71.5219 284.84C68.6619 284.84 66.3619 287.14 66.3619 290C66.3619 292.84 68.6619 295.16 71.5219 295.16ZM71.5419 293.9C69.4019 293.9 67.7019 292.18 67.7019 290C67.7019 287.82 69.4019 286.08 71.5419 286.08C73.7019 286.08 75.3819 287.82 75.3819 290C75.3819 292.18 73.7019 293.9 71.5419 293.9ZM82.2336 295.16C84.8136 295.16 85.9136 293.9 85.9136 292.34C85.9136 289.12 79.4936 289.62 79.4936 287.64C79.4936 286.6 80.5136 286.04 81.9136 286.04C83.6136 286.04 84.8336 287.26 84.8336 287.26L85.7736 286.44C85.7736 286.44 84.3736 284.84 81.9336 284.84C79.3736 284.84 78.2536 286.1 78.2536 287.66C78.2536 290.88 84.6736 290.36 84.6736 292.36C84.6736 293.4 83.6736 293.96 82.2536 293.96C80.5736 293.96 79.3536 292.74 79.3536 292.74L78.4136 293.54C78.4136 293.54 79.8136 295.16 82.2336 295.16ZM88.9905 282.24C89.4305 282.24 89.7905 281.88 89.7905 281.44C89.7905 281 89.4305 280.64 88.9905 280.64C88.5505 280.64 88.1905 281 88.1905 281.44C88.1905 281.88 88.5505 282.24 88.9905 282.24ZM88.3305 295H89.6505V285H88.3305V295ZM95.9836 295.16C98.5636 295.16 99.6636 293.9 99.6636 292.34C99.6636 289.12 93.2436 289.62 93.2436 287.64C93.2436 286.6 94.2636 286.04 95.6636 286.04C97.3636 286.04 98.5836 287.26 98.5836 287.26L99.5236 286.44C99.5236 286.44 98.1236 284.84 95.6836 284.84C93.1236 284.84 92.0036 286.1 92.0036 287.66C92.0036 290.88 98.4236 290.36 98.4236 292.36C98.4236 293.4 97.4236 293.96 96.0036 293.96C94.3236 293.96 93.1036 292.74 93.1036 292.74L92.1636 293.54C92.1636 293.54 93.5636 295.16 95.9836 295.16Z" fill="white"/>
<path d="M791.639 80.88V79.56H782.819V93H791.639V91.68H784.139V86.82H788.359V85.5H784.139V80.88H791.639ZM800.098 90.76C800.098 90.88 799.378 91.94 798.338 91.94C797.438 91.94 796.458 91.24 796.458 89.94V84.2H799.478V82.98H796.458V79.66L795.138 79.82V82.98H793.538V84.2H795.138V90.24C795.138 92.24 796.538 93.16 798.098 93.16C799.778 93.14 800.758 91.78 800.758 91.78L800.098 90.76ZM806.871 82.84C805.591 82.84 804.411 83.48 803.671 84.48V78.12H802.351V93H803.671V87.14C803.671 85.42 804.991 84.08 806.651 84.08C808.331 84.08 809.631 85.44 809.631 87.16V93H810.971V87.14C810.971 84.76 809.191 82.84 806.871 82.84ZM818.026 91.84C816.346 91.86 814.866 90.7 814.406 89.12L823.146 87.54C823.146 87.46 823.146 87.38 823.126 87.28C822.826 84.74 820.646 82.76 818.026 82.74C815.166 82.76 812.866 85.04 812.866 87.92C812.866 88.4 812.926 88.9 813.066 89.36C813.726 91.54 815.806 93.06 818.026 93.06C820.726 93.08 822.466 91.1 822.986 89.7L821.866 89.3C821.406 90.56 819.906 91.84 818.026 91.84ZM817.906 83.96C819.626 83.94 821.146 85.1 821.646 86.7L814.206 88.04C814.206 87.84 814.186 87.7 814.186 87.58C814.286 85.6 815.906 84 817.906 83.96ZM829.546 82.84C828.266 82.84 827.086 83.48 826.346 84.48V83H825.026V93H826.346V87.14C826.346 85.42 827.646 84.06 829.326 84.06C829.906 84.06 830.506 84.3 831.026 84.68L831.486 83.36C830.906 83.02 830.246 82.84 829.546 82.84ZM837.03 91.84C835.35 91.86 833.87 90.7 833.41 89.12L842.15 87.54C842.15 87.46 842.15 87.38 842.13 87.28C841.83 84.74 839.65 82.76 837.03 82.74C834.17 82.76 831.87 85.04 831.87 87.92C831.87 88.4 831.93 88.9 832.07 89.36C832.73 91.54 834.81 93.06 837.03 93.06C839.73 93.08 841.47 91.1 841.99 89.7L840.87 89.3C840.41 90.56 838.91 91.84 837.03 91.84ZM836.91 83.96C838.63 83.94 840.15 85.1 840.65 86.7L833.21 88.04C833.21 87.84 833.19 87.7 833.19 87.58C833.29 85.6 834.91 84 836.91 83.96ZM851.717 83V88.86C851.717 90.56 850.417 91.92 848.737 91.92C847.077 91.92 845.777 90.58 845.777 88.86V83H844.417V88.9C844.417 91.28 846.197 93.16 848.517 93.16C849.797 93.16 850.977 92.52 851.717 91.52V93H853.037V83H851.717ZM867.608 82.84C865.928 82.84 864.568 83.7 863.888 84.98C863.188 83.7 861.868 82.84 860.308 82.84C859.028 82.84 857.848 83.48 857.108 84.48V83H855.788V93H857.108V87.14C857.108 85.42 858.428 84.06 860.088 84.06C861.748 84.06 863.068 85.42 863.068 87.14V93H864.408V87.14C864.408 85.42 865.708 84.06 867.388 84.06C869.068 84.06 870.348 85.42 870.348 87.14V93H871.708V87.1C871.708 84.72 869.948 82.84 867.608 82.84Z" fill="white"/>
<circle cx="448" cy="283" r="280" fill="#8547FF" fill-opacity="0.2"/>
<circle cx="448" cy="283" r="279" stroke="#8547FF" stroke-opacity="0.5" stroke-width="2"/>
<g filter="url(#filter0_d_108_391)">
<ellipse cx="448" cy="281" rx="210" ry="209" fill="#8547FF" fill-opacity="0.2" shape-rendering="crispEdges"/>
<path d="M657 281C657 395.871 563.432 489 448 489C332.568 489 239 395.871 239 281C239 166.129 332.568 73 448 73C563.432 73 657 166.129 657 281Z" stroke="#8547FF" stroke-opacity="0.5" stroke-width="2" shape-rendering="crispEdges"/>
</g>
<g filter="url(#filter1_d_108_391)">
<ellipse cx="448" cy="281" rx="141" ry="139" fill="#8547FF" fill-opacity="0.3" shape-rendering="crispEdges"/>
<path d="M588 281C588 357.202 525.333 419 448 419C370.667 419 308 357.202 308 281C308 204.798 370.667 143 448 143C525.333 143 588 204.798 588 281Z" stroke="#8547FF" stroke-opacity="0.5" stroke-width="2" shape-rendering="crispEdges"/>
</g>
<g filter="url(#filter2_d_108_391)">
<ellipse cx="448" cy="281" rx="71" ry="70" fill="#8547FF" fill-opacity="0.4" shape-rendering="crispEdges"/>
<path d="M518 281C518 319.094 486.673 350 448 350C409.327 350 378 319.094 378 281C378 242.906 409.327 212 448 212C486.673 212 518 242.906 518 281Z" stroke="#8547FF" stroke-opacity="0.5" stroke-width="2" shape-rendering="crispEdges"/>
</g>
<path d="M24 523C23.4477 523 23 523.448 23 524C23 524.552 23.4477 525 24 525V523ZM453.774 524L448 518.226L442.227 524L448 529.774L453.774 524ZM24 525H448V523H24V525Z" fill="#E20088" fill-opacity="0.64"/>
<path d="M24 451C23.4477 451 23 451.448 23 452C23 452.552 23.4477 453 24 453V451ZM453.774 452L448 446.226L442.227 452L448 457.774L453.774 452ZM24 453H448V451H24V453Z" fill="#E20088" fill-opacity="0.64"/>
<path d="M24 379C23.4477 379 23 379.448 23 380C23 380.552 23.4477 381 24 381V379ZM453.774 380L448 374.226L442.227 380L448 385.774L453.774 380ZM24 381H448V379H24V381Z" fill="#E20088" fill-opacity="0.64"/>
<path d="M24 307C23.4477 307 23 307.448 23 308C23 308.552 23.4477 309 24 309V307ZM453.774 308L448 302.226L442.227 308L448 313.774L453.774 308ZM24 309H448V307H24V309Z" fill="#E20088" fill-opacity="0.64"/>
<path d="M873 279C873.552 279 874 278.552 874 278C874 277.448 873.552 277 873 277V279ZM542.227 278L548 283.774L553.773 278L548 272.226L542.227 278ZM873 277L548 277V279L873 279V277Z" fill="#E20088" fill-opacity="0.64"/>
<path d="M873 193C873.552 193 874 192.552 874 192C874 191.448 873.552 191 873 191V193ZM587.227 192L593 197.774L598.773 192L593 186.226L587.227 192ZM873 191L593 191V193L873 193V191Z" fill="#E20088" fill-opacity="0.64"/>
<path d="M873 107C873.552 107 874 106.552 874 106C874 105.448 873.552 105 873 105V107ZM622.227 106L628 111.774L633.773 106L628 100.226L622.227 106ZM873 105L628 105V107L873 107V105Z" fill="#E20088" fill-opacity="0.64"/>
<defs>
<filter id="filter0_d_108_391" x="188" y="42" width="520" height="518" filterUnits="userSpaceOnUse" color-interpolation-filters="sRGB">
<feFlood flood-opacity="0" result="BackgroundImageFix"/>
<feColorMatrix in="SourceAlpha" type="matrix" values="0 0 0 0 0 0 0 0 0 0 0 0 0 0 0 0 0 0 127 0" result="hardAlpha"/>
<feOffset dy="20"/>
<feGaussianBlur stdDeviation="25"/>
<feComposite in2="hardAlpha" operator="out"/>
<feColorMatrix type="matrix" values="0 0 0 0 0 0 0 0 0 0 0 0 0 0 0 0 0 0 0.5 0"/>
<feBlend mode="normal" in2="BackgroundImageFix" result="effect1_dropShadow_108_391"/>
<feBlend mode="normal" in="SourceGraphic" in2="effect1_dropShadow_108_391" result="shape"/>
</filter>
<filter id="filter1_d_108_391" x="257" y="112" width="382" height="378" filterUnits="userSpaceOnUse" color-interpolation-filters="sRGB">
<feFlood flood-opacity="0" result="BackgroundImageFix"/>
<feColorMatrix in="SourceAlpha" type="matrix" values="0 0 0 0 0 0 0 0 0 0 0 0 0 0 0 0 0 0 127 0" result="hardAlpha"/>
<feOffset dy="20"/>
<feGaussianBlur stdDeviation="25"/>
<feComposite in2="hardAlpha" operator="out"/>
<feColorMatrix type="matrix" values="0 0 0 0 0 0 0 0 0 0 0 0 0 0 0 0 0 0 0.3 0"/>
<feBlend mode="normal" in2="BackgroundImageFix" result="effect1_dropShadow_108_391"/>
<feBlend mode="normal" in="SourceGraphic" in2="effect1_dropShadow_108_391" result="shape"/>
</filter>
<filter id="filter2_d_108_391" x="327" y="181" width="242" height="240" filterUnits="userSpaceOnUse" color-interpolation-filters="sRGB">
<feFlood flood-opacity="0" result="BackgroundImageFix"/>
<feColorMatrix in="SourceAlpha" type="matrix" values="0 0 0 0 0 0 0 0 0 0 0 0 0 0 0 0 0 0 127 0" result="hardAlpha"/>
<feOffset dy="20"/>
<feGaussianBlur stdDeviation="25"/>
<feComposite in2="hardAlpha" operator="out"/>
<feColorMatrix type="matrix" values="0 0 0 0 0 0 0 0 0 0 0 0 0 0 0 0 0 0 0.4 0"/>
<feBlend mode="normal" in2="BackgroundImageFix" result="effect1_dropShadow_108_391"/>
<feBlend mode="normal" in="SourceGraphic" in2="effect1_dropShadow_108_391" result="shape"/>
</filter>
</defs>
</svg>
