<svg width="598" height="933" viewBox="0 0 598 933" fill="none" xmlns="http://www.w3.org/2000/svg">
<path d="M231.28 915.88V914.56H222.46V928H231.28V926.68H223.78V921.82H228V920.5H223.78V915.88H231.28ZM243.669 914.56L239.049 926.3L234.409 914.56H233.049L238.369 928H239.709L245.009 914.56H243.669ZM262.126 928L259.026 914.56H257.806L254.326 925.32L250.806 914.56H249.606L246.506 928H247.826L250.406 917.02L253.866 928H254.746L258.226 917.02L260.806 928H262.126ZM274.405 926.84C272.725 926.86 271.245 925.7 270.785 924.12L279.525 922.54C279.525 922.46 279.525 922.38 279.505 922.28C279.205 919.74 277.025 917.76 274.405 917.74C271.545 917.76 269.245 920.04 269.245 922.92C269.245 923.4 269.305 923.9 269.445 924.36C270.105 926.54 272.185 928.06 274.405 928.06C277.105 928.08 278.845 926.1 279.365 924.7L278.245 924.3C277.785 925.56 276.285 926.84 274.405 926.84ZM274.285 918.96C276.005 918.94 277.525 920.1 278.025 921.7L270.585 923.04C270.585 922.84 270.565 922.7 270.565 922.58C270.665 920.6 272.285 919 274.285 918.96ZM285.925 917.84C284.645 917.84 283.465 918.48 282.725 919.48V918H281.405V928H282.725V922.14C282.725 920.42 284.045 919.06 285.705 919.06C287.365 919.06 288.685 920.42 288.685 922.14V928H290.025V922.1C290.025 919.72 288.245 917.84 285.925 917.84ZM300.98 918V919.62C300.04 918.52 298.64 917.84 297.08 917.84C294.22 917.84 291.92 920.14 291.92 923C291.92 925.84 294.22 928.16 297.08 928.16C298.64 928.16 300.04 927.46 300.98 926.38V928H302.3V918H300.98ZM297.1 926.9C294.96 926.9 293.24 925.18 293.24 923C293.24 920.82 294.96 919.1 297.1 919.1C299.26 919.1 300.94 920.82 300.94 923C300.94 925.18 299.26 926.9 297.1 926.9ZM310.356 917.84C308.796 917.84 307.376 918.54 306.436 919.64V913.12H305.116V928H306.436V926.34C307.376 927.46 308.796 928.16 310.356 928.16C313.216 928.16 315.516 925.84 315.516 923C315.516 920.14 313.216 917.84 310.356 917.84ZM310.316 926.9C308.176 926.9 306.476 925.18 306.476 923C306.476 920.82 308.176 919.1 310.316 919.1C312.456 919.1 314.156 920.82 314.156 923C314.156 925.18 312.456 926.9 310.316 926.9ZM317.694 928H319.014V913.12H317.694V928ZM326.319 926.84C324.639 926.86 323.159 925.7 322.699 924.12L331.439 922.54C331.439 922.46 331.439 922.38 331.419 922.28C331.119 919.74 328.939 917.76 326.319 917.74C323.459 917.76 321.159 920.04 321.159 922.92C321.159 923.4 321.219 923.9 321.359 924.36C322.019 926.54 324.099 928.06 326.319 928.06C329.019 928.08 330.759 926.1 331.279 924.7L330.159 924.3C329.699 925.56 328.199 926.84 326.319 926.84ZM326.199 918.96C327.919 918.94 329.439 920.1 329.939 921.7L322.499 923.04C322.499 922.84 322.479 922.7 322.479 922.58C322.579 920.6 324.199 919 326.199 918.96ZM342.172 913.12V919.62C341.232 918.52 339.832 917.84 338.272 917.84C335.412 917.84 333.112 920.14 333.112 923C333.112 925.84 335.412 928.16 338.272 928.16C339.832 928.16 341.232 927.46 342.172 926.38V928H343.492V913.12H342.172ZM338.292 926.9C336.132 926.9 334.432 925.18 334.432 923C334.432 920.82 336.132 919.1 338.292 919.1C340.452 919.1 342.132 920.82 342.132 923C342.132 925.18 340.452 926.9 338.292 926.9Z" fill="white"/>
<path d="M187.46 867H188.78V853.56H187.46V867ZM191.562 867H196.122C199.222 867 201.062 865.36 201.062 863.32C201.062 862 200.262 860.86 198.822 860.28C200.262 859.7 201.062 858.56 201.062 857.26C201.062 855.22 199.222 853.56 196.122 853.56H191.562V867ZM192.882 859.72V854.82H196.122C198.342 854.82 199.702 855.9 199.702 857.28C199.702 858.64 198.342 859.72 196.122 859.72H192.882ZM192.882 865.74V860.84H196.122C198.342 860.84 199.702 861.92 199.702 863.28C199.702 864.66 198.342 865.74 196.122 865.74H192.882ZM209.24 867.16C211.92 867.16 213.86 865.82 214.9 863.82L213.66 863.08C212.86 864.76 211.28 865.92 209.24 865.92C206.12 865.92 204.22 863.44 204.22 860.3C204.22 857.14 206.12 854.68 209.24 854.68C211.28 854.68 212.84 855.82 213.66 857.5L214.9 856.78C213.86 854.76 211.92 853.42 209.24 853.42C205.18 853.42 202.76 856.5 202.76 860.3C202.76 864.08 205.18 867.16 209.24 867.16ZM227.373 865.84C225.693 865.86 224.213 864.7 223.753 863.12L232.493 861.54C232.493 861.46 232.493 861.38 232.473 861.28C232.173 858.74 229.993 856.76 227.373 856.74C224.513 856.76 222.213 859.04 222.213 861.92C222.213 862.4 222.273 862.9 222.413 863.36C223.073 865.54 225.153 867.06 227.373 867.06C230.073 867.08 231.813 865.1 232.333 863.7L231.213 863.3C230.753 864.56 229.253 865.84 227.373 865.84ZM227.253 857.96C228.973 857.94 230.493 859.1 230.993 860.7L223.553 862.04C223.553 861.84 223.533 861.7 223.533 861.58C223.633 859.6 225.253 858 227.253 857.96ZM238.894 856.84C237.614 856.84 236.434 857.48 235.694 858.48V857H234.374V867H235.694V861.14C235.694 859.42 237.014 858.06 238.674 858.06C240.334 858.06 241.654 859.42 241.654 861.14V867H242.994V861.1C242.994 858.72 241.214 856.84 238.894 856.84ZM253.949 857V858.62C253.009 857.52 251.609 856.84 250.049 856.84C247.189 856.84 244.889 859.14 244.889 862C244.889 864.84 247.189 867.16 250.049 867.16C251.609 867.16 253.009 866.46 253.949 865.38V867H255.269V857H253.949ZM250.069 865.9C247.929 865.9 246.209 864.18 246.209 862C246.209 859.82 247.929 858.1 250.069 858.1C252.229 858.1 253.909 859.82 253.909 862C253.909 864.18 252.229 865.9 250.069 865.9ZM263.325 856.84C261.765 856.84 260.345 857.54 259.405 858.64V852.12H258.085V867H259.405V865.34C260.345 866.46 261.765 867.16 263.325 867.16C266.185 867.16 268.485 864.84 268.485 862C268.485 859.14 266.185 856.84 263.325 856.84ZM263.285 865.9C261.145 865.9 259.445 864.18 259.445 862C259.445 859.82 261.145 858.1 263.285 858.1C265.425 858.1 267.125 859.82 267.125 862C267.125 864.18 265.425 865.9 263.285 865.9ZM270.663 867H271.983V852.12H270.663V867ZM279.288 865.84C277.608 865.86 276.127 864.7 275.668 863.12L284.408 861.54C284.408 861.46 284.408 861.38 284.388 861.28C284.088 858.74 281.908 856.76 279.288 856.74C276.428 856.76 274.128 859.04 274.128 861.92C274.128 862.4 274.188 862.9 274.328 863.36C274.988 865.54 277.068 867.06 279.288 867.06C281.988 867.08 283.728 865.1 284.248 863.7L283.128 863.3C282.668 864.56 281.168 865.84 279.288 865.84ZM279.168 857.96C280.888 857.94 282.408 859.1 282.908 860.7L275.468 862.04C275.468 861.84 275.448 861.7 275.448 861.58C275.548 859.6 277.168 858 279.168 857.96ZM295.141 852.12V858.62C294.201 857.52 292.801 856.84 291.241 856.84C288.381 856.84 286.081 859.14 286.081 862C286.081 864.84 288.381 867.16 291.241 867.16C292.801 867.16 294.201 866.46 295.141 865.38V867H296.461V852.12H295.141ZM291.261 865.9C289.101 865.9 287.401 864.18 287.401 862C287.401 859.82 289.101 858.1 291.261 858.1C293.421 858.1 295.101 859.82 295.101 862C295.101 864.18 293.421 865.9 291.261 865.9Z" fill="white"/>
<path d="M493.35 213.16C496.03 213.16 497.97 211.82 499.01 209.82L497.77 209.08C496.97 210.76 495.39 211.92 493.35 211.92C490.23 211.92 488.33 209.44 488.33 206.3C488.33 203.14 490.23 200.68 493.35 200.68C495.39 200.68 496.95 201.82 497.77 203.5L499.01 202.78C497.97 200.76 496.03 199.42 493.35 199.42C489.29 199.42 486.87 202.5 486.87 206.3C486.87 210.08 489.29 213.16 493.35 213.16ZM505.816 202.84C504.536 202.84 503.356 203.48 502.616 204.48V203H501.296V213H502.616V207.14C502.616 205.42 503.916 204.06 505.596 204.06C506.176 204.06 506.776 204.3 507.296 204.68L507.756 203.36C507.176 203.02 506.516 202.84 505.816 202.84ZM516.208 203L513.468 210.14L510.468 203H509.148L512.848 211.78L510.748 217.26H512.068L517.528 203H516.208ZM524.876 202.82C523.316 202.82 521.896 203.52 520.956 204.62V202.98H519.636V217.86H520.956V211.32C521.896 212.44 523.316 213.14 524.876 213.14C527.736 213.14 530.036 210.82 530.036 207.98C530.036 205.12 527.736 202.82 524.876 202.82ZM524.836 211.88C522.696 211.88 520.996 210.16 520.996 207.98C520.996 205.78 522.696 204.06 524.836 204.06C526.976 204.06 528.696 205.78 528.696 207.98C528.696 210.16 526.976 211.88 524.836 211.88ZM537.598 210.76C537.598 210.88 536.878 211.94 535.838 211.94C534.938 211.94 533.958 211.24 533.958 209.94V204.2H536.978V202.98H533.958V199.66L532.638 199.82V202.98H531.038V204.2H532.638V210.24C532.638 212.24 534.038 213.16 535.598 213.16C537.278 213.14 538.258 211.78 538.258 211.78L537.598 210.76ZM544.08 213.16C546.92 213.16 549.24 210.84 549.24 208C549.24 205.14 546.92 202.84 544.08 202.84C541.22 202.84 538.92 205.14 538.92 208C538.92 210.84 541.22 213.16 544.08 213.16ZM544.1 211.9C541.96 211.9 540.26 210.18 540.26 208C540.26 205.82 541.96 204.08 544.1 204.08C546.26 204.08 547.94 205.82 547.94 208C547.94 210.18 546.26 211.9 544.1 211.9ZM550.62 213H552.04V210.88H550.62V213ZM559.08 213.16C560.92 213.16 562.56 212.18 563.46 210.7L562.26 210.12C561.56 211.2 560.38 211.9 559.08 211.9C556.92 211.9 555.24 210.18 555.24 208C555.24 205.82 556.92 204.1 559.08 204.1C560.38 204.1 561.56 204.8 562.26 205.88L563.46 205.3C562.56 203.82 560.92 202.84 559.08 202.84C556.22 202.84 553.92 205.14 553.92 208C553.92 210.84 556.22 213.16 559.08 213.16ZM570.038 213.16C572.878 213.16 575.198 210.84 575.198 208C575.198 205.14 572.878 202.84 570.038 202.84C567.178 202.84 564.878 205.14 564.878 208C564.878 210.84 567.178 213.16 570.038 213.16ZM570.058 211.9C567.918 211.9 566.218 210.18 566.218 208C566.218 205.82 567.918 204.08 570.058 204.08C572.218 204.08 573.898 205.82 573.898 208C573.898 210.18 572.218 211.9 570.058 211.9ZM589.014 202.84C587.334 202.84 585.974 203.7 585.294 204.98C584.594 203.7 583.274 202.84 581.714 202.84C580.434 202.84 579.254 203.48 578.514 204.48V203H577.194V213H578.514V207.14C578.514 205.42 579.834 204.06 581.494 204.06C583.154 204.06 584.474 205.42 584.474 207.14V213H585.814V207.14C585.814 205.42 587.114 204.06 588.794 204.06C590.474 204.06 591.754 205.42 591.754 207.14V213H593.114V207.1C593.114 204.72 591.354 202.84 589.014 202.84ZM595.01 213.96H596.09L597.27 210.78H595.91L595.01 213.96ZM490.858 237.16C493.698 237.16 496.018 234.84 496.018 232C496.018 229.14 493.698 226.84 490.858 226.84C487.998 226.84 485.698 229.14 485.698 232C485.698 234.84 487.998 237.16 490.858 237.16ZM490.878 235.9C488.738 235.9 487.038 234.18 487.038 232C487.038 229.82 488.738 228.08 490.878 228.08C493.038 228.08 494.718 229.82 494.718 232C494.718 234.18 493.038 235.9 490.878 235.9ZM503.594 234.76C503.594 234.88 502.874 235.94 501.834 235.94C500.934 235.94 499.954 235.24 499.954 233.94V228.2H502.974V226.98H499.954V223.66L498.634 223.82V226.98H497.034V228.2H498.634V234.24C498.634 236.24 500.034 237.16 501.594 237.16C503.274 237.14 504.254 235.78 504.254 235.78L503.594 234.76ZM510.367 226.84C509.087 226.84 507.907 227.48 507.167 228.48V222.12H505.847V237H507.167V231.14C507.167 229.42 508.487 228.08 510.147 228.08C511.827 228.08 513.127 229.44 513.127 231.16V237H514.467V231.14C514.467 228.76 512.687 226.84 510.367 226.84ZM521.522 235.84C519.842 235.86 518.362 234.7 517.902 233.12L526.642 231.54C526.642 231.46 526.642 231.38 526.622 231.28C526.322 228.74 524.142 226.76 521.522 226.74C518.662 226.76 516.362 229.04 516.362 231.92C516.362 232.4 516.422 232.9 516.562 233.36C517.222 235.54 519.302 237.06 521.522 237.06C524.222 237.08 525.962 235.1 526.482 233.7L525.362 233.3C524.902 234.56 523.402 235.84 521.522 235.84ZM521.402 227.96C523.122 227.94 524.642 229.1 525.142 230.7L517.702 232.04C517.702 231.84 517.682 231.7 517.682 231.58C517.782 229.6 519.402 228 521.402 227.96ZM533.043 226.84C531.763 226.84 530.583 227.48 529.843 228.48V227H528.523V237H529.843V231.14C529.843 229.42 531.143 228.06 532.823 228.06C533.403 228.06 534.003 228.3 534.523 228.68L534.983 227.36C534.403 227.02 533.743 226.84 533.043 226.84ZM542.194 237H545.234C549.774 237 552.474 233.98 552.474 230.28C552.474 226.56 549.774 223.56 545.234 223.56H542.194V237ZM543.514 235.74V224.82H545.234C548.834 224.82 551.034 227.22 551.034 230.28C551.034 233.34 548.834 235.74 545.234 235.74H543.514ZM563.319 224.88V223.56H554.499V237H563.319V235.68H555.819V230.82H560.039V229.5H555.819V224.88H563.319ZM576.018 237L571.458 230.22L575.938 223.56H574.438L570.718 229.1L566.978 223.56H565.478L569.958 230.22L565.398 237H566.898L570.718 231.34L574.518 237H576.018ZM582.987 235.84C581.307 235.86 579.827 234.7 579.367 233.12L588.107 231.54C588.107 231.46 588.107 231.38 588.087 231.28C587.787 228.74 585.607 226.76 582.987 226.74C580.127 226.76 577.827 229.04 577.827 231.92C577.827 232.4 577.887 232.9 578.027 233.36C578.687 235.54 580.767 237.06 582.987 237.06C585.687 237.08 587.427 235.1 587.947 233.7L586.827 233.3C586.367 234.56 584.867 235.84 582.987 235.84ZM582.867 227.96C584.587 227.94 586.107 229.1 586.607 230.7L579.167 232.04C579.167 231.84 579.147 231.7 579.147 231.58C579.247 229.6 580.867 228 582.867 227.96ZM593.503 237.16C596.083 237.16 597.183 235.9 597.183 234.34C597.183 231.12 590.763 231.62 590.763 229.64C590.763 228.6 591.783 228.04 593.183 228.04C594.883 228.04 596.103 229.26 596.103 229.26L597.043 228.44C597.043 228.44 595.643 226.84 593.203 226.84C590.643 226.84 589.523 228.1 589.523 229.66C589.523 232.88 595.943 232.36 595.943 234.36C595.943 235.4 594.943 235.96 593.523 235.96C591.843 235.96 590.623 234.74 590.623 234.74L589.683 235.54C589.683 235.54 591.083 237.16 593.503 237.16Z" fill="white"/>
<path d="M188.42 787.16C191.1 787.16 193.04 785.82 194.08 783.82L192.84 783.08C192.04 784.76 190.46 785.92 188.42 785.92C185.3 785.92 183.4 783.44 183.4 780.3C183.4 777.14 185.3 774.68 188.42 774.68C190.46 774.68 192.02 775.82 192.84 777.5L194.08 776.78C193.04 774.76 191.1 773.42 188.42 773.42C184.36 773.42 181.94 776.5 181.94 780.3C181.94 784.08 184.36 787.16 188.42 787.16ZM200.577 787.16C203.417 787.16 205.737 784.84 205.737 782C205.737 779.14 203.417 776.84 200.577 776.84C197.717 776.84 195.417 779.14 195.417 782C195.417 784.84 197.717 787.16 200.577 787.16ZM200.597 785.9C198.457 785.9 196.757 784.18 196.757 782C196.757 779.82 198.457 778.08 200.597 778.08C202.757 778.08 204.437 779.82 204.437 782C204.437 784.18 202.757 785.9 200.597 785.9ZM211.288 787.16C213.868 787.16 214.968 785.9 214.968 784.34C214.968 781.12 208.548 781.62 208.548 779.64C208.548 778.6 209.568 778.04 210.968 778.04C212.668 778.04 213.888 779.26 213.888 779.26L214.828 778.44C214.828 778.44 213.428 776.84 210.988 776.84C208.428 776.84 207.308 778.1 207.308 779.66C207.308 782.88 213.728 782.36 213.728 784.36C213.728 785.4 212.728 785.96 211.308 785.96C209.628 785.96 208.408 784.74 208.408 784.74L207.468 785.54C207.468 785.54 208.868 787.16 211.288 787.16ZM229.065 776.84C227.385 776.84 226.025 777.7 225.345 778.98C224.645 777.7 223.325 776.84 221.765 776.84C220.485 776.84 219.305 777.48 218.565 778.48V777H217.245V787H218.565V781.14C218.565 779.42 219.885 778.06 221.545 778.06C223.205 778.06 224.525 779.42 224.525 781.14V787H225.865V781.14C225.865 779.42 227.165 778.06 228.845 778.06C230.525 778.06 231.805 779.42 231.805 781.14V787H233.165V781.1C233.165 778.72 231.405 776.84 229.065 776.84ZM240.205 787.16C243.045 787.16 245.365 784.84 245.365 782C245.365 779.14 243.045 776.84 240.205 776.84C237.345 776.84 235.045 779.14 235.045 782C235.045 784.84 237.345 787.16 240.205 787.16ZM240.225 785.9C238.085 785.9 236.385 784.18 236.385 782C236.385 779.82 238.085 778.08 240.225 778.08C242.385 778.08 244.065 779.82 244.065 782C244.065 784.18 242.385 785.9 240.225 785.9ZM250.917 787.16C253.497 787.16 254.597 785.9 254.597 784.34C254.597 781.12 248.177 781.62 248.177 779.64C248.177 778.6 249.197 778.04 250.597 778.04C252.297 778.04 253.517 779.26 253.517 779.26L254.457 778.44C254.457 778.44 253.057 776.84 250.617 776.84C248.057 776.84 246.937 778.1 246.937 779.66C246.937 782.88 253.357 782.36 253.357 784.36C253.357 785.4 252.357 785.96 250.937 785.96C249.257 785.96 248.037 784.74 248.037 784.74L247.097 785.54C247.097 785.54 248.497 787.16 250.917 787.16Z" fill="white"/>
<path d="M347.808 151H349.128V145.92H352.368C355.468 145.92 357.308 144.04 357.308 141.74C357.308 139.42 355.468 137.56 352.368 137.56H347.808V151ZM349.128 144.66V138.82H352.368C354.588 138.82 355.948 140.12 355.948 141.74C355.948 143.38 354.588 144.66 352.368 144.66H349.128ZM363.444 151.16C366.284 151.16 368.604 148.84 368.604 146C368.604 143.14 366.284 140.84 363.444 140.84C360.584 140.84 358.284 143.14 358.284 146C358.284 148.84 360.584 151.16 363.444 151.16ZM363.464 149.9C361.324 149.9 359.624 148.18 359.624 146C359.624 143.82 361.324 142.08 363.464 142.08C365.624 142.08 367.304 143.82 367.304 146C367.304 148.18 365.624 149.9 363.464 149.9ZM370.796 151H372.116V136.12H370.796V151ZM381.618 141H380.158L376.218 145.74V136.1H374.898V150.98H376.218V147.48L377.218 146.28L380.218 151H381.618L377.998 145.34L381.618 141ZM391.406 141V142.62C390.466 141.52 389.066 140.84 387.506 140.84C384.646 140.84 382.346 143.14 382.346 146C382.346 148.84 384.646 151.16 387.506 151.16C389.066 151.16 390.466 150.46 391.406 149.38V151H392.726V141H391.406ZM387.526 149.9C385.386 149.9 383.666 148.18 383.666 146C383.666 143.82 385.386 142.1 387.526 142.1C389.686 142.1 391.366 143.82 391.366 146C391.366 148.18 389.686 149.9 387.526 149.9ZM403.828 136.12V142.62C402.888 141.52 401.488 140.84 399.928 140.84C397.068 140.84 394.768 143.14 394.768 146C394.768 148.84 397.068 151.16 399.928 151.16C401.488 151.16 402.888 150.46 403.828 149.38V151H405.148V136.12H403.828ZM399.948 149.9C397.788 149.9 396.088 148.18 396.088 146C396.088 143.82 397.788 142.1 399.948 142.1C402.108 142.1 403.788 143.82 403.788 146C403.788 148.18 402.108 149.9 399.948 149.9ZM412.448 151.16C415.288 151.16 417.608 148.84 417.608 146C417.608 143.14 415.288 140.84 412.448 140.84C409.588 140.84 407.288 143.14 407.288 146C407.288 148.84 409.588 151.16 412.448 151.16ZM412.468 149.9C410.328 149.9 408.628 148.18 408.628 146C408.628 143.82 410.328 142.08 412.468 142.08C414.628 142.08 416.308 143.82 416.308 146C416.308 148.18 414.628 149.9 412.468 149.9ZM425.184 148.76C425.184 148.88 424.464 149.94 423.424 149.94C422.524 149.94 421.544 149.24 421.544 147.94V142.2H424.564V140.98H421.544V137.66L420.224 137.82V140.98H418.624V142.2H420.224V148.24C420.224 150.24 421.624 151.16 423.184 151.16C424.864 151.14 425.844 149.78 425.844 149.78L425.184 148.76ZM427.01 151.96H428.09L429.27 148.78H427.91L427.01 151.96ZM325.408 161.56H323.828L317.448 169.42V161.56H316.128V175H317.448V171.36L319.568 168.74L323.768 175H325.268L320.388 167.74L325.408 161.56ZM335.006 165V170.86C335.006 172.56 333.706 173.92 332.026 173.92C330.366 173.92 329.066 172.58 329.066 170.86V165H327.706V170.9C327.706 173.28 329.486 175.16 331.806 175.16C333.086 175.16 334.266 174.52 335.006 173.52V175H336.326V165H335.006ZM342.593 175.16C345.173 175.16 346.273 173.9 346.273 172.34C346.273 169.12 339.853 169.62 339.853 167.64C339.853 166.6 340.873 166.04 342.273 166.04C343.973 166.04 345.193 167.26 345.193 167.26L346.133 166.44C346.133 166.44 344.733 164.84 342.293 164.84C339.733 164.84 338.613 166.1 338.613 167.66C338.613 170.88 345.033 170.36 345.033 172.36C345.033 173.4 344.033 173.96 342.613 173.96C340.933 173.96 339.713 172.74 339.713 172.74L338.773 173.54C338.773 173.54 340.173 175.16 342.593 175.16ZM356.758 165V166.62C355.818 165.52 354.418 164.84 352.858 164.84C349.998 164.84 347.698 167.14 347.698 170C347.698 172.84 349.998 175.16 352.858 175.16C354.418 175.16 355.818 174.46 356.758 173.38V175H358.078V165H356.758ZM352.878 173.9C350.738 173.9 349.018 172.18 349.018 170C349.018 167.82 350.738 166.1 352.878 166.1C355.038 166.1 356.718 167.82 356.718 170C356.718 172.18 355.038 173.9 352.878 173.9ZM372.596 164.84C370.916 164.84 369.556 165.7 368.876 166.98C368.176 165.7 366.856 164.84 365.296 164.84C364.016 164.84 362.836 165.48 362.096 166.48V165H360.776V175H362.096V169.14C362.096 167.42 363.416 166.06 365.076 166.06C366.736 166.06 368.056 167.42 368.056 169.14V175H369.396V169.14C369.396 167.42 370.696 166.06 372.376 166.06C374.056 166.06 375.336 167.42 375.336 169.14V175H376.696V169.1C376.696 166.72 374.936 164.84 372.596 164.84ZM387.637 165V166.62C386.697 165.52 385.297 164.84 383.737 164.84C380.877 164.84 378.577 167.14 378.577 170C378.577 172.84 380.877 175.16 383.737 175.16C385.297 175.16 386.697 174.46 387.637 173.38V175H388.957V165H387.637ZM383.757 173.9C381.617 173.9 379.897 172.18 379.897 170C379.897 167.82 381.617 166.1 383.757 166.1C385.917 166.1 387.597 167.82 387.597 170C387.597 172.18 385.917 173.9 383.757 173.9ZM391.013 175.96H392.093L393.273 172.78H391.913L391.013 175.96ZM405.534 173.84C403.854 173.86 402.374 172.7 401.914 171.12L410.654 169.54C410.654 169.46 410.654 169.38 410.634 169.28C410.334 166.74 408.154 164.76 405.534 164.74C402.674 164.76 400.374 167.04 400.374 169.92C400.374 170.4 400.434 170.9 400.574 171.36C401.234 173.54 403.314 175.06 405.534 175.06C408.234 175.08 409.974 173.1 410.494 171.7L409.374 171.3C408.914 172.56 407.414 173.84 405.534 173.84ZM405.414 165.96C407.134 165.94 408.654 167.1 409.154 168.7L401.714 170.04C401.714 169.84 401.694 169.7 401.694 169.58C401.794 167.6 403.414 166 405.414 165.96ZM418.191 172.76C418.191 172.88 417.471 173.94 416.431 173.94C415.531 173.94 414.551 173.24 414.551 171.94V166.2H417.571V164.98H414.551V161.66L413.231 161.82V164.98H411.631V166.2H413.231V172.24C413.231 174.24 414.631 175.16 416.191 175.16C417.871 175.14 418.851 173.78 418.851 173.78L418.191 172.76ZM424.674 175.16C426.514 175.16 428.154 174.18 429.054 172.7L427.854 172.12C427.154 173.2 425.974 173.9 424.674 173.9C422.514 173.9 420.834 172.18 420.834 170C420.834 167.82 422.514 166.1 424.674 166.1C425.974 166.1 427.154 166.8 427.854 167.88L429.054 167.3C428.154 165.82 426.514 164.84 424.674 164.84C421.814 164.84 419.514 167.14 419.514 170C419.514 172.84 421.814 175.16 424.674 175.16Z" fill="white"/>
<path d="M289.808 79H291.128V73.92H294.368C297.468 73.92 299.308 72.04 299.308 69.74C299.308 67.42 297.468 65.56 294.368 65.56H289.808V79ZM291.128 72.66V66.82H294.368C296.588 66.82 297.948 68.12 297.948 69.74C297.948 71.38 296.588 72.66 294.368 72.66H291.128ZM305.444 79.16C308.284 79.16 310.604 76.84 310.604 74C310.604 71.14 308.284 68.84 305.444 68.84C302.584 68.84 300.284 71.14 300.284 74C300.284 76.84 302.584 79.16 305.444 79.16ZM305.464 77.9C303.324 77.9 301.624 76.18 301.624 74C301.624 71.82 303.324 70.08 305.464 70.08C307.624 70.08 309.304 71.82 309.304 74C309.304 76.18 307.624 77.9 305.464 77.9ZM312.796 79H314.116V64.12H312.796V79ZM323.618 69H322.158L318.218 73.74V64.1H316.898V78.98H318.218V75.48L319.218 74.28L322.218 79H323.618L319.998 73.34L323.618 69ZM333.406 69V70.62C332.466 69.52 331.066 68.84 329.506 68.84C326.646 68.84 324.346 71.14 324.346 74C324.346 76.84 326.646 79.16 329.506 79.16C331.066 79.16 332.466 78.46 333.406 77.38V79H334.726V69H333.406ZM329.526 77.9C327.386 77.9 325.666 76.18 325.666 74C325.666 71.82 327.386 70.1 329.526 70.1C331.686 70.1 333.366 71.82 333.366 74C333.366 76.18 331.686 77.9 329.526 77.9ZM345.828 64.12V70.62C344.888 69.52 343.488 68.84 341.928 68.84C339.068 68.84 336.768 71.14 336.768 74C336.768 76.84 339.068 79.16 341.928 79.16C343.488 79.16 344.888 78.46 345.828 77.38V79H347.148V64.12H345.828ZM341.948 77.9C339.788 77.9 338.088 76.18 338.088 74C338.088 71.82 339.788 70.1 341.948 70.1C344.108 70.1 345.788 71.82 345.788 74C345.788 76.18 344.108 77.9 341.948 77.9ZM354.448 79.16C357.288 79.16 359.608 76.84 359.608 74C359.608 71.14 357.288 68.84 354.448 68.84C351.588 68.84 349.288 71.14 349.288 74C349.288 76.84 351.588 79.16 354.448 79.16ZM354.468 77.9C352.328 77.9 350.628 76.18 350.628 74C350.628 71.82 352.328 70.08 354.468 70.08C356.628 70.08 358.308 71.82 358.308 74C358.308 76.18 356.628 77.9 354.468 77.9ZM367.184 76.76C367.184 76.88 366.464 77.94 365.424 77.94C364.524 77.94 363.544 77.24 363.544 75.94V70.2H366.564V68.98H363.544V65.66L362.224 65.82V68.98H360.624V70.2H362.224V76.24C362.224 78.24 363.624 79.16 365.184 79.16C366.864 79.14 367.844 77.78 367.844 77.78L367.184 76.76ZM369.01 79.96H370.09L371.27 76.78H369.91L369.01 79.96ZM267.408 89.56H265.828L259.448 97.42V89.56H258.128V103H259.448V99.36L261.568 96.74L265.768 103H267.268L262.388 95.74L267.408 89.56ZM277.006 93V98.86C277.006 100.56 275.706 101.92 274.026 101.92C272.366 101.92 271.066 100.58 271.066 98.86V93H269.706V98.9C269.706 101.28 271.486 103.16 273.806 103.16C275.086 103.16 276.266 102.52 277.006 101.52V103H278.326V93H277.006ZM284.593 103.16C287.173 103.16 288.273 101.9 288.273 100.34C288.273 97.12 281.853 97.62 281.853 95.64C281.853 94.6 282.873 94.04 284.273 94.04C285.973 94.04 287.193 95.26 287.193 95.26L288.133 94.44C288.133 94.44 286.733 92.84 284.293 92.84C281.733 92.84 280.613 94.1 280.613 95.66C280.613 98.88 287.033 98.36 287.033 100.36C287.033 101.4 286.033 101.96 284.613 101.96C282.933 101.96 281.713 100.74 281.713 100.74L280.773 101.54C280.773 101.54 282.173 103.16 284.593 103.16ZM298.758 93V94.62C297.818 93.52 296.418 92.84 294.858 92.84C291.998 92.84 289.698 95.14 289.698 98C289.698 100.84 291.998 103.16 294.858 103.16C296.418 103.16 297.818 102.46 298.758 101.38V103H300.078V93H298.758ZM294.878 101.9C292.738 101.9 291.018 100.18 291.018 98C291.018 95.82 292.738 94.1 294.878 94.1C297.038 94.1 298.718 95.82 298.718 98C298.718 100.18 297.038 101.9 294.878 101.9ZM314.596 92.84C312.916 92.84 311.556 93.7 310.876 94.98C310.176 93.7 308.856 92.84 307.296 92.84C306.016 92.84 304.836 93.48 304.096 94.48V93H302.776V103H304.096V97.14C304.096 95.42 305.416 94.06 307.076 94.06C308.736 94.06 310.056 95.42 310.056 97.14V103H311.396V97.14C311.396 95.42 312.696 94.06 314.376 94.06C316.056 94.06 317.336 95.42 317.336 97.14V103H318.696V97.1C318.696 94.72 316.936 92.84 314.596 92.84ZM329.637 93V94.62C328.697 93.52 327.297 92.84 325.737 92.84C322.877 92.84 320.577 95.14 320.577 98C320.577 100.84 322.877 103.16 325.737 103.16C327.297 103.16 328.697 102.46 329.637 101.38V103H330.957V93H329.637ZM325.757 101.9C323.617 101.9 321.897 100.18 321.897 98C321.897 95.82 323.617 94.1 325.757 94.1C327.917 94.1 329.597 95.82 329.597 98C329.597 100.18 327.917 101.9 325.757 101.9ZM333.013 103.96H334.093L335.273 100.78H333.913L333.013 103.96ZM347.534 101.84C345.854 101.86 344.374 100.7 343.914 99.12L352.654 97.54C352.654 97.46 352.654 97.38 352.634 97.28C352.334 94.74 350.154 92.76 347.534 92.74C344.674 92.76 342.374 95.04 342.374 97.92C342.374 98.4 342.434 98.9 342.574 99.36C343.234 101.54 345.314 103.06 347.534 103.06C350.234 103.08 351.974 101.1 352.494 99.7L351.374 99.3C350.914 100.56 349.414 101.84 347.534 101.84ZM347.414 93.96C349.134 93.94 350.654 95.1 351.154 96.7L343.714 98.04C343.714 97.84 343.694 97.7 343.694 97.58C343.794 95.6 345.414 94 347.414 93.96ZM360.191 100.76C360.191 100.88 359.471 101.94 358.431 101.94C357.531 101.94 356.551 101.24 356.551 99.94V94.2H359.571V92.98H356.551V89.66L355.231 89.82V92.98H353.631V94.2H355.231V100.24C355.231 102.24 356.631 103.16 358.191 103.16C359.871 103.14 360.851 101.78 360.851 101.78L360.191 100.76ZM366.674 103.16C368.514 103.16 370.154 102.18 371.054 100.7L369.854 100.12C369.154 101.2 367.974 101.9 366.674 101.9C364.514 101.9 362.834 100.18 362.834 98C362.834 95.82 364.514 94.1 366.674 94.1C367.974 94.1 369.154 94.8 369.854 95.88L371.054 95.3C370.154 93.82 368.514 92.84 366.674 92.84C363.814 92.84 361.514 95.14 361.514 98C361.514 100.84 363.814 103.16 366.674 103.16Z" fill="white"/>
<path d="M7.4 719.16C11.46 719.16 13.84 716.08 13.84 712.3C13.84 708.5 11.46 705.42 7.4 705.42C3.34 705.42 0.94 708.5 0.94 712.3C0.94 716.08 3.34 719.16 7.4 719.16ZM7.4 717.92C4.3 717.92 2.36 715.44 2.36 712.3C2.36 709.14 4.3 706.68 7.4 706.68C10.5 706.68 12.46 709.14 12.46 712.3C12.46 715.44 10.5 717.92 7.4 717.92ZM19.6047 719.16C22.1847 719.16 23.2847 717.9 23.2847 716.34C23.2847 713.12 16.8647 713.62 16.8647 711.64C16.8647 710.6 17.8847 710.04 19.2847 710.04C20.9847 710.04 22.2047 711.26 22.2047 711.26L23.1447 710.44C23.1447 710.44 21.7447 708.84 19.3047 708.84C16.7447 708.84 15.6247 710.1 15.6247 711.66C15.6247 714.88 22.0447 714.36 22.0447 716.36C22.0447 717.4 21.0447 717.96 19.6247 717.96C17.9447 717.96 16.7247 716.74 16.7247 716.74L15.7847 717.54C15.7847 717.54 17.1847 719.16 19.6047 719.16ZM37.3816 708.84C35.7016 708.84 34.3416 709.7 33.6616 710.98C32.9616 709.7 31.6416 708.84 30.0816 708.84C28.8016 708.84 27.6216 709.48 26.8816 710.48V709H25.5616V719H26.8816V713.14C26.8816 711.42 28.2016 710.06 29.8616 710.06C31.5216 710.06 32.8416 711.42 32.8416 713.14V719H34.1816V713.14C34.1816 711.42 35.4816 710.06 37.1616 710.06C38.8416 710.06 40.1216 711.42 40.1216 713.14V719H41.4816V713.1C41.4816 710.72 39.7216 708.84 37.3816 708.84ZM48.5219 719.16C51.3619 719.16 53.6819 716.84 53.6819 714C53.6819 711.14 51.3619 708.84 48.5219 708.84C45.6619 708.84 43.3619 711.14 43.3619 714C43.3619 716.84 45.6619 719.16 48.5219 719.16ZM48.5419 717.9C46.4019 717.9 44.7019 716.18 44.7019 714C44.7019 711.82 46.4019 710.08 48.5419 710.08C50.7019 710.08 52.3819 711.82 52.3819 714C52.3819 716.18 50.7019 717.9 48.5419 717.9ZM59.2336 719.16C61.8136 719.16 62.9136 717.9 62.9136 716.34C62.9136 713.12 56.4936 713.62 56.4936 711.64C56.4936 710.6 57.5136 710.04 58.9136 710.04C60.6136 710.04 61.8336 711.26 61.8336 711.26L62.7736 710.44C62.7736 710.44 61.3736 708.84 58.9336 708.84C56.3736 708.84 55.2536 710.1 55.2536 711.66C55.2536 714.88 61.6736 714.36 61.6736 716.36C61.6736 717.4 60.6736 717.96 59.2536 717.96C57.5736 717.96 56.3536 716.74 56.3536 716.74L55.4136 717.54C55.4136 717.54 56.8136 719.16 59.2336 719.16ZM65.9905 706.24C66.4305 706.24 66.7905 705.88 66.7905 705.44C66.7905 705 66.4305 704.64 65.9905 704.64C65.5505 704.64 65.1905 705 65.1905 705.44C65.1905 705.88 65.5505 706.24 65.9905 706.24ZM65.3305 719H66.6505V709H65.3305V719ZM72.9836 719.16C75.5636 719.16 76.6636 717.9 76.6636 716.34C76.6636 713.12 70.2436 713.62 70.2436 711.64C70.2436 710.6 71.2636 710.04 72.6636 710.04C74.3636 710.04 75.5836 711.26 75.5836 711.26L76.5236 710.44C76.5236 710.44 75.1236 708.84 72.6836 708.84C70.1236 708.84 69.0036 710.1 69.0036 711.66C69.0036 714.88 75.4236 714.36 75.4236 716.36C75.4236 717.4 74.4236 717.96 73.0036 717.96C71.3236 717.96 70.1036 716.74 70.1036 716.74L69.1636 717.54C69.1636 717.54 70.5636 719.16 72.9836 719.16Z" fill="white"/>
<path d="M224.639 6.88V5.56H215.819V19H224.639V17.68H217.139V12.82H221.359V11.5H217.139V6.88H224.639ZM233.098 16.76C233.098 16.88 232.378 17.94 231.338 17.94C230.438 17.94 229.458 17.24 229.458 15.94V10.2H232.478V8.98H229.458V5.66L228.138 5.82V8.98H226.538V10.2H228.138V16.24C228.138 18.24 229.538 19.16 231.098 19.16C232.778 19.14 233.758 17.78 233.758 17.78L233.098 16.76ZM239.871 8.84C238.591 8.84 237.411 9.48 236.671 10.48V4.12H235.351V19H236.671V13.14C236.671 11.42 237.991 10.08 239.651 10.08C241.331 10.08 242.631 11.44 242.631 13.16V19H243.971V13.14C243.971 10.76 242.191 8.84 239.871 8.84ZM251.026 17.84C249.346 17.86 247.866 16.7 247.406 15.12L256.146 13.54C256.146 13.46 256.146 13.38 256.126 13.28C255.826 10.74 253.646 8.76 251.026 8.74C248.166 8.76 245.866 11.04 245.866 13.92C245.866 14.4 245.926 14.9 246.066 15.36C246.726 17.54 248.806 19.06 251.026 19.06C253.726 19.08 255.466 17.1 255.986 15.7L254.866 15.3C254.406 16.56 252.906 17.84 251.026 17.84ZM250.906 9.96C252.626 9.94 254.146 11.1 254.646 12.7L247.206 14.04C247.206 13.84 247.186 13.7 247.186 13.58C247.286 11.6 248.906 10 250.906 9.96ZM262.546 8.84C261.266 8.84 260.086 9.48 259.346 10.48V9H258.026V19H259.346V13.14C259.346 11.42 260.646 10.06 262.326 10.06C262.906 10.06 263.506 10.3 264.026 10.68L264.486 9.36C263.906 9.02 263.246 8.84 262.546 8.84ZM270.03 17.84C268.35 17.86 266.87 16.7 266.41 15.12L275.15 13.54C275.15 13.46 275.15 13.38 275.13 13.28C274.83 10.74 272.65 8.76 270.03 8.74C267.17 8.76 264.87 11.04 264.87 13.92C264.87 14.4 264.93 14.9 265.07 15.36C265.73 17.54 267.81 19.06 270.03 19.06C272.73 19.08 274.47 17.1 274.99 15.7L273.87 15.3C273.41 16.56 271.91 17.84 270.03 17.84ZM269.91 9.96C271.63 9.94 273.15 11.1 273.65 12.7L266.21 14.04C266.21 13.84 266.19 13.7 266.19 13.58C266.29 11.6 267.91 10 269.91 9.96ZM284.717 9V14.86C284.717 16.56 283.417 17.92 281.737 17.92C280.077 17.92 278.777 16.58 278.777 14.86V9H277.417V14.9C277.417 17.28 279.197 19.16 281.517 19.16C282.797 19.16 283.977 18.52 284.717 17.52V19H286.037V9H284.717ZM300.608 8.84C298.928 8.84 297.568 9.7 296.888 10.98C296.188 9.7 294.868 8.84 293.308 8.84C292.028 8.84 290.848 9.48 290.108 10.48V9H288.788V19H290.108V13.14C290.108 11.42 291.428 10.06 293.088 10.06C294.748 10.06 296.068 11.42 296.068 13.14V19H297.408V13.14C297.408 11.42 298.708 10.06 300.388 10.06C302.068 10.06 303.348 11.42 303.348 13.14V19H304.708V13.1C304.708 10.72 302.948 8.84 300.608 8.84Z" fill="white"/>
<circle cx="280" cy="461" r="280" fill="#8547FF" fill-opacity="0.2"/>
<circle cx="280" cy="461" r="279" stroke="#8547FF" stroke-opacity="0.5" stroke-width="2"/>
<g filter="url(#filter0_d_203_370)">
<ellipse cx="280" cy="459" rx="210" ry="209" fill="#8547FF" fill-opacity="0.2" shape-rendering="crispEdges"/>
<path d="M489 459C489 573.871 395.432 667 280 667C164.568 667 71 573.871 71 459C71 344.129 164.568 251 280 251C395.432 251 489 344.129 489 459Z" stroke="#8547FF" stroke-opacity="0.5" stroke-width="2" shape-rendering="crispEdges"/>
</g>
<g filter="url(#filter1_d_203_370)">
<ellipse cx="280" cy="459" rx="141" ry="139" fill="#8547FF" fill-opacity="0.3" shape-rendering="crispEdges"/>
<path d="M420 459C420 535.202 357.333 597 280 597C202.667 597 140 535.202 140 459C140 382.798 202.667 321 280 321C357.333 321 420 382.798 420 459Z" stroke="#8547FF" stroke-opacity="0.5" stroke-width="2" shape-rendering="crispEdges"/>
</g>
<g filter="url(#filter2_d_203_370)">
<ellipse cx="280" cy="459" rx="71" ry="70" fill="#8547FF" fill-opacity="0.4" shape-rendering="crispEdges"/>
<path d="M350 459C350 497.094 318.673 528 280 528C241.327 528 210 497.094 210 459C210 420.906 241.327 390 280 390C318.673 390 350 420.906 350 459Z" stroke="#8547FF" stroke-opacity="0.5" stroke-width="2" shape-rendering="crispEdges"/>
</g>
<path d="M198 12C198 11.4477 197.552 11 197 11C196.448 11 196 11.4477 196 12L198 12ZM197 223.773L202.774 218L197 212.226L191.227 218L197 223.773ZM196 12L196 218L198 218L198 12L196 12Z" fill="#E20088" fill-opacity="0.64"/>
<path d="M366 921C366 921.552 366.448 922 367 922C367.552 922 368 921.552 368 921L366 921ZM367 709.227L361.227 715L367 720.774L372.774 715L367 709.227ZM368 921L368 715L366 715L366 921L368 921Z" fill="#E20088" fill-opacity="0.64"/>
<path d="M247 73C247 72.4477 246.552 72 246 72C245.448 72 245 72.4477 245 73L247 73ZM246 305.774L251.774 300L246 294.227L240.227 300L246 305.774ZM245 73L245 300L247 300L247 73L245 73Z" fill="#E20088" fill-opacity="0.64"/>
<path d="M317 860C317 860.552 317.448 861 318 861C318.552 861 319 860.552 319 860L317 860ZM318 627.226L312.227 633L318 638.773L323.774 633L318 627.226ZM319 860L319 633L317 633L317 860L319 860Z" fill="#E20088" fill-opacity="0.64"/>
<path d="M287 151C287 150.448 286.552 150 286 150C285.448 150 285 150.448 285 151L287 151ZM286 362.773L291.774 357L286 351.226L280.227 357L286 362.773ZM285 151L285 357L287 357L287 151L285 151Z" fill="#E20088" fill-opacity="0.64"/>
<path d="M277 782C277 782.552 277.448 783 278 783C278.552 783 279 782.552 279 782L277 782ZM278 570.227L272.227 576L278 581.774L283.774 576L278 570.227ZM279 782L279 576L277 576L277 782L279 782Z" fill="#E20088" fill-opacity="0.64"/>
<path d="M326 218C326 217.448 325.552 217 325 217C324.448 217 324 217.448 324 218L326 218ZM325 477.773L330.774 472L325 466.227L319.227 472L325 477.773ZM324 218L324 472L326 472L326 218L324 218Z" fill="#E20088" fill-opacity="0.64"/>
<path d="M238 715C238 715.552 238.448 716 239 716C239.552 716 240 715.552 240 715L238 715ZM239 455.227L233.227 461L239 466.773L244.774 461L239 455.227ZM240 715L240 461L238 461L238 715L240 715Z" fill="#E20088" fill-opacity="0.64"/>
<path d="M196 12H211" stroke="#960462" stroke-width="2"/>
<path d="M368 921L353 921" stroke="#960462" stroke-width="2"/>
<path d="M245 73H260" stroke="#960462" stroke-width="2"/>
<path d="M319 860L304 860" stroke="#960462" stroke-width="2"/>
<path d="M285 151H301" stroke="#960462" stroke-width="2"/>
<path d="M279 782L263 782" stroke="#960462" stroke-width="2"/>
<path d="M324 218H479" stroke="#960462" stroke-width="2"/>
<path d="M240 715L85 715" stroke="#960462" stroke-width="2"/>
<defs>
<filter id="filter0_d_203_370" x="20" y="220" width="520" height="518" filterUnits="userSpaceOnUse" color-interpolation-filters="sRGB">
<feFlood flood-opacity="0" result="BackgroundImageFix"/>
<feColorMatrix in="SourceAlpha" type="matrix" values="0 0 0 0 0 0 0 0 0 0 0 0 0 0 0 0 0 0 127 0" result="hardAlpha"/>
<feOffset dy="20"/>
<feGaussianBlur stdDeviation="25"/>
<feComposite in2="hardAlpha" operator="out"/>
<feColorMatrix type="matrix" values="0 0 0 0 0 0 0 0 0 0 0 0 0 0 0 0 0 0 0.5 0"/>
<feBlend mode="normal" in2="BackgroundImageFix" result="effect1_dropShadow_203_370"/>
<feBlend mode="normal" in="SourceGraphic" in2="effect1_dropShadow_203_370" result="shape"/>
</filter>
<filter id="filter1_d_203_370" x="89" y="290" width="382" height="378" filterUnits="userSpaceOnUse" color-interpolation-filters="sRGB">
<feFlood flood-opacity="0" result="BackgroundImageFix"/>
<feColorMatrix in="SourceAlpha" type="matrix" values="0 0 0 0 0 0 0 0 0 0 0 0 0 0 0 0 0 0 127 0" result="hardAlpha"/>
<feOffset dy="20"/>
<feGaussianBlur stdDeviation="25"/>
<feComposite in2="hardAlpha" operator="out"/>
<feColorMatrix type="matrix" values="0 0 0 0 0 0 0 0 0 0 0 0 0 0 0 0 0 0 0.3 0"/>
<feBlend mode="normal" in2="BackgroundImageFix" result="effect1_dropShadow_203_370"/>
<feBlend mode="normal" in="SourceGraphic" in2="effect1_dropShadow_203_370" result="shape"/>
</filter>
<filter id="filter2_d_203_370" x="159" y="359" width="242" height="240" filterUnits="userSpaceOnUse" color-interpolation-filters="sRGB">
<feFlood flood-opacity="0" result="BackgroundImageFix"/>
<feColorMatrix in="SourceAlpha" type="matrix" values="0 0 0 0 0 0 0 0 0 0 0 0 0 0 0 0 0 0 127 0" result="hardAlpha"/>
<feOffset dy="20"/>
<feGaussianBlur stdDeviation="25"/>
<feComposite in2="hardAlpha" operator="out"/>
<feColorMatrix type="matrix" values="0 0 0 0 0 0 0 0 0 0 0 0 0 0 0 0 0 0 0.4 0"/>
<feBlend mode="normal" in2="BackgroundImageFix" result="effect1_dropShadow_203_370"/>
<feBlend mode="normal" in="SourceGraphic" in2="effect1_dropShadow_203_370" result="shape"/>
</filter>
</defs>
</svg>
