<svg xmlns="http://www.w3.org/2000/svg" xmlns:xlink="http://www.w3.org/1999/xlink" width="911.206" height="846.81" viewBox="0 0 911.206 846.81">
  <defs>
    <clipPath id="clip-path">
      <rect id="Rectangle_89" data-name="Rectangle 89" width="102.599" height="102.599" transform="translate(165 285)" fill="#fff"/>
    </clipPath>
  </defs>
  <g id="Group_25" data-name="Group 25" transform="translate(-5495.717 -3018)">
    <g id="how" transform="translate(5395.282 3008.244)">
      <path id="Path_2" data-name="Path 2" d="M854,68h1.282V66.717H854ZM217,68V66.717h-1.282V68Zm-.907,207.284a1.283,1.283,0,0,0,1.814,0l8.162-8.162a1.282,1.282,0,1,0-1.814-1.813L217,272.563l-7.255-7.254a1.282,1.282,0,1,0-1.814,1.813Zm0,432.623a1.282,1.282,0,0,0,1.814,0l8.162-8.162a1.283,1.283,0,1,0-1.814-1.814L217,705.186l-7.255-7.255a1.283,1.283,0,1,0-1.814,1.814Zm639.189-593.12V68h-2.564v46.787ZM854,66.717H217v2.565H854ZM215.718,68V274.377h2.564V68Zm2.564,639V406.407h-2.564V707Z" fill="rgba(226,0,136,0.64)"/>
      <path id="Path_3" data-name="Path 3" d="M446.16,27h3.509c5.24,0,8.357-3.486,8.357-7.757,0-4.294-3.117-7.756-8.357-7.756H446.16Zm1.524-1.454v-12.6h1.985c4.155,0,6.7,2.77,6.7,6.3s-2.54,6.3-6.7,6.3Zm13.963-13.274a.923.923,0,1,0-.923-.923A.926.926,0,0,0,461.647,12.272ZM460.885,27h1.524V15.458h-1.524Zm8.834.185c2.978,0,4.247-1.454,4.247-3.255,0-3.717-7.41-3.14-7.41-5.425,0-1.2,1.177-1.847,2.793-1.847a5.253,5.253,0,0,1,3.371,1.408l1.085-.947a6.206,6.206,0,0,0-4.433-1.847c-2.954,0-4.247,1.454-4.247,3.255,0,3.717,7.41,3.116,7.41,5.425,0,1.2-1.154,1.847-2.793,1.847a5.233,5.233,0,0,1-3.347-1.408l-1.085.923A6.152,6.152,0,0,0,469.719,27.185Zm11.848,0a5.922,5.922,0,0,0,5.055-2.84l-1.385-.669a4.5,4.5,0,1,1,0-4.894l1.385-.669a5.949,5.949,0,1,0-5.055,9.072Zm12.647,0a5.956,5.956,0,1,0-5.956-5.956A5.971,5.971,0,0,0,494.214,27.185Zm.023-1.454a4.514,4.514,0,1,1,4.432-4.5A4.434,4.434,0,0,1,494.237,25.73Zm16.524-10.273v6.764a3.43,3.43,0,1,1-6.856,0V15.458h-1.57v6.81a4.767,4.767,0,0,0,4.732,4.917,4.624,4.624,0,0,0,3.694-1.893V27h1.524V15.458Zm9.916-.185a4.627,4.627,0,0,0-3.694,1.893V15.458H515.46V27h1.523V20.236a3.442,3.442,0,1,1,6.88,0V27h1.546V20.19A4.767,4.767,0,0,0,520.677,15.273Zm14.005,9.142a2.513,2.513,0,0,1-2.032,1.362,2.2,2.2,0,0,1-2.17-2.309V16.843h3.486V15.434H530.48V11.6l-1.523.185v3.647H527.11v1.408h1.847v6.972a3.18,3.18,0,0,0,3.416,3.37,4.144,4.144,0,0,0,3.071-1.593Zm7.482,1.247a4.356,4.356,0,0,1-4.178-3.14L548.074,20.7a1.429,1.429,0,0,0-.023-.3,5.942,5.942,0,0,0-11.842.739,5.8,5.8,0,0,0,.23,1.662,6.077,6.077,0,0,0,5.725,4.271,6.2,6.2,0,0,0,5.726-3.878l-1.293-.462A4.821,4.821,0,0,1,542.164,25.661Zm-.138-9.1a4.517,4.517,0,0,1,4.317,3.163l-8.588,1.547c0-.231-.023-.392-.023-.531A4.405,4.405,0,0,1,542.026,16.566Zm18.437-6.741v7.5a5.957,5.957,0,0,0-10.458,3.9,5.957,5.957,0,0,0,10.458,3.9V27h1.523V9.825ZM555.984,25.73a4.5,4.5,0,1,1,4.433-4.5A4.439,4.439,0,0,1,555.984,25.73Zm16.51-10.019c0-1.339,1.131-2.193,3-2.193a5.522,5.522,0,0,1,3.67,1.685l.97-.946A7.375,7.375,0,0,0,576.28,12.2V9.756h-1.362v2.4c-2.494.208-3.786,1.824-3.786,3.555,0,4.317,7.571,3.809,7.571,7.064,0,1.339-1.131,2.239-2.978,2.239a5.5,5.5,0,0,1-3.67-1.708l-.993.923a7.443,7.443,0,0,0,3.856,2.078v2.447h1.362v-2.4c2.493-.208,3.785-1.824,3.785-3.578C580.065,18.459,572.494,18.99,572.494,15.712ZM596.3,27.3l1.016-1.108-1.893-1.639a8.3,8.3,0,0,0,1.754-5.309c0-4.363-2.793-7.918-7.479-7.918s-7.48,3.555-7.48,7.918c0,4.386,2.794,7.941,7.48,7.941a7.037,7.037,0,0,0,4.64-1.57Zm-6.6-1.57c-3.6,0-5.794-2.816-5.794-6.487,0-3.624,2.193-6.464,5.794-6.464s5.794,2.839,5.794,6.464a6.679,6.679,0,0,1-1.339,4.2l-1.847-1.639-1.015,1.131,1.8,1.547A5.167,5.167,0,0,1,589.7,25.73Zm15.029,1.454c3.186,0,4.825-1.893,4.825-3.994,0-4.8-8.426-4.2-8.426-7.872,0-1.57,1.247-2.539,3.324-2.539a6.29,6.29,0,0,1,4.109,1.939l1.062-1.039a7.971,7.971,0,0,0-5.171-2.355c-3.186,0-4.825,1.893-4.825,3.994,0,4.8,8.426,4.224,8.426,7.872,0,1.57-1.246,2.539-3.324,2.539a6.211,6.211,0,0,1-4.109-1.939l-1.062,1.039A7.977,7.977,0,0,0,604.729,27.185ZM612.466,27h1.523V21.136h3.6l.946-.046,3.3,5.91h1.593l-3.463-6.233a4.6,4.6,0,0,0,3.463-4.455c0-2.678-2.124-4.825-5.7-4.825h-5.263Zm1.523-7.318V12.941h3.74c2.562,0,4.132,1.5,4.132,3.37,0,1.893-1.57,3.37-4.132,3.37Z" fill="rgba(255,255,255,0.7)"/>
      <g id="Group_19" data-name="Group 19">
        <rect id="Rectangle_85" data-name="Rectangle 85" width="226" height="126" rx="20.52" transform="translate(766 131)" fill="rgba(133,71,255,0.2)"/>
        <path id="Path_4" data-name="Path 4" d="M853.579,184.163l1.512-1.632-1.776-1.56a8.737,8.737,0,0,0,1.656-5.256c0-4.56-2.928-8.232-7.848-8.232-4.944,0-7.872,3.672-7.872,8.232s2.928,8.232,7.872,8.232a7.449,7.449,0,0,0,4.584-1.416Zm-6.456-2.352c-3.336,0-5.4-2.592-5.4-6.1,0-3.48,2.064-6.072,5.4-6.072,3.288,0,5.352,2.592,5.352,6.072a6.14,6.14,0,0,1-1.032,3.552l-1.728-1.536-1.512,1.656,1.632,1.416A4.456,4.456,0,0,1,847.123,181.811Zm18.585-10.032V178.6s-1.32,3.264-3.072,3.264a3.089,3.089,0,0,1-3.072-3.24v-6.84h-2.328v6.912a5,5,0,0,0,4.944,5.28,4.647,4.647,0,0,0,3.528-1.68v1.488h2.28v-12Zm14.8,0v1.32a6.192,6.192,0,1,0,0,9.36v1.32h2.28v-12ZM876.5,181.811a4.034,4.034,0,1,1,3.912-4.032A3.9,3.9,0,0,1,876.5,181.811Zm13.632,2.16c3.12,0,4.632-1.512,4.632-3.5,0-3.912-7.464-3.528-7.464-5.376,0-.96,1.008-1.488,2.448-1.488a5.441,5.441,0,0,1,3.48,1.464l1.512-1.344a6.843,6.843,0,0,0-4.968-2.136c-3.1,0-4.608,1.512-4.608,3.5,0,3.912,7.464,3.528,7.464,5.376,0,.96-1.008,1.488-2.448,1.488a5.441,5.441,0,0,1-3.48-1.464l-1.512,1.32A6.8,6.8,0,0,0,890.131,183.971ZM906.5,171.779v1.32a6.192,6.192,0,1,0,0,9.36v1.32h2.28v-12Zm-4.008,10.032a4.034,4.034,0,1,1,3.912-4.032A3.9,3.9,0,0,1,902.491,181.811Zm15-10.224a4.735,4.735,0,0,0-3.552,1.68v-1.488h-2.28v12h2.28v-6.816a3.1,3.1,0,0,1,3.072-3.264,3.187,3.187,0,0,1,1.8.72l.7-2.328A4.12,4.12,0,0,0,917.493,171.587Zm-73.2,34.088H831.529v2.28h5.232v13.824h2.28V207.955H844.3Zm5.708,3.912a4.735,4.735,0,0,0-3.552,1.68v-1.488h-2.28v12h2.28v-6.816a3.1,3.1,0,0,1,3.072-3.264,3.187,3.187,0,0,1,1.8.72l.7-2.328A4.12,4.12,0,0,0,850.005,209.587Zm14.672,5.544a6.178,6.178,0,0,0-12.336.528,6.034,6.034,0,0,0,.312,1.968,6.373,6.373,0,0,0,5.88,4.224,6.692,6.692,0,0,0,6.072-4.008l-1.944-.648a4.57,4.57,0,0,1-4.128,2.568,3.8,3.8,0,0,1-3.576-2.544l9.72-1.752A1.555,1.555,0,0,0,864.677,215.131Zm-10.032.288a4,4,0,0,0,.024-.456,3.814,3.814,0,0,1,3.6-3.456,4,4,0,0,1,3.816,2.592Zm22.077-5.64v1.32a6.192,6.192,0,1,0,0,9.36v1.32H879v-12Zm-4.008,10.032a4.034,4.034,0,1,1,3.912-4.032A3.9,3.9,0,0,1,872.714,219.811Zm13.632,2.16c3.12,0,4.632-1.512,4.632-3.5,0-3.912-7.464-3.528-7.464-5.376,0-.96,1.008-1.488,2.448-1.488a5.441,5.441,0,0,1,3.48,1.464l1.512-1.344a6.843,6.843,0,0,0-4.968-2.136c-3.1,0-4.608,1.512-4.608,3.5,0,3.912,7.464,3.528,7.464,5.376,0,.96-1.008,1.488-2.448,1.488a5.441,5.441,0,0,1-3.48-1.464l-1.512,1.32A6.8,6.8,0,0,0,886.346,221.971Zm15.467-12.192V216.6a3.077,3.077,0,1,1-6.144.024v-6.84h-2.328v6.912a5,5,0,0,0,4.944,5.28,4.647,4.647,0,0,0,3.528-1.68v1.488h2.28v-12Zm11.051-.192a4.735,4.735,0,0,0-3.552,1.68v-1.488h-2.28v12h2.28v-6.816a3.1,3.1,0,0,1,3.072-3.264,3.187,3.187,0,0,1,1.8.72l.7-2.328A4.12,4.12,0,0,0,912.864,209.587Zm11.711.192-2.928,7.752-3.168-7.752H916.2l4.344,10.632-2.352,6.216h2.28l6.384-16.848Z" fill="#fff"/>
        <rect id="Rectangle_86" data-name="Rectangle 86" width="228.565" height="128.565" rx="21.802" transform="translate(764.718 129.718)" fill="none" stroke="rgba(133,71,255,0.86)" stroke-width="2.565"/>
      </g>
      <g id="Group_20" data-name="Group 20">
        <rect id="Rectangle_87" data-name="Rectangle 87" width="226" height="126" rx="20.52" transform="translate(103 728)" fill="rgba(133,71,255,0.2)"/>
        <path id="Path_5" data-name="Path 5" d="M155.423,800.163l1.512-1.632-1.776-1.56a8.737,8.737,0,0,0,1.656-5.256c0-4.56-2.928-8.232-7.848-8.232-4.944,0-7.872,3.672-7.872,8.232s2.928,8.232,7.872,8.232a7.449,7.449,0,0,0,4.584-1.416Zm-6.456-2.352c-3.336,0-5.4-2.592-5.4-6.1,0-3.48,2.064-6.072,5.4-6.072,3.288,0,5.352,2.592,5.352,6.072a6.14,6.14,0,0,1-1.032,3.552l-1.728-1.536-1.512,1.656,1.632,1.416A4.455,4.455,0,0,1,148.967,797.811Zm18.585-10.032v6.816a3.077,3.077,0,1,1-6.144.024v-6.84H159.08v6.912a5,5,0,0,0,4.944,5.28,4.647,4.647,0,0,0,3.528-1.68v1.488h2.28v-12Zm14.8,0v1.32a6.192,6.192,0,1,0,0,9.36v1.32h2.28v-12Zm-4.008,10.032a4.034,4.034,0,1,1,3.912-4.032A3.9,3.9,0,0,1,178.342,797.811Zm13.633,2.16c3.12,0,4.632-1.512,4.632-3.5,0-3.912-7.464-3.528-7.464-5.376,0-.96,1.008-1.488,2.448-1.488a5.441,5.441,0,0,1,3.48,1.464l1.512-1.344a6.843,6.843,0,0,0-4.968-2.136c-3.1,0-4.608,1.512-4.608,3.5,0,3.912,7.464,3.528,7.464,5.376,0,.96-1.008,1.488-2.448,1.488a5.441,5.441,0,0,1-3.48-1.464l-1.512,1.32A6.8,6.8,0,0,0,191.975,799.971Zm16.368-12.192v1.32a6.192,6.192,0,1,0,0,9.36v1.32h2.28v-12Zm-4.008,10.032a4.034,4.034,0,1,1,3.912-4.032A3.9,3.9,0,0,1,204.335,797.811Zm15-10.224a4.735,4.735,0,0,0-3.552,1.68v-1.488h-2.28v12h2.28v-6.816a3.1,3.1,0,0,1,3.072-3.264,3.187,3.187,0,0,1,1.8.72l.7-2.328A4.12,4.12,0,0,0,219.337,787.587Zm17.193,12.384a7.387,7.387,0,0,0,6.72-3.792l-2.088-1.3a5.19,5.19,0,0,1-4.632,2.952c-3.312,0-5.376-2.616-5.376-6.1s2.064-6.1,5.376-6.1a5.222,5.222,0,0,1,4.632,2.928l2.088-1.3a7.387,7.387,0,0,0-6.72-3.792c-4.944,0-7.872,3.7-7.872,8.256C228.658,796.275,231.586,799.971,236.53,799.971Zm15.033-12.384a4.735,4.735,0,0,0-3.552,1.68V781.9h-2.28v17.88h2.28v-6.816a3.1,3.1,0,0,1,3.072-3.264,3.129,3.129,0,0,1,3.1,3.264v6.816h2.3v-6.888A5.021,5.021,0,0,0,251.563,787.587Zm17.225.192v1.32a6.192,6.192,0,1,0,0,9.36v1.32h2.28v-12Zm-4.008,10.032a4.034,4.034,0,1,1,3.912-4.032A3.9,3.9,0,0,1,264.78,797.811Zm10.654-12.792a1.3,1.3,0,1,0,0-2.592,1.3,1.3,0,1,0,0,2.592Zm-1.152,14.76h2.28v-12h-2.28Zm11.36-12.192a4.735,4.735,0,0,0-3.552,1.68v-1.488h-2.28v12h2.28v-6.816a3.077,3.077,0,1,1,6.144-.024v6.84h2.328v-6.912A5,5,0,0,0,285.642,787.587Z" fill="#fff"/>
        <rect id="Rectangle_88" data-name="Rectangle 88" width="228.565" height="128.565" rx="21.802" transform="translate(101.718 726.718)" fill="none" stroke="rgba(133,71,255,0.86)" stroke-width="2.565"/>
      </g>
      <g id="Group_21" data-name="Group 21" clip-path="url(#clip-path)">
        <path id="Path_6" data-name="Path 6" d="M236.82,310.65a20.52,20.52,0,1,1-20.52-20.52A20.52,20.52,0,0,1,236.82,310.65Zm5.13,0A25.65,25.65,0,1,1,216.3,285,25.65,25.65,0,0,1,241.95,310.65ZM165,387.6a51.3,51.3,0,0,1,102.6,0Z" fill="rgba(174,120,255,0.6)" fill-rule="evenodd"/>
      </g>
      <path id="Path_7" data-name="Path 7" d="M284.242,359h2.736c4.086,0,6.516-2.718,6.516-6.048,0-3.348-2.43-6.048-6.516-6.048h-2.736Zm1.188-1.134v-9.828h1.548c3.24,0,5.22,2.16,5.22,4.914s-1.98,4.914-5.22,4.914Zm13.9.09a3.4,3.4,0,0,1-3.258-2.448l7.866-1.422a1.109,1.109,0,0,0-.018-.234,4.633,4.633,0,0,0-9.234.576,4.507,4.507,0,0,0,.18,1.3,4.738,4.738,0,0,0,4.464,3.33,4.835,4.835,0,0,0,4.464-3.024l-1.008-.36A3.758,3.758,0,0,1,299.334,357.956Zm-.108-7.092a3.522,3.522,0,0,1,3.366,2.466l-6.7,1.206c0-.18-.018-.306-.018-.414A3.435,3.435,0,0,1,299.226,350.864Zm11.441-1.026a4.647,4.647,0,0,0-3.528,1.62v-1.476h-1.188v13.392h1.188v-5.886a4.64,4.64,0,1,0,3.528-7.65Zm-.036,8.154a3.519,3.519,0,1,1,3.474-3.51A3.458,3.458,0,0,1,310.631,357.992Zm10.641,1.152a4.644,4.644,0,1,0-4.644-4.644A4.655,4.655,0,0,0,321.272,359.144Zm.018-1.134a3.52,3.52,0,1,1,3.456-3.51A3.458,3.458,0,0,1,321.29,358.01Zm9.622,1.134c2.322,0,3.312-1.134,3.312-2.538,0-2.9-5.778-2.448-5.778-4.23,0-.936.918-1.44,2.178-1.44a4.1,4.1,0,0,1,2.628,1.1l.846-.738a4.838,4.838,0,0,0-3.456-1.44c-2.3,0-3.312,1.134-3.312,2.538,0,2.9,5.778,2.43,5.778,4.23,0,.936-.9,1.44-2.178,1.44a4.081,4.081,0,0,1-2.61-1.1l-.846.72A4.8,4.8,0,0,0,330.912,359.144Zm6.081-11.628a.72.72,0,1,0-.72-.72A.722.722,0,0,0,336.993,347.516ZM336.4,359h1.188v-9H336.4Zm8.534-2.016a1.96,1.96,0,0,1-1.584,1.062,1.715,1.715,0,0,1-1.692-1.8V351.08h2.718v-1.1h-2.718v-2.988l-1.188.144v2.844h-1.44v1.1h1.44v5.436a2.48,2.48,0,0,0,2.664,2.628,3.229,3.229,0,0,0,2.394-1.242Zm5.473,2.16c2.322,0,3.312-1.134,3.312-2.538,0-2.9-5.778-2.448-5.778-4.23,0-.936.918-1.44,2.178-1.44a4.1,4.1,0,0,1,2.628,1.1l.846-.738a4.838,4.838,0,0,0-3.456-1.44c-2.3,0-3.312,1.134-3.312,2.538,0,2.9,5.778,2.43,5.778,4.23,0,.936-.9,1.44-2.178,1.44a4.081,4.081,0,0,1-2.61-1.1l-.846.72A4.8,4.8,0,0,0,350.406,359.144ZM370,359h1.224l-5.04-12.1h-1.134l-5.04,12.1h1.242l1.548-3.78h5.652Zm-6.714-4.968,2.34-5.742,2.34,5.742Zm16.206-7.128H369.7v1.188H374V359h1.188V348.092h4.3Zm5.936,12.24c3.654,0,5.8-2.772,5.8-6.174,0-3.42-2.142-6.192-5.8-6.192s-5.814,2.772-5.814,6.192C379.61,356.372,381.77,359.144,385.424,359.144Zm0-1.116c-2.79,0-4.536-2.232-4.536-5.058,0-2.844,1.746-5.058,4.536-5.058s4.554,2.214,4.554,5.058C389.978,355.8,388.214,358.028,385.424,358.028Zm20.984.972-2.79-12.1h-1.1l-3.132,9.684L396.22,346.9h-1.08L392.35,359h1.188l2.322-9.882L398.974,359h.792l3.132-9.882L405.22,359Zm1.34.864h.972L409.782,357h-1.224Zm-110.562,28.28a4.548,4.548,0,0,0,4.788-4.734V375.9h-1.188v7.506a3.6,3.6,0,1,1-7.2,0V375.9H292.4v7.506A4.557,4.557,0,0,0,297.186,388.144Zm10.854,0c2.484,0,3.762-1.476,3.762-3.114,0-3.744-6.57-3.276-6.57-6.138,0-1.224.972-1.98,2.592-1.98a4.905,4.905,0,0,1,3.2,1.512l.828-.81a6.217,6.217,0,0,0-4.032-1.836c-2.484,0-3.762,1.476-3.762,3.114,0,3.744,6.57,3.294,6.57,6.138,0,1.224-.972,1.98-2.592,1.98a4.842,4.842,0,0,1-3.2-1.512l-.828.81A6.218,6.218,0,0,0,308.04,388.144Zm14.442-12.24H312.69v1.188h4.3V388h1.188V377.092h4.3Zm11.217,12.24a4.644,4.644,0,1,0-4.644-4.644A4.655,4.655,0,0,0,333.7,388.144Zm.018-1.134a3.52,3.52,0,1,1,3.456-3.51A3.458,3.458,0,0,1,333.717,387.01Zm10.492-8.154a3.606,3.606,0,0,0-2.88,1.476V379h-1.188v9h1.188v-5.274a2.7,2.7,0,0,1,2.682-2.772,2.663,2.663,0,0,1,1.53.558l.414-1.188A3.427,3.427,0,0,0,344.209,378.856Zm13.582,9.288c3.654,0,5.8-2.772,5.8-6.174,0-3.42-2.142-6.192-5.8-6.192s-5.814,2.772-5.814,6.192C351.977,385.372,354.137,388.144,357.791,388.144Zm0-1.116c-2.79,0-4.536-2.232-4.536-5.058,0-2.844,1.746-5.058,4.536-5.058s4.554,2.214,4.554,5.058C362.345,384.8,360.581,387.028,357.791,387.028Zm11.6,1.116c2.484,0,3.762-1.476,3.762-3.114,0-3.744-6.57-3.276-6.57-6.138,0-1.224.972-1.98,2.592-1.98a4.9,4.9,0,0,1,3.2,1.512l.828-.81a6.217,6.217,0,0,0-4.032-1.836c-2.484,0-3.762,1.476-3.762,3.114,0,3.744,6.57,3.294,6.57,6.138,0,1.224-.972,1.98-2.592,1.98a4.842,4.842,0,0,1-3.2-1.512l-.828.81A6.217,6.217,0,0,0,369.387,388.144ZM388.83,388l-2.79-12.1h-1.1l-3.132,9.684-3.168-9.684h-1.08l-2.79,12.1h1.188l2.322-9.882L381.4,388h.792l3.132-9.882L387.642,388Zm6.789.144c3.654,0,5.8-2.772,5.8-6.174,0-3.42-2.142-6.192-5.8-6.192s-5.814,2.772-5.814,6.192C389.8,385.372,391.965,388.144,395.619,388.144Zm0-1.116c-2.79,0-4.536-2.232-4.536-5.058,0-2.844,1.746-5.058,4.536-5.058s4.554,2.214,4.554,5.058C400.173,384.8,398.409,387.028,395.619,387.028Z" fill="rgba(255,255,255,0.7)"/>
      <path id="Path_8" data-name="Path 8" d="M430.9,408.9a1.283,1.283,0,0,0,0-1.814l-8.146-8.178a1.282,1.282,0,1,0-1.817,1.81l7.24,7.269-7.269,7.241a1.282,1.282,0,1,0,1.81,1.817ZM280,408.976l150,.3.006-2.564-150-.3Z" fill="rgba(226,0,136,0.64)"/>
      <path id="Path_9" data-name="Path 9" d="M198.453,407.546a.641.641,0,0,0-.906,0l-4.081,4.081a.641.641,0,0,0,.907.907L198,408.906l3.627,3.628a.641.641,0,0,0,.907-.907Zm.188,299.915V702.47h-1.282v4.991Zm0-14.973v-9.982h-1.282v9.982Zm0-19.964v-9.982h-1.282v9.982Zm0-19.964v-9.982h-1.282v9.982Zm0-19.964v-9.982h-1.282V632.6Zm0-19.964v-9.983h-1.282v9.983Zm0-19.965v-9.982h-1.282v9.982Zm0-19.964v-9.982h-1.282V572.7Zm0-19.964v-9.982h-1.282v9.982Zm0-19.964v-9.982h-1.282v9.982Zm0-19.964v-9.982h-1.282v9.982Zm0-19.964v-9.982h-1.282v9.982Zm0-19.964V462.9h-1.282v9.982Zm0-19.964v-9.982h-1.282v9.982Zm0-19.964v-9.982h-1.282v9.982Zm0-19.964V408h-1.282v4.991Z" fill="rgba(255,215,74,0.7)"/>
      <path id="Path_10" data-name="Path 10" d="M122.059,512.144c2.484,0,3.762-1.476,3.762-3.114,0-3.744-6.57-3.276-6.57-6.138,0-1.224.972-1.98,2.592-1.98a4.9,4.9,0,0,1,3.2,1.512l.828-.81a6.217,6.217,0,0,0-4.032-1.836c-2.484,0-3.762,1.476-3.762,3.114,0,3.744,6.57,3.294,6.57,6.138,0,1.224-.972,1.98-2.592,1.98a4.842,4.842,0,0,1-3.2-1.512l-.828.81A6.217,6.217,0,0,0,122.059,512.144Zm10.632-2.16a1.959,1.959,0,0,1-1.584,1.062,1.715,1.715,0,0,1-1.692-1.8V504.08h2.718v-1.1h-2.718v-2.988l-1.188.144v2.844h-1.44v1.1h1.44v5.436a2.48,2.48,0,0,0,2.664,2.628,3.229,3.229,0,0,0,2.394-1.242ZM142.035,503v1.458a4.645,4.645,0,0,0-8.154,3.042,4.645,4.645,0,0,0,8.154,3.042V512h1.188v-9Zm-3.492,8.01A3.51,3.51,0,1,1,142,507.5,3.473,3.473,0,0,1,138.543,511.01ZM151.8,503h-1.314l-3.546,4.266V498.59h-1.188v13.392h1.188v-3.15l.9-1.08,2.7,4.248h1.26l-3.258-5.094Zm2.618-2.484a.72.72,0,1,0-.72-.72A.722.722,0,0,0,154.423,500.516ZM153.829,512h1.188v-9h-1.188Zm8-9.144a3.606,3.606,0,0,0-2.88,1.476V503h-1.188v9h1.188v-5.274a2.683,2.683,0,1,1,5.364,0V512h1.206v-5.31A3.717,3.717,0,0,0,161.831,502.856Zm13.655.162v1.458a4.644,4.644,0,1,0-3.51,7.686,4.593,4.593,0,0,0,3.51-1.6v.666h.018a3.538,3.538,0,0,1-3.456,3.51,3.765,3.765,0,0,1-3.474-2.286l-.972.486a4.726,4.726,0,0,0,4.446,2.9,4.669,4.669,0,0,0,4.644-4.608v-8.208Zm-3.492,8.028a3.51,3.51,0,1,1,3.456-3.51A3.446,3.446,0,0,1,171.994,511.046ZM106.8,537h1.188v-4.572H110.8l.738-.036L114.112,537h1.242l-2.7-4.86a3.59,3.59,0,0,0,2.7-3.474c0-2.088-1.656-3.762-4.446-3.762h-4.1Zm1.188-5.706v-5.256h2.916c2,0,3.222,1.17,3.222,2.628,0,1.476-1.224,2.628-3.222,2.628Zm13.2,4.662a3.4,3.4,0,0,1-3.258-2.448l7.866-1.422a1.107,1.107,0,0,0-.018-.234,4.633,4.633,0,0,0-9.234.576,4.508,4.508,0,0,0,.18,1.3,4.738,4.738,0,0,0,4.464,3.33,4.835,4.835,0,0,0,4.464-3.024l-1.008-.36A3.758,3.758,0,0,1,121.193,535.956Zm-.108-7.092a3.522,3.522,0,0,1,3.366,2.466l-6.7,1.206c0-.18-.018-.306-.018-.414A3.435,3.435,0,0,1,121.085,528.864Zm18.2-.864-2.592,7.326L134.1,528h-1.08l-2.592,7.326L127.856,528h-1.188l3.168,9h1.188l2.538-7.416L136.1,537h1.188l3.186-9Zm9.939,0v1.458a4.645,4.645,0,0,0-8.154,3.042,4.645,4.645,0,0,0,8.154,3.042V537h1.188v-9Zm-3.492,8.01a3.51,3.51,0,1,1,3.456-3.51A3.473,3.473,0,0,1,145.733,536.01Zm11.176-8.154a3.606,3.606,0,0,0-2.88,1.476V528h-1.188v9h1.188v-5.274a2.7,2.7,0,0,1,2.682-2.772,2.663,2.663,0,0,1,1.53.558l.414-1.188A3.427,3.427,0,0,0,156.909,527.856Zm10.245-4.248v5.85A4.645,4.645,0,0,0,159,532.5a4.645,4.645,0,0,0,8.154,3.042V537h1.188V523.608Zm-3.492,12.4a3.51,3.51,0,1,1,3.456-3.51A3.461,3.461,0,0,1,163.662,536.01Zm10.291,1.134c2.322,0,3.312-1.134,3.312-2.538,0-2.9-5.778-2.448-5.778-4.23,0-.936.918-1.44,2.178-1.44a4.1,4.1,0,0,1,2.628,1.1l.846-.738a4.838,4.838,0,0,0-3.456-1.44c-2.3,0-3.312,1.134-3.312,2.538,0,2.9,5.778,2.43,5.778,4.23,0,.936-.9,1.44-2.178,1.44a4.081,4.081,0,0,1-2.61-1.1l-.846.72A4.8,4.8,0,0,0,173.953,537.144Zm-56.99,18.268h-3.546v-3.546h-1.08v3.546h-3.546v1.08h3.546v3.546h1.08v-3.546h3.546ZM124.74,562h7.974v-1.188h-6.282c1.134-1.062,5.94-4.752,5.94-7.65a3.531,3.531,0,0,0-3.708-3.384,4.7,4.7,0,0,0-4,2.556l.81.81a3.639,3.639,0,0,1,3.06-2.232,2.438,2.438,0,0,1,2.61,2.322c0,2.376-5.49,6.8-6.516,7.758Zm13.711.144c3.15,0,4.482-2.772,4.482-6.174,0-3.42-1.332-6.192-4.482-6.192s-4.482,2.772-4.482,6.192C133.969,559.372,135.3,562.144,138.451,562.144Zm0-1.116c-2.322,0-3.294-2.232-3.294-5.058,0-2.844.972-5.058,3.294-5.058s3.294,2.214,3.294,5.058C141.745,558.8,140.773,561.028,138.451,561.028Zm8.518-4.644a2.682,2.682,0,1,0-2.682-2.682A2.689,2.689,0,0,0,146.969,556.384ZM145.439,562h1.17l8.37-10.836h-1.152Zm1.53-6.552a1.746,1.746,0,1,1,1.746-1.746A1.771,1.771,0,0,1,146.969,555.448Zm6.48,6.7a2.673,2.673,0,1,0-2.664-2.682A2.677,2.677,0,0,0,153.449,562.144Zm0-.972a1.733,1.733,0,0,1-1.71-1.71,1.719,1.719,0,0,1,3.438,0A1.736,1.736,0,0,1,153.449,561.172Zm13.9.972a4.644,4.644,0,1,0-4.644-4.644A4.655,4.655,0,0,0,167.353,562.144Zm.018-1.134a3.52,3.52,0,1,1,3.456-3.51A3.458,3.458,0,0,1,167.371,561.01Zm9.9-8.046H175.5v-2.178c0-.972.108-1.26.648-1.26a3.4,3.4,0,0,1,.72.09l.252-.918a4.138,4.138,0,0,0-1.314-.216c-.9,0-1.476.558-1.476,1.872v2.61H173.27v.99h1.062V562h1.17v-8.046h1.764ZM115.847,574.9h-9.792v1.188h4.3V587h1.188V576.092h4.3Zm3.744,2.952a3.606,3.606,0,0,0-2.88,1.476V578h-1.188v9h1.188v-5.274a2.7,2.7,0,0,1,2.682-2.772,2.663,2.663,0,0,1,1.53.558l.414-1.188A3.427,3.427,0,0,0,119.591,577.856Zm6.735,8.1a3.4,3.4,0,0,1-3.258-2.448l7.866-1.422a1.107,1.107,0,0,0-.018-.234,4.633,4.633,0,0,0-9.234.576,4.508,4.508,0,0,0,.18,1.3,4.738,4.738,0,0,0,4.464,3.33,4.835,4.835,0,0,0,4.464-3.024l-1.008-.36A3.758,3.758,0,0,1,126.326,585.956Zm-.108-7.092a3.522,3.522,0,0,1,3.366,2.466l-6.7,1.206c0-.18-.018-.306-.018-.414A3.435,3.435,0,0,1,126.218,578.864ZM140.594,578v1.458a4.645,4.645,0,0,0-8.154,3.042,4.645,4.645,0,0,0,8.154,3.042V587h1.188v-9Zm-3.492,8.01a3.51,3.51,0,1,1,3.456-3.51A3.473,3.473,0,0,1,137.1,586.01Zm10.255,1.134c2.322,0,3.312-1.134,3.312-2.538,0-2.9-5.778-2.448-5.778-4.23,0-.936.918-1.44,2.178-1.44a4.1,4.1,0,0,1,2.628,1.1l.846-.738a4.838,4.838,0,0,0-3.456-1.44c-2.3,0-3.312,1.134-3.312,2.538,0,2.9,5.778,2.43,5.778,4.23,0,.936-.9,1.44-2.178,1.44a4.081,4.081,0,0,1-2.61-1.1l-.846.72A4.8,4.8,0,0,0,147.357,587.144ZM159.144,578v5.274a2.674,2.674,0,1,1-5.346,0V578h-1.224v5.31a3.717,3.717,0,0,0,3.69,3.834,3.606,3.606,0,0,0,2.88-1.476V587h1.188v-9Zm7.732-.144a3.606,3.606,0,0,0-2.88,1.476V578h-1.188v9H164v-5.274a2.7,2.7,0,0,1,2.682-2.772,2.663,2.663,0,0,1,1.53.558l.414-1.188A3.427,3.427,0,0,0,166.876,577.856Zm9.353.144-2.466,6.426-2.7-6.426h-1.188l3.33,7.9-1.89,4.932H172.5L177.417,578Zm-66.894,34h1.188v-4.572h2.808l.738-.036L116.643,612h1.242l-2.7-4.86a3.59,3.59,0,0,0,2.7-3.474c0-2.088-1.656-3.762-4.446-3.762h-4.1Zm1.188-5.706v-5.256h2.916c2,0,3.222,1.17,3.222,2.628,0,1.476-1.224,2.628-3.222,2.628Zm13.2,4.662a3.4,3.4,0,0,1-3.258-2.448l7.866-1.422a1.107,1.107,0,0,0-.018-.234,4.633,4.633,0,0,0-9.234.576,4.508,4.508,0,0,0,.18,1.3,4.738,4.738,0,0,0,4.464,3.33,4.835,4.835,0,0,0,4.464-3.024l-1.008-.36A3.758,3.758,0,0,1,123.724,610.956Zm-.108-7.092a3.522,3.522,0,0,1,3.366,2.466l-6.7,1.206c0-.18-.018-.306-.018-.414A3.435,3.435,0,0,1,123.616,603.864ZM135.553,603l-2.592,7.326L130.387,603H129.2l3.168,9h1.188l3.186-9Zm6.453,7.956a3.4,3.4,0,0,1-3.258-2.448l7.866-1.422a1.107,1.107,0,0,0-.018-.234,4.633,4.633,0,0,0-9.234.576,4.507,4.507,0,0,0,.18,1.3,4.738,4.738,0,0,0,4.464,3.33,4.835,4.835,0,0,0,4.464-3.024l-1.008-.36A3.758,3.758,0,0,1,142.006,610.956Zm-.108-7.092a3.522,3.522,0,0,1,3.366,2.466l-6.7,1.206c0-.18-.018-.306-.018-.414A3.435,3.435,0,0,1,141.9,603.864Zm10.476-1.008a3.606,3.606,0,0,0-2.88,1.476V603h-1.188v9h1.188v-5.274a2.683,2.683,0,1,1,5.364,0V612h1.206v-5.31A3.717,3.717,0,0,0,152.374,602.856Zm12.36.144v5.274a2.674,2.674,0,1,1-5.346,0V603h-1.224v5.31a3.717,3.717,0,0,0,3.69,3.834,3.606,3.606,0,0,0,2.88-1.476V612h1.188v-9Zm7.787,7.956a3.4,3.4,0,0,1-3.258-2.448l7.866-1.422a1.107,1.107,0,0,0-.018-.234,4.633,4.633,0,0,0-9.234.576,4.507,4.507,0,0,0,.18,1.3,4.738,4.738,0,0,0,4.464,3.33,4.835,4.835,0,0,0,4.464-3.024l-1.008-.36A3.758,3.758,0,0,1,172.521,610.956Zm-.108-7.092a3.522,3.522,0,0,1,3.366,2.466l-6.7,1.206c0-.18-.018-.306-.018-.414A3.435,3.435,0,0,1,172.413,603.864Z" fill="rgba(255,255,255,0.7)"/>
      <path id="Path_11" data-name="Path 11" d="M476.206,438.422H725.65" fill="none" stroke="rgba(226,0,136,0.64)" stroke-width="2.565"/>
      <path id="Path_12" data-name="Path 12" d="M538.42,579.606a1.282,1.282,0,0,0,1.1,1.444l11.437,1.559a1.283,1.283,0,1,0,.346-2.542l-10.166-1.385,1.386-10.166a1.283,1.283,0,0,0-2.542-.347Zm2.047,1.194L726.428,439.444l-1.553-2.042L538.914,578.758Z" fill="rgba(226,0,136,0.64)"/>
      <path id="Path_13" data-name="Path 13" d="M843.639,323a1.282,1.282,0,0,0-1.282-1.282H830.815a1.282,1.282,0,1,0,0,2.564h10.259v10.26a1.283,1.283,0,1,0,2.565,0ZM726.557,440.613,843.264,323.907l-1.814-1.814L724.744,438.8Z" fill="rgba(226,0,136,0.64)"/>
      <path id="Path_14" data-name="Path 14" d="M725.65,489.723v-51.3" fill="none" stroke="rgba(226,0,136,0.64)" stroke-width="2.565"/>
      <path id="Path_15" data-name="Path 15" d="M911.787,580.767a1.284,1.284,0,0,0,1.1-1.445l-1.57-11.435a1.282,1.282,0,1,0-2.541.348l1.4,10.165L900,579.795a1.282,1.282,0,1,0,.349,2.541Zm.6-2.293L726.426,437.4l-1.55,2.044L910.837,580.518Z" fill="rgba(226,0,136,0.64)"/>
      <path id="Path_16" data-name="Path 16" d="M525.285,414.832a5.493,5.493,0,0,0,5.094-3.007l-1.116-.666a4.324,4.324,0,0,1-3.978,2.556c-2.808,0-4.518-2.232-4.518-5.058,0-2.844,1.71-5.058,4.518-5.058a4.328,4.328,0,0,1,3.978,2.538l1.116-.648a5.476,5.476,0,0,0-5.094-3.024c-3.654,0-5.832,2.772-5.832,6.192C519.453,412.059,521.631,414.832,525.285,414.832Zm11.273-9.289a3.606,3.606,0,0,0-2.88,1.476V401.3H532.49v13.393h1.188v-5.275a2.683,2.683,0,1,1,5.364.018v5.257h1.206v-5.275A3.748,3.748,0,0,0,536.558,405.543Zm10.039,9.289a4.645,4.645,0,1,0-4.644-4.644A4.656,4.656,0,0,0,546.6,414.832Zm.018-1.135a3.52,3.52,0,1,1,3.456-3.509A3.457,3.457,0,0,1,546.615,413.7Zm10.6,1.135a4.645,4.645,0,1,0-4.644-4.644A4.656,4.656,0,0,0,557.214,414.832Zm.018-1.135a3.52,3.52,0,1,1,3.456-3.509A3.457,3.457,0,0,1,557.232,413.7Zm9.623,1.135c2.322,0,3.312-1.135,3.312-2.539,0-2.9-5.778-2.448-5.778-4.23,0-.936.918-1.44,2.178-1.44a4.1,4.1,0,0,1,2.628,1.1l.846-.738a4.838,4.838,0,0,0-3.456-1.44c-2.3,0-3.312,1.134-3.312,2.538,0,2.9,5.778,2.43,5.778,4.231,0,.935-.9,1.439-2.178,1.439a4.081,4.081,0,0,1-2.61-1.1l-.846.72A4.8,4.8,0,0,0,566.855,414.832Zm9.238-1.189a3.4,3.4,0,0,1-3.258-2.448l7.866-1.422a1.107,1.107,0,0,0-.018-.234,4.633,4.633,0,0,0-9.234.576,4.506,4.506,0,0,0,.18,1.3,4.739,4.739,0,0,0,4.464,3.331,4.835,4.835,0,0,0,4.464-3.025l-1.008-.36A3.758,3.758,0,0,1,576.093,413.643Zm-.108-7.092a3.522,3.522,0,0,1,3.366,2.466l-6.7,1.206c0-.18-.018-.306-.018-.414A3.435,3.435,0,0,1,575.985,406.551Zm9.573,8.281c2.322,0,3.312-1.135,3.312-2.539,0-2.9-5.778-2.448-5.778-4.23,0-.936.918-1.44,2.178-1.44a4.1,4.1,0,0,1,2.628,1.1l.846-.738a4.838,4.838,0,0,0-3.456-1.44c-2.3,0-3.312,1.134-3.312,2.538,0,2.9,5.778,2.43,5.778,4.231,0,.935-.9,1.439-2.178,1.439a4.081,4.081,0,0,1-2.61-1.1l-.846.72A4.8,4.8,0,0,0,585.558,414.832Zm19.59-.144h1.224l-5.04-12.1H600.2l-5.04,12.1H596.4l1.548-3.781H603.6Zm-6.714-4.969,2.34-5.742,2.34,5.742Zm9.431,4.969h1.188V401.3h-1.188Zm3.691,0h1.188V401.3h-1.188Zm7.762.144a4.645,4.645,0,1,0-4.644-4.644A4.656,4.656,0,0,0,619.318,414.832Zm.018-1.135a3.52,3.52,0,1,1,3.456-3.509A3.457,3.457,0,0,1,619.336,413.7Zm10.6,1.135a4.62,4.62,0,0,0,3.942-2.215l-1.08-.522a3.511,3.511,0,1,1,0-3.816l1.08-.522a4.639,4.639,0,1,0-3.942,7.075Zm13.371-9.144v1.457a4.645,4.645,0,0,0-8.154,3.043,4.644,4.644,0,0,0,8.154,3.041v1.459h1.188v-9Zm-3.492,8.009a3.51,3.51,0,1,1,3.456-3.509A3.472,3.472,0,0,1,639.814,413.7Zm12.042-1.026a1.96,1.96,0,0,1-1.584,1.062,1.714,1.714,0,0,1-1.692-1.8v-5.166H651.3v-1.1H648.58v-2.988l-1.188.144v2.844h-1.44v1.1h1.44V412.2a2.481,2.481,0,0,0,2.664,2.629,3.228,3.228,0,0,0,2.394-1.243Zm2.906-9.468a.72.72,0,1,0-.72-.72A.722.722,0,0,0,654.762,403.2Zm-.594,11.485h1.188v-9h-1.188Zm7.935.144a4.645,4.645,0,1,0-4.644-4.644A4.656,4.656,0,0,0,662.1,414.832Zm.018-1.135a3.52,3.52,0,1,1,3.456-3.509A3.457,3.457,0,0,1,662.121,413.7Zm10.491-8.154a3.606,3.606,0,0,0-2.88,1.476v-1.331h-1.188v9h1.188v-5.275a2.683,2.683,0,1,1,5.364,0v5.275H676.3v-5.311A3.717,3.717,0,0,0,672.612,405.543Z" fill="rgba(255,255,255,0.7)"/>
      <path id="Path_17" data-name="Path 17" d="M718.715,358.09a3.7,3.7,0,0,0-3.348,1.926,3.648,3.648,0,0,0-3.222-1.926,3.605,3.605,0,0,0-2.88,1.476v-1.332h-1.188v9h1.188V361.96a2.683,2.683,0,1,1,5.364,0v5.274h1.206V361.96a2.675,2.675,0,1,1,5.346,0v5.274h1.224v-5.31A3.706,3.706,0,0,0,718.715,358.09Zm6.887-2.34a.72.72,0,1,0-.72-.72A.722.722,0,0,0,725.6,355.75Zm-.594,11.484H726.2v-9h-1.188Zm8-9.144a3.605,3.605,0,0,0-2.88,1.476v-1.332h-1.188v9h1.188V361.96a2.683,2.683,0,1,1,5.364,0v5.274H736.7v-5.31A3.717,3.717,0,0,0,733.01,358.09Zm5.325,9.144h1.278v-1.908h-1.278Zm8.6,0h7.974v-1.188h-6.282c1.134-1.062,5.94-4.752,5.94-7.65a3.531,3.531,0,0,0-3.708-3.384,4.7,4.7,0,0,0-4,2.556l.81.81a3.639,3.639,0,0,1,3.06-2.232,2.437,2.437,0,0,1,2.61,2.322c0,2.376-5.49,6.8-6.516,7.758Zm13.711.144c3.15,0,4.482-2.772,4.482-6.174,0-3.42-1.332-6.192-4.482-6.192s-4.482,2.772-4.482,6.192C756.16,364.606,757.492,367.378,760.642,367.378Zm0-1.116c-2.322,0-3.294-2.232-3.294-5.058,0-2.844.972-5.058,3.294-5.058s3.294,2.214,3.294,5.058C763.936,364.03,762.964,366.262,760.642,366.262Zm8.518-4.644a2.682,2.682,0,1,0-2.682-2.682A2.689,2.689,0,0,0,769.16,361.618Zm-1.53,5.616h1.17l8.37-10.836h-1.152Zm1.53-6.552a1.746,1.746,0,1,1,1.746-1.746A1.771,1.771,0,0,1,769.16,360.682Zm6.48,6.7a2.673,2.673,0,1,0-2.664-2.682A2.677,2.677,0,0,0,775.64,367.378Zm0-.972a1.733,1.733,0,0,1-1.71-1.71,1.719,1.719,0,0,1,3.438,0A1.736,1.736,0,0,1,775.64,366.406Z" fill="rgba(255,255,255,0.7)"/>
      <path id="Path_18" data-name="Path 18" d="M534.8,504.856a3.7,3.7,0,0,0-3.348,1.926,3.648,3.648,0,0,0-3.222-1.926,3.606,3.606,0,0,0-2.88,1.476V505h-1.188v9h1.188v-5.274a2.683,2.683,0,1,1,5.364,0V514h1.206v-5.274a2.675,2.675,0,1,1,5.346,0V514h1.224v-5.31A3.706,3.706,0,0,0,534.8,504.856Zm13.536.144v1.458a4.645,4.645,0,0,0-8.154,3.042,4.645,4.645,0,0,0,8.154,3.042V514h1.188v-9Zm-3.492,8.01a3.51,3.51,0,1,1,3.456-3.51A3.473,3.473,0,0,1,544.843,513.01Zm14.128.99-3.2-4.536,3.15-4.464h-1.35l-2.466,3.51L552.617,505h-1.332l3.15,4.464-3.2,4.536h1.332l2.538-3.582,2.52,3.582Zm1.407,0h1.278v-1.908h-1.278Zm12.322.144c2.628,0,4.194-1.566,4.194-3.474a3.22,3.22,0,0,0-2.178-3.078,2.9,2.9,0,0,0,1.8-2.682c0-1.728-1.422-3.132-3.816-3.132s-3.8,1.4-3.8,3.132a2.851,2.851,0,0,0,1.782,2.682,3.252,3.252,0,0,0-2.16,3.078C568.524,512.578,570.09,514.144,572.7,514.144Zm.018-6.948c-1.6,0-2.556-.936-2.556-2.142a2.261,2.261,0,0,1,2.556-2.142,2.228,2.228,0,0,1,2.52,2.142C575.256,506.26,574.3,507.2,572.718,507.2Zm0,5.814c-1.782,0-2.88-1.062-2.88-2.43s1.08-2.43,2.862-2.43c1.8,0,2.88,1.062,2.88,2.43S574.5,513.01,572.718,513.01Zm10.178,1.134c3.15,0,4.482-2.772,4.482-6.174,0-3.42-1.332-6.192-4.482-6.192s-4.482,2.772-4.482,6.192C578.414,511.372,579.746,514.144,582.9,514.144Zm0-1.116c-2.322,0-3.294-2.232-3.294-5.058,0-2.844.972-5.058,3.294-5.058s3.294,2.214,3.294,5.058C586.19,510.8,585.218,513.028,582.9,513.028Zm8.518-4.644a2.682,2.682,0,1,0-2.682-2.682A2.689,2.689,0,0,0,591.414,508.384ZM589.884,514h1.17l8.37-10.836h-1.152Zm1.53-6.552a1.746,1.746,0,1,1,1.746-1.746A1.771,1.771,0,0,1,591.414,507.448Zm6.48,6.7a2.673,2.673,0,1,0-2.664-2.682A2.677,2.677,0,0,0,597.894,514.144Zm0-.972a1.733,1.733,0,0,1-1.71-1.71,1.719,1.719,0,0,1,3.438,0A1.736,1.736,0,0,1,597.894,513.172Z" fill="rgba(255,255,255,0.7)"/>
      <path id="Path_19" data-name="Path 19" d="M697.675,504.856a3.7,3.7,0,0,0-3.348,1.926,3.648,3.648,0,0,0-3.222-1.926,3.606,3.606,0,0,0-2.88,1.476V505h-1.188v9h1.188v-5.274a2.683,2.683,0,1,1,5.364,0V514h1.206v-5.274a2.675,2.675,0,1,1,5.346,0V514h1.224v-5.31A3.706,3.706,0,0,0,697.675,504.856Zm13.536.144v1.458a4.645,4.645,0,0,0-8.154,3.042,4.645,4.645,0,0,0,8.154,3.042V514H712.4v-9Zm-3.492,8.01a3.51,3.51,0,1,1,3.456-3.51A3.473,3.473,0,0,1,707.719,513.01Zm14.128.99-3.2-4.536,3.15-4.464h-1.35l-2.466,3.51L715.493,505h-1.332l3.15,4.464-3.2,4.536h1.332l2.538-3.582L720.5,514Zm1.407,0h1.278v-1.908h-1.278Zm12.322.144c2.628,0,4.194-1.566,4.194-3.474a3.22,3.22,0,0,0-2.178-3.078,2.9,2.9,0,0,0,1.8-2.682c0-1.728-1.422-3.132-3.816-3.132s-3.8,1.4-3.8,3.132a2.851,2.851,0,0,0,1.782,2.682,3.252,3.252,0,0,0-2.16,3.078C731.4,512.578,732.966,514.144,735.576,514.144Zm.018-6.948c-1.6,0-2.556-.936-2.556-2.142a2.261,2.261,0,0,1,2.556-2.142,2.228,2.228,0,0,1,2.52,2.142C738.132,506.26,737.178,507.2,735.594,507.2Zm0,5.814c-1.782,0-2.88-1.062-2.88-2.43s1.08-2.43,2.862-2.43c1.8,0,2.88,1.062,2.88,2.43S737.376,513.01,735.594,513.01Zm10.178,1.134c3.15,0,4.482-2.772,4.482-6.174,0-3.42-1.332-6.192-4.482-6.192s-4.482,2.772-4.482,6.192C741.29,511.372,742.622,514.144,745.772,514.144Zm0-1.116c-2.322,0-3.294-2.232-3.294-5.058,0-2.844.972-5.058,3.294-5.058s3.294,2.214,3.294,5.058C749.066,510.8,748.094,513.028,745.772,513.028Zm8.518-4.644a2.682,2.682,0,1,0-2.682-2.682A2.689,2.689,0,0,0,754.29,508.384ZM752.76,514h1.17l8.37-10.836h-1.152Zm1.53-6.552a1.746,1.746,0,1,1,1.746-1.746A1.771,1.771,0,0,1,754.29,507.448Zm6.48,6.7a2.673,2.673,0,1,0-2.664-2.682A2.677,2.677,0,0,0,760.77,514.144Zm0-.972a1.733,1.733,0,0,1-1.71-1.71,1.719,1.719,0,0,1,3.438,0A1.736,1.736,0,0,1,760.77,513.172Z" fill="rgba(255,255,255,0.7)"/>
      <path id="Path_20" data-name="Path 20" d="M870.453,504.856a3.7,3.7,0,0,0-3.348,1.926,3.648,3.648,0,0,0-3.222-1.926,3.606,3.606,0,0,0-2.88,1.476V505h-1.188v9H861v-5.274a2.683,2.683,0,1,1,5.364,0V514h1.206v-5.274a2.675,2.675,0,1,1,5.346,0V514h1.224v-5.31A3.706,3.706,0,0,0,870.453,504.856Zm13.536.144v1.458a4.645,4.645,0,0,0-8.154,3.042,4.645,4.645,0,0,0,8.154,3.042V514h1.188v-9Zm-3.492,8.01a3.51,3.51,0,1,1,3.456-3.51A3.473,3.473,0,0,1,880.5,513.01Zm14.129.99-3.2-4.536,3.15-4.464h-1.35l-2.466,3.51L888.272,505H886.94l3.15,4.464-3.2,4.536h1.332l2.538-3.582,2.52,3.582Zm1.407,0h1.278v-1.908h-1.278Zm12.321.144c2.628,0,4.194-1.566,4.194-3.474a3.22,3.22,0,0,0-2.178-3.078,2.9,2.9,0,0,0,1.8-2.682c0-1.728-1.422-3.132-3.816-3.132s-3.8,1.4-3.8,3.132a2.851,2.851,0,0,0,1.782,2.682,3.252,3.252,0,0,0-2.16,3.078C904.178,512.578,905.744,514.144,908.354,514.144Zm.018-6.948c-1.6,0-2.556-.936-2.556-2.142a2.261,2.261,0,0,1,2.556-2.142,2.228,2.228,0,0,1,2.52,2.142C910.91,506.26,909.956,507.2,908.372,507.2Zm0,5.814c-1.782,0-2.88-1.062-2.88-2.43s1.08-2.43,2.862-2.43c1.8,0,2.88,1.062,2.88,2.43S910.154,513.01,908.372,513.01Zm10.178,1.134c3.15,0,4.482-2.772,4.482-6.174,0-3.42-1.332-6.192-4.482-6.192s-4.482,2.772-4.482,6.192C914.068,511.372,915.4,514.144,918.55,514.144Zm0-1.116c-2.322,0-3.294-2.232-3.294-5.058,0-2.844.972-5.058,3.294-5.058s3.294,2.214,3.294,5.058C921.844,510.8,920.872,513.028,918.55,513.028Zm8.518-4.644a2.682,2.682,0,1,0-2.682-2.682A2.689,2.689,0,0,0,927.068,508.384ZM925.538,514h1.17l8.37-10.836h-1.152Zm1.53-6.552a1.746,1.746,0,1,1,1.746-1.746A1.771,1.771,0,0,1,927.068,507.448Zm6.48,6.7a2.673,2.673,0,1,0-2.664-2.682A2.677,2.677,0,0,0,933.548,514.144Zm0-.972a1.733,1.733,0,0,1-1.71-1.71,1.719,1.719,0,0,1,3.438,0A1.736,1.736,0,0,1,933.548,513.172Z" fill="rgba(255,255,255,0.7)"/>
      <g id="Group_22" data-name="Group 22">
        <rect id="Rectangle_90" data-name="Rectangle 90" width="180" height="100" rx="20.52" transform="translate(398 602)" fill="rgba(133,71,255,0.2)"/>
        <path id="Path_21" data-name="Path 21" d="M469.319,631.58l-4.1,10.84-4.1-10.84h-1.96l5.08,13.42h1.96l5.06-13.42Zm9.907,3.42v1.1a5.16,5.16,0,1,0,0,7.8V645h1.9V635Zm-3.34,8.36a3.362,3.362,0,1,1,3.26-3.36A3.247,3.247,0,0,1,475.886,643.36ZM490.429,635v5.68a2.564,2.564,0,1,1-5.12.02V635h-1.94v5.76a4.17,4.17,0,0,0,4.12,4.4,3.873,3.873,0,0,0,2.94-1.4V645h1.9V635Zm4.466,10h1.9V630.1h-1.9Zm9.813-2.64a1.638,1.638,0,0,1-1.48,1.04,1.556,1.556,0,0,1-1.48-1.68v-5h2.72V635h-2.72v-3.38l-1.9.12V635h-1.42v1.72h1.42v5.52a2.728,2.728,0,0,0,3,2.92,3.713,3.713,0,0,0,2.72-1.3Zm9.625-10.78-2.46,1.36.88,1.78,1.58-.96V645h1.9V631.58Z" fill="#fff"/>
        <path id="Path_22" data-name="Path 22" d="M414.55,659.56h-1.54l-3.66,5.52-3.66-5.52h-1.54l4.56,6.78V673h1.32v-6.7Zm2.878.68a.8.8,0,1,0-.8-.8A.8.8,0,0,0,417.428,660.24Zm-.66,12.76h1.32V663h-1.32Zm8.816-1.16a3.774,3.774,0,0,1-3.62-2.72l8.74-1.58a1.229,1.229,0,0,0-.02-.26,5.148,5.148,0,0,0-10.26.64,5.009,5.009,0,0,0,.2,1.44,5.265,5.265,0,0,0,4.96,3.7,5.372,5.372,0,0,0,4.96-3.36l-1.12-.4A4.176,4.176,0,0,1,425.584,671.84Zm-.12-7.88a3.913,3.913,0,0,1,3.74,2.74l-7.44,1.34c0-.2-.02-.34-.02-.46A3.816,3.816,0,0,1,425.464,663.96Zm7.609,9.04h1.32V658.12h-1.32ZM445.6,658.12v6.5a5.161,5.161,0,0,0-9.06,3.38,5.161,5.161,0,0,0,9.06,3.38V673h1.32V658.12Zm-3.88,13.78a3.9,3.9,0,1,1,3.84-3.9A3.846,3.846,0,0,1,441.718,671.9Zm23.923,1.1H467l-5.6-13.44h-1.26l-5.6,13.44h1.38l1.72-4.2h6.28Zm-7.46-5.52,2.6-6.38,2.6,6.38Zm19.292-4.46v1.62a5.16,5.16,0,1,0-3.9,8.54,5.1,5.1,0,0,0,3.9-1.78v.74h.02a3.932,3.932,0,0,1-3.84,3.9,4.183,4.183,0,0,1-3.86-2.54l-1.08.54a5.251,5.251,0,0,0,4.94,3.22,5.188,5.188,0,0,0,5.16-5.12v-9.12Zm-3.88,8.92a3.9,3.9,0,1,1,3.84-3.9A3.829,3.829,0,0,1,473.593,671.94Zm16.614-8.92v1.62a5.16,5.16,0,1,0-3.9,8.54,5.1,5.1,0,0,0,3.9-1.78v.74h.02a3.932,3.932,0,0,1-3.84,3.9,4.183,4.183,0,0,1-3.86-2.54l-1.08.54a5.251,5.251,0,0,0,4.94,3.22,5.188,5.188,0,0,0,5.16-5.12v-9.12Zm-3.88,8.92a3.9,3.9,0,1,1,3.84-3.9A3.829,3.829,0,0,1,486.327,671.94Zm12.223-9.1a4.006,4.006,0,0,0-3.2,1.64V663h-1.32v10h1.32v-5.86a3,3,0,0,1,2.98-3.08,2.959,2.959,0,0,1,1.7.62l.46-1.32A3.808,3.808,0,0,0,498.55,662.84Zm7.484,9a3.774,3.774,0,0,1-3.62-2.72l8.74-1.58a1.23,1.23,0,0,0-.02-.26,5.148,5.148,0,0,0-10.26.64,5.007,5.007,0,0,0,.2,1.44,5.265,5.265,0,0,0,4.96,3.7,5.372,5.372,0,0,0,4.96-3.36l-1.12-.4A4.175,4.175,0,0,1,506.034,671.84Zm-.12-7.88a3.913,3.913,0,0,1,3.74,2.74l-7.44,1.34c0-.2-.02-.34-.02-.46A3.816,3.816,0,0,1,505.914,663.96Zm16.129-.94v1.62a5.16,5.16,0,1,0-3.9,8.54,5.1,5.1,0,0,0,3.9-1.78v.74h.02a3.932,3.932,0,0,1-3.84,3.9,4.183,4.183,0,0,1-3.86-2.54l-1.08.54a5.251,5.251,0,0,0,4.94,3.22,5.188,5.188,0,0,0,5.16-5.12v-9.12Zm-3.88,8.92a3.9,3.9,0,1,1,3.84-3.9A3.829,3.829,0,0,1,518.163,671.94ZM534.621,663v1.62a5.161,5.161,0,0,0-9.06,3.38,5.161,5.161,0,0,0,9.06,3.38V673h1.32V663Zm-3.88,8.9a3.9,3.9,0,1,1,3.84-3.9A3.858,3.858,0,0,1,530.741,671.9Zm13.38-1.14a2.177,2.177,0,0,1-1.76,1.18,1.905,1.905,0,0,1-1.88-2V664.2h3.02v-1.22h-3.02v-3.32l-1.32.16v3.16h-1.6v1.22h1.6v6.04a2.755,2.755,0,0,0,2.96,2.92,3.587,3.587,0,0,0,2.66-1.38Zm3.229-10.52a.8.8,0,1,0-.8-.8A.8.8,0,0,0,547.35,660.24ZM546.69,673h1.32V663h-1.32Zm8.816.16a5.16,5.16,0,1,0-5.16-5.16A5.173,5.173,0,0,0,555.506,673.16Zm.02-1.26a3.911,3.911,0,1,1,3.84-3.9A3.842,3.842,0,0,1,555.526,671.9Zm11.657-9.06a4.006,4.006,0,0,0-3.2,1.64V663h-1.32v10h1.32v-5.86a2.982,2.982,0,1,1,5.96,0V673h1.34v-5.9A4.13,4.13,0,0,0,567.183,662.84Z" fill="rgba(255,255,255,0.8)"/>
        <rect id="Rectangle_91" data-name="Rectangle 91" width="182.565" height="102.565" rx="21.802" transform="translate(396.718 600.718)" fill="none" stroke="rgba(133,71,255,0.86)" stroke-width="2.565"/>
      </g>
      <g id="Group_23" data-name="Group 23">
        <rect id="Rectangle_92" data-name="Rectangle 92" width="180" height="100" rx="20.52" transform="translate(602.262 602)" fill="rgba(133,71,255,0.2)"/>
        <path id="Path_23" data-name="Path 23" d="M670.875,618.58l-4.1,10.84-4.1-10.84h-1.96l5.08,13.42h1.96l5.06-13.42Zm9.908,3.42v1.1a5.16,5.16,0,1,0,0,7.8V632h1.9V622Zm-3.34,8.36A3.362,3.362,0,1,1,680.7,627,3.247,3.247,0,0,1,677.443,630.36ZM691.986,622v5.68a2.564,2.564,0,1,1-5.12.02V622h-1.94v5.76a4.17,4.17,0,0,0,4.12,4.4,3.873,3.873,0,0,0,2.94-1.4V632h1.9V622Zm4.466,10h1.9V617.1h-1.9Zm9.813-2.64a1.638,1.638,0,0,1-1.48,1.04,1.556,1.556,0,0,1-1.48-1.68v-5h2.72V622H703.3v-3.38l-1.9.12V622h-1.42v1.72h1.42v5.52a2.728,2.728,0,0,0,3,2.92,3.713,3.713,0,0,0,2.72-1.3ZM714.43,632h8.8v-1.9h-6.02c.86-.82,5.72-4.62,5.72-7.72a4.086,4.086,0,0,0-4.28-3.96,5.475,5.475,0,0,0-4.46,2.64l1.18,1.42c.22-.42,1.18-2.26,3.04-2.26a2.4,2.4,0,0,1,2.58,2.32c0,2.4-5.86,7.12-6.66,7.84Z" fill="#fff"/>
        <path id="Path_24" data-name="Path 24" d="M635.932,660.16a6.1,6.1,0,0,0,5.66-3.34l-1.24-.74a4.8,4.8,0,0,1-4.42,2.84c-3.12,0-5.02-2.48-5.02-5.62,0-3.16,1.9-5.62,5.02-5.62a4.809,4.809,0,0,1,4.42,2.82l1.24-.72a6.084,6.084,0,0,0-5.66-3.36c-4.06,0-6.48,3.08-6.48,6.88C629.452,657.08,631.872,660.16,635.932,660.16Zm12.156,0a5.16,5.16,0,1,0-5.16-5.16A5.173,5.173,0,0,0,648.088,660.16Zm.02-1.26a3.911,3.911,0,1,1,3.84-3.9A3.842,3.842,0,0,1,648.108,658.9Zm7.332,1.1h1.32V645.12h-1.32Zm4.1,0h1.32V645.12h-1.32Zm12.524-10v1.62a5.161,5.161,0,0,0-9.06,3.38,5.161,5.161,0,0,0,9.06,3.38V660h1.32V650Zm-3.88,8.9a3.9,3.9,0,1,1,3.84-3.9A3.858,3.858,0,0,1,668.186,658.9Zm13.38-1.14a2.177,2.177,0,0,1-1.76,1.18,1.905,1.905,0,0,1-1.88-2V651.2h3.02v-1.22h-3.02v-3.32l-1.32.16v3.16h-1.6v1.22h1.6v6.04a2.755,2.755,0,0,0,2.96,2.92,3.588,3.588,0,0,0,2.66-1.38Zm6.483,1.08a3.774,3.774,0,0,1-3.62-2.72l8.74-1.58a1.229,1.229,0,0,0-.02-.26,5.148,5.148,0,0,0-10.26.64,5.007,5.007,0,0,0,.2,1.44,5.265,5.265,0,0,0,4.96,3.7,5.372,5.372,0,0,0,4.96-3.36l-1.12-.4A4.175,4.175,0,0,1,688.049,658.84Zm-.12-7.88a3.913,3.913,0,0,1,3.74,2.74l-7.44,1.34c0-.2-.02-.34-.02-.46A3.817,3.817,0,0,1,687.929,650.96Zm11.641-1.12a4.006,4.006,0,0,0-3.2,1.64V650h-1.32v10h1.32v-5.86a3,3,0,0,1,2.98-3.08,2.959,2.959,0,0,1,1.7.62l.46-1.32A3.808,3.808,0,0,0,699.57,649.84Zm11.383.16v1.62a5.161,5.161,0,0,0-9.06,3.38,5.161,5.161,0,0,0,9.06,3.38V660h1.32V650Zm-3.88,8.9a3.9,3.9,0,1,1,3.84-3.9A3.858,3.858,0,0,1,707.073,658.9Zm8.016,1.1h1.32V645.12h-1.32Zm5.038-12.76a.8.8,0,1,0-.8-.8A.8.8,0,0,0,720.127,647.24Zm-.66,12.76h1.32V650h-1.32Zm7.653.16c2.58,0,3.68-1.26,3.68-2.82,0-3.22-6.42-2.72-6.42-4.7,0-1.04,1.02-1.6,2.42-1.6a4.551,4.551,0,0,1,2.92,1.22l.94-.82a5.376,5.376,0,0,0-3.84-1.6c-2.56,0-3.68,1.26-3.68,2.82,0,3.22,6.42,2.7,6.42,4.7,0,1.04-1,1.6-2.42,1.6a4.534,4.534,0,0,1-2.9-1.22l-.94.8A5.332,5.332,0,0,0,727.12,660.16Zm10.265-1.32a3.774,3.774,0,0,1-3.62-2.72l8.74-1.58a1.229,1.229,0,0,0-.02-.26,5.148,5.148,0,0,0-10.26.64,5.007,5.007,0,0,0,.2,1.44,5.265,5.265,0,0,0,4.96,3.7,5.372,5.372,0,0,0,4.96-3.36l-1.12-.4A4.175,4.175,0,0,1,737.385,658.84Zm-.12-7.88a3.913,3.913,0,0,1,3.74,2.74l-7.44,1.34c0-.2-.02-.34-.02-.46A3.817,3.817,0,0,1,737.265,650.96Zm15.973-5.84v6.5a5.161,5.161,0,0,0-9.06,3.38,5.161,5.161,0,0,0,9.06,3.38V660h1.32V645.12Zm-3.88,13.78a3.9,3.9,0,1,1,3.84-3.9A3.846,3.846,0,0,1,749.358,658.9Zm-81.24,27.78V674.56H666.8V688h7.44v-1.32Zm12.187,1.48a5.16,5.16,0,1,0-5.16-5.16A5.173,5.173,0,0,0,680.3,688.16Zm.02-1.26a3.911,3.911,0,1,1,3.84-3.9A3.842,3.842,0,0,1,680.325,686.9ZM696,678v1.62a5.161,5.161,0,0,0-9.06,3.38,5.161,5.161,0,0,0,9.06,3.38V688h1.32V678Zm-3.88,8.9a3.9,3.9,0,1,1,3.84-3.9A3.858,3.858,0,0,1,692.122,686.9Zm12.419-9.06a4.006,4.006,0,0,0-3.2,1.64V678h-1.32v10h1.32v-5.86a2.982,2.982,0,1,1,5.96,0V688h1.34v-5.9A4.13,4.13,0,0,0,704.541,677.84Zm10.148,10.32c2.58,0,3.68-1.26,3.68-2.82,0-3.22-6.42-2.72-6.42-4.7,0-1.04,1.02-1.6,2.42-1.6a4.551,4.551,0,0,1,2.92,1.22l.94-.82a5.376,5.376,0,0,0-3.84-1.6c-2.56,0-3.68,1.26-3.68,2.82,0,3.22,6.42,2.7,6.42,4.7,0,1.04-1,1.6-2.42,1.6a4.534,4.534,0,0,1-2.9-1.22l-.94.8A5.332,5.332,0,0,0,714.689,688.16Z" fill="rgba(255,255,255,0.8)"/>
        <rect id="Rectangle_93" data-name="Rectangle 93" width="182.565" height="102.565" rx="21.802" transform="translate(600.979 600.718)" fill="none" stroke="rgba(133,71,255,0.86)" stroke-width="2.565"/>
      </g>
      <g id="Group_24" data-name="Group 24">
        <rect id="Rectangle_94" data-name="Rectangle 94" width="180" height="100" rx="20.52" transform="translate(807 602)" fill="rgba(133,71,255,0.2)"/>
        <path id="Path_25" data-name="Path 25" d="M876.131,618.58l-4.1,10.84-4.1-10.84h-1.96l5.08,13.42h1.96l5.06-13.42Zm9.908,3.42v1.1a5.16,5.16,0,1,0,0,7.8V632h1.9V622Zm-3.34,8.36a3.362,3.362,0,1,1,3.26-3.36A3.247,3.247,0,0,1,882.7,630.36ZM897.242,622v5.68a2.564,2.564,0,1,1-5.12.02V622h-1.94v5.76a4.17,4.17,0,0,0,4.12,4.4,3.873,3.873,0,0,0,2.94-1.4V632h1.9V622Zm4.466,10h1.9V617.1h-1.9Zm9.813-2.64a1.637,1.637,0,0,1-1.48,1.04,1.556,1.556,0,0,1-1.48-1.68v-5h2.72V622h-2.72v-3.38l-1.9.12V622h-1.42v1.72h1.42v5.52a2.728,2.728,0,0,0,3,2.92,3.713,3.713,0,0,0,2.72-1.3Zm12.045,2.8c2.88,0,4.26-1.9,4.26-3.76a3.555,3.555,0,0,0-2.08-3.12,3.5,3.5,0,0,0,2.08-3.1c0-1.84-1.38-3.76-4.26-3.76a6.084,6.084,0,0,0-4.68,2.28l1.3,1.38a4.528,4.528,0,0,1,3.2-1.86c1.46,0,2.52.86,2.52,2.04s-1.18,2.34-3.64,2.34h-.54V626h.54c2.46,0,3.64,1.14,3.64,2.34,0,1.18-1.06,2.02-2.52,2.02a4.374,4.374,0,0,1-3.2-1.86l-1.3,1.4A6.06,6.06,0,0,0,923.566,632.16ZM837.073,660h3.04c4.54,0,7.24-3.02,7.24-6.72,0-3.72-2.7-6.72-7.24-6.72h-3.04Zm1.32-1.26V647.82h1.72c3.6,0,5.8,2.4,5.8,5.46s-2.2,5.46-5.8,5.46Zm15.449.1a3.774,3.774,0,0,1-3.62-2.72l8.74-1.58a1.232,1.232,0,0,0-.02-.26,5.148,5.148,0,0,0-10.26.64,5.007,5.007,0,0,0,.2,1.44,5.265,5.265,0,0,0,4.96,3.7,5.372,5.372,0,0,0,4.96-3.36l-1.12-.4A4.176,4.176,0,0,1,853.842,658.84Zm-.12-7.88a3.913,3.913,0,0,1,3.74,2.74l-7.44,1.34c0-.2-.02-.34-.02-.46A3.816,3.816,0,0,1,853.722,650.96Zm7.609,9.04h1.32V645.12h-1.32Zm9.778-2.24a2.177,2.177,0,0,1-1.76,1.18,1.905,1.905,0,0,1-1.88-2V651.2h3.02v-1.22h-3.02v-3.32l-1.32.16v3.16h-1.6v1.22h1.6v6.04a2.756,2.756,0,0,0,2.96,2.92,3.587,3.587,0,0,0,2.66-1.38ZM881.492,650v1.62a5.161,5.161,0,0,0-9.06,3.38,5.161,5.161,0,0,0,9.06,3.38V660h1.32V650Zm-3.88,8.9a3.9,3.9,0,1,1,3.84-3.9A3.858,3.858,0,0,1,877.612,658.9Zm22.4-12.34V658l-7.52-11.44h-1.34V660h1.32V648.58l7.5,11.42h1.36V646.56Zm8.495,12.28a3.774,3.774,0,0,1-3.62-2.72l8.74-1.58a1.229,1.229,0,0,0-.02-.26,5.148,5.148,0,0,0-10.26.64,5.007,5.007,0,0,0,.2,1.44,5.265,5.265,0,0,0,4.96,3.7,5.372,5.372,0,0,0,4.96-3.36l-1.12-.4A4.175,4.175,0,0,1,908.51,658.84Zm-.12-7.88a3.913,3.913,0,0,1,3.74,2.74l-7.44,1.34c0-.2-.02-.34-.02-.46A3.817,3.817,0,0,1,908.39,650.96ZM923.2,650v5.86a2.971,2.971,0,1,1-5.94,0V650H915.9v5.9a4.13,4.13,0,0,0,4.1,4.26,4.006,4.006,0,0,0,3.2-1.64V660h1.32V650Zm9.669,7.76a2.177,2.177,0,0,1-1.76,1.18,1.905,1.905,0,0,1-1.88-2V651.2h3.02v-1.22h-3.02v-3.32l-1.32.16v3.16h-1.6v1.22h1.6v6.04a2.756,2.756,0,0,0,2.96,2.92,3.587,3.587,0,0,0,2.66-1.38Zm7.222-7.92a4.006,4.006,0,0,0-3.2,1.64V650h-1.32v10h1.32v-5.86a3,3,0,0,1,2.98-3.08,2.959,2.959,0,0,1,1.7.62l.46-1.32A3.808,3.808,0,0,0,940.089,649.84Zm11.384.16v1.62a5.161,5.161,0,0,0-9.06,3.38,5.161,5.161,0,0,0,9.06,3.38V660h1.32V650Zm-3.88,8.9a3.9,3.9,0,1,1,3.84-3.9A3.858,3.858,0,0,1,947.593,658.9Zm8.016,1.1h1.32V645.12h-1.32ZM854.423,688.16c2.76,0,4.18-1.64,4.18-3.46,0-4.16-7.3-3.64-7.3-6.82,0-1.36,1.08-2.2,2.88-2.2a5.45,5.45,0,0,1,3.56,1.68l.92-.9a6.908,6.908,0,0,0-4.48-2.04c-2.76,0-4.18,1.64-4.18,3.46,0,4.16,7.3,3.66,7.3,6.82,0,1.36-1.08,2.2-2.88,2.2a5.38,5.38,0,0,1-3.56-1.68l-.92.9A6.908,6.908,0,0,0,854.423,688.16Zm11.813-2.4a2.177,2.177,0,0,1-1.76,1.18,1.905,1.905,0,0,1-1.88-2V679.2h3.02v-1.22H862.6v-3.32l-1.32.16v3.16h-1.6v1.22h1.6v6.04a2.756,2.756,0,0,0,2.96,2.92,3.587,3.587,0,0,0,2.66-1.38Zm7.223-7.92a4.006,4.006,0,0,0-3.2,1.64V678h-1.32v10h1.32v-5.86a3,3,0,0,1,2.98-3.08,2.959,2.959,0,0,1,1.7.62l.46-1.32A3.808,3.808,0,0,0,873.459,677.84Zm11.383.16v1.62a5.161,5.161,0,0,0-9.06,3.38,5.161,5.161,0,0,0,9.06,3.38V688h1.32V678Zm-3.88,8.9a3.9,3.9,0,1,1,3.84-3.9A3.858,3.858,0,0,1,880.962,686.9Zm13.38-1.14a2.177,2.177,0,0,1-1.76,1.18,1.905,1.905,0,0,1-1.88-2V679.2h3.02v-1.22H890.7v-3.32l-1.32.16v3.16h-1.6v1.22h1.6v6.04a2.755,2.755,0,0,0,2.96,2.92,3.588,3.588,0,0,0,2.66-1.38Zm6.483,1.08a3.774,3.774,0,0,1-3.62-2.72l8.74-1.58a1.229,1.229,0,0,0-.02-.26,5.148,5.148,0,0,0-10.26.64,5.007,5.007,0,0,0,.2,1.44,5.265,5.265,0,0,0,4.96,3.7,5.372,5.372,0,0,0,4.96-3.36l-1.12-.4A4.175,4.175,0,0,1,900.825,686.84Zm-.12-7.88a3.913,3.913,0,0,1,3.74,2.74l-7.44,1.34c0-.2-.02-.34-.02-.46A3.817,3.817,0,0,1,900.705,678.96Zm16.129-.94v1.62a5.16,5.16,0,1,0-3.9,8.54,5.1,5.1,0,0,0,3.9-1.78v.74h.02a3.932,3.932,0,0,1-3.84,3.9,4.183,4.183,0,0,1-3.86-2.54l-1.08.54a5.251,5.251,0,0,0,4.94,3.22,5.188,5.188,0,0,0,5.16-5.12v-9.12Zm-3.88,8.92a3.9,3.9,0,1,1,3.84-3.9A3.829,3.829,0,0,1,912.954,686.94Zm8.933-11.7a.8.8,0,1,0-.8-.8A.8.8,0,0,0,921.887,675.24Zm-.66,12.76h1.32V678h-1.32Zm8.816-1.16a3.774,3.774,0,0,1-3.62-2.72l8.74-1.58a1.229,1.229,0,0,0-.02-.26,5.148,5.148,0,0,0-10.26.64,5.007,5.007,0,0,0,.2,1.44,5.265,5.265,0,0,0,4.96,3.7A5.372,5.372,0,0,0,935,684.7l-1.12-.4A4.176,4.176,0,0,1,930.043,686.84Zm-.12-7.88a3.913,3.913,0,0,1,3.74,2.74l-7.44,1.34c0-.2-.02-.34-.02-.46A3.816,3.816,0,0,1,929.923,678.96Zm10.637,9.2c2.58,0,3.68-1.26,3.68-2.82,0-3.22-6.42-2.72-6.42-4.7,0-1.04,1.02-1.6,2.42-1.6a4.551,4.551,0,0,1,2.92,1.22l.94-.82a5.376,5.376,0,0,0-3.84-1.6c-2.56,0-3.68,1.26-3.68,2.82,0,3.22,6.42,2.7,6.42,4.7,0,1.04-1,1.6-2.42,1.6a4.534,4.534,0,0,1-2.9-1.22l-.94.8A5.332,5.332,0,0,0,940.56,688.16Z" fill="#fff"/>
        <rect id="Rectangle_95" data-name="Rectangle 95" width="182.565" height="102.565" rx="21.802" transform="translate(805.718 600.718)" fill="none" stroke="rgba(133,71,255,0.86)" stroke-width="2.565"/>
      </g>
      <path id="Path_26" data-name="Path 26" d="M235.453,407.547a.639.639,0,0,0-.906,0l-4.081,4.08a.641.641,0,0,0,.907.907L235,408.907l3.627,3.627a.641.641,0,0,0,.907-.907Zm-1.094.453v5.089h1.282V408Zm0,15.266v10.177h1.282V423.266Zm0,20.354V453.8h1.282V443.62Zm0,20.354v10.178h1.282V463.974Zm0,20.355v10.177h1.282V484.329Zm0,20.354V514.86h1.282V504.683Zm0,20.354v10.177h1.282V525.037Zm0,20.355v5.088h1.282v-5.088Zm0,5.088a21.2,21.2,0,0,0,.4,4.129l1.258-.249a19.9,19.9,0,0,1-.379-3.88Zm3.564,11.758a21.3,21.3,0,0,0,5.839,5.839l.713-1.066a20,20,0,0,1-5.486-5.486Zm13.468,9a21.2,21.2,0,0,0,4.129.4v-1.282a19.9,19.9,0,0,1-3.88-.379Zm4.129.4h5.574v-1.282H255.52Zm16.722,0H283.39v-1.282H272.242Zm22.3,0h11.148v-1.282H294.538Zm22.3,0h11.148v-1.282H316.834Zm22.3,0h11.148v-1.282H339.13Zm22.3,0H367v-1.282h-5.574Z" fill="rgba(255,215,74,0.7)"/>
      <path id="Path_27" data-name="Path 27" d="M259.314,516H260.5v-4.572h2.808l.738-.036L266.622,516h1.242l-2.7-4.86a3.59,3.59,0,0,0,2.7-3.474c0-2.088-1.656-3.762-4.446-3.762h-4.1Zm1.188-5.706v-5.256h2.916c2,0,3.222,1.17,3.222,2.628,0,1.476-1.224,2.628-3.222,2.628Zm13.2,4.662a3.4,3.4,0,0,1-3.258-2.448l7.866-1.422a1.107,1.107,0,0,0-.018-.234,4.633,4.633,0,0,0-9.234.576,4.507,4.507,0,0,0,.18,1.3,4.738,4.738,0,0,0,4.464,3.33,4.835,4.835,0,0,0,4.464-3.024l-1.008-.36A3.758,3.758,0,0,1,273.7,514.956Zm-.108-7.092a3.522,3.522,0,0,1,3.366,2.466l-6.7,1.206c0-.18-.018-.306-.018-.414A3.435,3.435,0,0,1,273.6,507.864Zm10.866,8.28a4.619,4.619,0,0,0,3.942-2.214l-1.08-.522a3.511,3.511,0,1,1,0-3.816l1.08-.522a4.638,4.638,0,1,0-3.942,7.074Zm9.861-1.188a3.4,3.4,0,0,1-3.258-2.448l7.866-1.422a1.107,1.107,0,0,0-.018-.234,4.633,4.633,0,0,0-9.234.576,4.507,4.507,0,0,0,.18,1.3,4.738,4.738,0,0,0,4.464,3.33,4.835,4.835,0,0,0,4.464-3.024l-1.008-.36A3.758,3.758,0,0,1,294.322,514.956Zm-.108-7.092a3.522,3.522,0,0,1,3.366,2.466l-6.7,1.206c0-.18-.018-.306-.018-.414A3.435,3.435,0,0,1,294.214,507.864Zm7.445-3.348a.72.72,0,1,0-.72-.72A.722.722,0,0,0,301.659,504.516ZM301.065,516h1.188v-9h-1.188Zm9.5-9-2.592,7.326L305.4,507h-1.188l3.168,9h1.188l3.186-9Zm6.452,7.956a3.4,3.4,0,0,1-3.258-2.448l7.866-1.422a1.109,1.109,0,0,0-.018-.234,4.633,4.633,0,0,0-9.234.576,4.507,4.507,0,0,0,.18,1.3,4.738,4.738,0,0,0,4.464,3.33,4.835,4.835,0,0,0,4.464-3.024l-1.008-.36A3.758,3.758,0,0,1,317.015,514.956Zm-.108-7.092a3.522,3.522,0,0,1,3.366,2.466l-6.7,1.206c0-.18-.018-.306-.018-.414A3.435,3.435,0,0,1,316.907,507.864Zm9.573,8.28c2.322,0,3.312-1.134,3.312-2.538,0-2.9-5.778-2.448-5.778-4.23,0-.936.918-1.44,2.178-1.44a4.1,4.1,0,0,1,2.628,1.1l.846-.738a4.838,4.838,0,0,0-3.456-1.44c-2.3,0-3.312,1.134-3.312,2.538,0,2.9,5.778,2.43,5.778,4.23,0,.936-.9,1.44-2.178,1.44a4.081,4.081,0,0,1-2.61-1.1l-.846.72A4.8,4.8,0,0,0,326.48,516.144Zm19.158-12.24L341.48,514.47,337.3,503.9H336.08l4.788,12.1h1.206l4.77-12.1Zm8.954,3.1v1.458a4.645,4.645,0,0,0-8.154,3.042,4.645,4.645,0,0,0,8.154,3.042V516h1.188v-9Zm-3.492,8.01a3.51,3.51,0,1,1,3.456-3.51A3.473,3.473,0,0,1,351.1,515.01ZM364.582,507v5.274a2.674,2.674,0,1,1-5.346,0V507h-1.224v5.31a3.717,3.717,0,0,0,3.69,3.834,3.606,3.606,0,0,0,2.88-1.476V516h1.188v-9Zm3.822,9h1.188V502.608H368.4Zm8.8-2.016a1.96,1.96,0,0,1-1.584,1.062,1.715,1.715,0,0,1-1.692-1.8V508.08h2.718v-1.1h-2.718v-2.988l-1.188.144v2.844H371.3v1.1h1.44v5.436a2.48,2.48,0,0,0,2.664,2.628A3.229,3.229,0,0,0,377.8,514.9Zm12.176-7.128a4.647,4.647,0,0,0-3.528,1.62v-5.868h-1.188V516h1.188v-1.494a4.64,4.64,0,1,0,3.528-7.65Zm-.036,8.154a3.51,3.51,0,1,1,3.456-3.51A3.458,3.458,0,0,1,389.344,515.01Zm14.15-8.01v1.458a4.645,4.645,0,0,0-8.154,3.042,4.645,4.645,0,0,0,8.154,3.042V516h1.188v-9ZM400,515.01a3.51,3.51,0,1,1,3.456-3.51A3.473,3.473,0,0,1,400,515.01Zm10.256,1.134c2.322,0,3.312-1.134,3.312-2.538,0-2.9-5.778-2.448-5.778-4.23,0-.936.918-1.44,2.178-1.44a4.1,4.1,0,0,1,2.628,1.1l.846-.738a4.838,4.838,0,0,0-3.456-1.44c-2.3,0-3.312,1.134-3.312,2.538,0,2.9,5.778,2.43,5.778,4.23,0,.936-.9,1.44-2.178,1.44a4.081,4.081,0,0,1-2.61-1.1l-.846.72A4.8,4.8,0,0,0,410.258,516.144Zm9.238-1.188a3.4,3.4,0,0,1-3.258-2.448l7.866-1.422a1.107,1.107,0,0,0-.018-.234,4.633,4.633,0,0,0-9.234.576,4.507,4.507,0,0,0,.18,1.3,4.738,4.738,0,0,0,4.464,3.33,4.835,4.835,0,0,0,4.464-3.024l-1.008-.36A3.758,3.758,0,0,1,419.5,514.956Zm-.108-7.092a3.522,3.522,0,0,1,3.366,2.466l-6.7,1.206c0-.18-.018-.306-.018-.414A3.435,3.435,0,0,1,419.388,507.864Zm14.376-5.256v5.85a4.645,4.645,0,0,0-8.154,3.042,4.645,4.645,0,0,0,8.154,3.042V516h1.188V502.608Zm-3.492,12.4a3.51,3.51,0,1,1,3.456-3.51A3.461,3.461,0,0,1,430.272,515.01ZM267,532.018v1.458a4.644,4.644,0,1,0-3.51,7.686,4.593,4.593,0,0,0,3.51-1.6v.666h.018a3.538,3.538,0,0,1-3.456,3.51,3.765,3.765,0,0,1-3.474-2.286l-.972.486a4.726,4.726,0,0,0,4.446,2.9,4.669,4.669,0,0,0,4.644-4.608v-8.208Zm-3.492,8.028a3.51,3.51,0,1,1,3.456-3.51A3.446,3.446,0,0,1,263.508,540.046Zm11.3,1.1a4.644,4.644,0,1,0-4.644-4.644A4.655,4.655,0,0,0,274.81,541.144Zm.018-1.134a3.52,3.52,0,1,1,3.456-3.51A3.458,3.458,0,0,1,274.828,540.01Zm11.6-8.01-2.592,7.326L281.262,532h-1.188l3.168,9h1.188l3.186-9Zm6.453,7.956a3.4,3.4,0,0,1-3.258-2.448l7.866-1.422a1.107,1.107,0,0,0-.018-.234,4.633,4.633,0,0,0-9.234.576,4.507,4.507,0,0,0,.18,1.3,4.738,4.738,0,0,0,4.464,3.33,4.835,4.835,0,0,0,4.464-3.024l-1.008-.36A3.758,3.758,0,0,1,292.881,539.956Zm-.108-7.092a3.522,3.522,0,0,1,3.366,2.466l-6.7,1.206c0-.18-.018-.306-.018-.414A3.435,3.435,0,0,1,292.773,532.864Zm10.476-1.008a3.606,3.606,0,0,0-2.88,1.476V532h-1.188v9h1.188v-5.274a2.7,2.7,0,0,1,2.682-2.772,2.663,2.663,0,0,1,1.53.558l.414-1.188A3.427,3.427,0,0,0,303.249,531.856Zm7.418,0a3.606,3.606,0,0,0-2.88,1.476V532H306.6v9h1.188v-5.274a2.683,2.683,0,1,1,5.364,0V541h1.206v-5.31A3.717,3.717,0,0,0,310.667,531.856Zm13.55.144v1.458a4.645,4.645,0,0,0-8.154,3.042,4.645,4.645,0,0,0,8.154,3.042V541H325.4v-9Zm-3.492,8.01a3.51,3.51,0,1,1,3.456-3.51A3.473,3.473,0,0,1,320.725,540.01Zm11.177-8.154a3.606,3.606,0,0,0-2.88,1.476V532h-1.188v9h1.188v-5.274a2.683,2.683,0,1,1,5.364,0V541h1.206v-5.31A3.717,3.717,0,0,0,331.9,531.856Zm10.039,9.288a4.619,4.619,0,0,0,3.942-2.214l-1.08-.522a3.511,3.511,0,1,1,0-3.816l1.08-.522a4.638,4.638,0,1,0-3.942,7.074Zm9.862-1.188a3.4,3.4,0,0,1-3.258-2.448l7.866-1.422a1.107,1.107,0,0,0-.018-.234,4.633,4.633,0,0,0-9.234.576,4.508,4.508,0,0,0,.18,1.3,4.738,4.738,0,0,0,4.464,3.33,4.835,4.835,0,0,0,4.464-3.024l-1.008-.36A3.758,3.758,0,0,1,351.8,539.956Zm-.108-7.092a3.522,3.522,0,0,1,3.366,2.466l-6.7,1.206c0-.18-.018-.306-.018-.414A3.435,3.435,0,0,1,351.7,532.864Zm16.773,6.12a1.96,1.96,0,0,1-1.584,1.062,1.715,1.715,0,0,1-1.692-1.8V533.08h2.718v-1.1h-2.718v-2.988l-1.188.144v2.844h-1.44v1.1H364v5.436a2.48,2.48,0,0,0,2.664,2.628,3.229,3.229,0,0,0,2.394-1.242Zm5.835,2.16a4.644,4.644,0,1,0-4.644-4.644A4.655,4.655,0,0,0,374.3,541.144Zm.018-1.134a3.52,3.52,0,1,1,3.456-3.51A3.458,3.458,0,0,1,374.321,540.01ZM386.967,532h-1.314l-3.546,4.266V527.59h-1.188v13.392h1.188v-3.15l.9-1.08,2.7,4.248h1.26l-3.258-5.094Zm5.3,7.956a3.4,3.4,0,0,1-3.258-2.448l7.866-1.422a1.107,1.107,0,0,0-.018-.234,4.633,4.633,0,0,0-9.234.576,4.507,4.507,0,0,0,.18,1.3,4.738,4.738,0,0,0,4.464,3.33,4.835,4.835,0,0,0,4.464-3.024l-1.008-.36A3.758,3.758,0,0,1,392.267,539.956Zm-.108-7.092a3.522,3.522,0,0,1,3.366,2.466l-6.7,1.206c0-.18-.018-.306-.018-.414A3.435,3.435,0,0,1,392.159,532.864Zm10.477-1.008a3.606,3.606,0,0,0-2.88,1.476V532h-1.188v9h1.188v-5.274a2.683,2.683,0,1,1,5.364,0V541h1.206v-5.31A3.717,3.717,0,0,0,402.636,531.856Zm9.133,9.288c2.322,0,3.312-1.134,3.312-2.538,0-2.9-5.778-2.448-5.778-4.23,0-.936.918-1.44,2.178-1.44a4.1,4.1,0,0,1,2.628,1.1l.846-.738a4.838,4.838,0,0,0-3.456-1.44c-2.3,0-3.312,1.134-3.312,2.538,0,2.9,5.778,2.43,5.778,4.23,0,.936-.9,1.44-2.178,1.44a4.081,4.081,0,0,1-2.61-1.1l-.846.72A4.8,4.8,0,0,0,411.769,541.144Z" fill="rgba(255,255,255,0.7)"/>
      <path id="Path_28" data-name="Path 28" d="M872.08,392h1.188v-4.572h2.808l.738-.036L879.388,392h1.242l-2.7-4.86a3.59,3.59,0,0,0,2.7-3.474c0-2.088-1.656-3.762-4.446-3.762h-4.1Zm1.188-5.706v-5.256h2.916c2,0,3.222,1.17,3.222,2.628,0,1.476-1.224,2.628-3.222,2.628Zm13.2,4.662a3.4,3.4,0,0,1-3.258-2.448l7.866-1.422a1.107,1.107,0,0,0-.018-.234,4.633,4.633,0,0,0-9.234.576,4.508,4.508,0,0,0,.18,1.3,4.738,4.738,0,0,0,4.464,3.33,4.835,4.835,0,0,0,4.464-3.024l-1.008-.36A3.758,3.758,0,0,1,886.469,390.956Zm-.108-7.092a3.522,3.522,0,0,1,3.366,2.466l-6.7,1.206c0-.18-.018-.306-.018-.414A3.435,3.435,0,0,1,886.361,383.864Zm10.865,8.28a4.619,4.619,0,0,0,3.942-2.214l-1.08-.522a3.511,3.511,0,1,1,0-3.816l1.08-.522a4.638,4.638,0,1,0-3.942,7.074Zm9.862-1.188a3.4,3.4,0,0,1-3.258-2.448l7.866-1.422a1.107,1.107,0,0,0-.018-.234,4.633,4.633,0,0,0-9.234.576,4.506,4.506,0,0,0,.18,1.3,4.738,4.738,0,0,0,4.464,3.33,4.835,4.835,0,0,0,4.464-3.024l-1.008-.36A3.758,3.758,0,0,1,907.088,390.956Zm-.108-7.092a3.522,3.522,0,0,1,3.366,2.466l-6.7,1.206c0-.18-.018-.306-.018-.414A3.435,3.435,0,0,1,906.98,383.864Zm7.445-3.348a.72.72,0,1,0-.72-.72A.722.722,0,0,0,914.425,380.516ZM913.831,392h1.188v-9h-1.188Zm9.5-9-2.592,7.326L918.162,383h-1.188l3.168,9h1.188l3.186-9Zm6.453,7.956a3.4,3.4,0,0,1-3.258-2.448l7.866-1.422a1.107,1.107,0,0,0-.018-.234,4.633,4.633,0,0,0-9.234.576,4.506,4.506,0,0,0,.18,1.3,4.738,4.738,0,0,0,4.464,3.33,4.835,4.835,0,0,0,4.464-3.024l-1.008-.36A3.758,3.758,0,0,1,929.781,390.956Zm-.108-7.092a3.522,3.522,0,0,1,3.366,2.466l-6.7,1.206c0-.18-.018-.306-.018-.414A3.435,3.435,0,0,1,929.673,383.864Zm9.573,8.28c2.322,0,3.312-1.134,3.312-2.538,0-2.9-5.778-2.448-5.778-4.23,0-.936.918-1.44,2.178-1.44a4.1,4.1,0,0,1,2.628,1.1l.846-.738a4.838,4.838,0,0,0-3.456-1.44c-2.3,0-3.312,1.134-3.312,2.538,0,2.9,5.778,2.43,5.778,4.23,0,.936-.9,1.44-2.178,1.44a4.081,4.081,0,0,1-2.61-1.1l-.846.72A4.8,4.8,0,0,0,939.246,392.144ZM949.764,392h7.974v-1.188h-6.282c1.134-1.062,5.94-4.752,5.94-7.65a3.531,3.531,0,0,0-3.708-3.384,4.7,4.7,0,0,0-4,2.556l.81.81a3.639,3.639,0,0,1,3.06-2.232,2.437,2.437,0,0,1,2.61,2.322c0,2.376-5.49,6.8-6.516,7.758Zm13.71.144c3.15,0,4.482-2.772,4.482-6.174,0-3.42-1.332-6.192-4.482-6.192s-4.482,2.772-4.482,6.192C958.992,389.372,960.324,392.144,963.474,392.144Zm0-1.116c-2.322,0-3.294-2.232-3.294-5.058,0-2.844.972-5.058,3.294-5.058s3.294,2.214,3.294,5.058C966.768,388.8,965.8,391.028,963.474,391.028Zm8.519-4.644a2.682,2.682,0,1,0-2.682-2.682A2.689,2.689,0,0,0,971.993,386.384ZM970.463,392h1.17L980,381.164h-1.152Zm1.53-6.552a1.746,1.746,0,1,1,1.746-1.746A1.771,1.771,0,0,1,971.993,385.448Zm6.48,6.7a2.673,2.673,0,1,0-2.664-2.682A2.677,2.677,0,0,0,978.473,392.144Zm0-.972a1.733,1.733,0,0,1-1.71-1.71,1.719,1.719,0,0,1,3.438,0A1.736,1.736,0,0,1,978.473,391.172Zm-81.985,25.972a4.644,4.644,0,1,0-4.644-4.644A4.655,4.655,0,0,0,896.488,417.144Zm.018-1.134a3.52,3.52,0,1,1,3.456-3.51A3.458,3.458,0,0,1,896.506,416.01Zm9.894-8.046h-1.764v-2.178c0-.972.108-1.26.648-1.26a3.406,3.406,0,0,1,.72.09l.252-.918a4.138,4.138,0,0,0-1.314-.216c-.9,0-1.476.558-1.476,1.872v2.61H902.4v.99h1.062V417h1.17v-8.046H906.4ZM913.335,417h1.188v-4.572h2.808l.738-.036L920.643,417h1.242l-2.7-4.86a3.59,3.59,0,0,0,2.7-3.474c0-2.088-1.656-3.762-4.446-3.762h-4.1Zm1.188-5.706v-5.256h2.916c2,0,3.222,1.17,3.222,2.628,0,1.476-1.224,2.628-3.222,2.628Zm13.2,4.662a3.4,3.4,0,0,1-3.258-2.448l7.866-1.422a1.111,1.111,0,0,0-.018-.234,4.633,4.633,0,0,0-9.234.576,4.506,4.506,0,0,0,.18,1.3,4.738,4.738,0,0,0,4.464,3.33,4.835,4.835,0,0,0,4.464-3.024l-1.008-.36A3.758,3.758,0,0,1,927.724,415.956Zm-.108-7.092a3.522,3.522,0,0,1,3.366,2.466l-6.7,1.206c0-.18-.018-.306-.018-.414A3.435,3.435,0,0,1,927.616,408.864ZM939.553,408l-2.592,7.326L934.387,408H933.2l3.168,9h1.188l3.186-9Zm6.453,7.956a3.4,3.4,0,0,1-3.258-2.448l7.866-1.422a1.107,1.107,0,0,0-.018-.234,4.633,4.633,0,0,0-9.234.576,4.508,4.508,0,0,0,.18,1.3,4.738,4.738,0,0,0,4.464,3.33,4.835,4.835,0,0,0,4.464-3.024l-1.008-.36A3.758,3.758,0,0,1,946.006,415.956Zm-.108-7.092a3.522,3.522,0,0,1,3.366,2.466l-6.7,1.206c0-.18-.018-.306-.018-.414A3.435,3.435,0,0,1,945.9,408.864Zm10.476-1.008a3.605,3.605,0,0,0-2.88,1.476V408h-1.188v9h1.188v-5.274a2.683,2.683,0,1,1,5.364,0V417h1.206v-5.31A3.717,3.717,0,0,0,956.374,407.856Zm12.36.144v5.274a2.674,2.674,0,1,1-5.346,0V408h-1.224v5.31a3.717,3.717,0,0,0,3.69,3.834,3.606,3.606,0,0,0,2.88-1.476V417h1.188v-9Zm7.787,7.956a3.4,3.4,0,0,1-3.258-2.448l7.866-1.422a1.107,1.107,0,0,0-.018-.234,4.633,4.633,0,0,0-9.234.576,4.508,4.508,0,0,0,.18,1.3,4.738,4.738,0,0,0,4.464,3.33,4.835,4.835,0,0,0,4.464-3.024l-1.008-.36A3.758,3.758,0,0,1,976.521,415.956Zm-.108-7.092a3.522,3.522,0,0,1,3.366,2.466l-6.7,1.206c0-.18-.018-.306-.018-.414A3.435,3.435,0,0,1,976.413,408.864Z" fill="rgba(255,255,255,0.7)"/>
      <path id="Path_29" data-name="Path 29" d="M993.453,268.547a.639.639,0,0,0-.906,0l-4.081,4.08a.641.641,0,0,0,.907.907L993,269.907l3.627,3.627a.641.641,0,0,0,.907-.907ZM960,559.641h3.12v-1.282H960Zm9.36,0h3.12v-1.282h-3.12Zm3.12,0a21.2,21.2,0,0,0,4.129-.4l-.249-1.258a19.9,19.9,0,0,1-3.88.379Zm11.758-3.564a21.3,21.3,0,0,0,5.839-5.839l-1.066-.713a20,20,0,0,1-5.486,5.486Zm9-13.468a21.2,21.2,0,0,0,.4-4.129h-1.282a19.9,19.9,0,0,1-.379,3.88Zm.4-4.129V533.3h-1.282v5.182Zm0-15.547V512.569h-1.282v10.364Zm0-20.729V491.839h-1.282V502.2Zm0-20.729V471.11h-1.282v10.365Zm0-20.73V450.381h-1.282v10.364Zm0-20.729V429.652h-1.282v10.364Zm0-20.729V408.922h-1.282v10.365Zm0-20.729V388.193h-1.282v10.365Zm0-20.729V367.464h-1.282v10.365Zm0-20.73V346.735h-1.282V357.1Zm0-20.729V326.005h-1.282V336.37Zm0-20.729V305.276h-1.282v10.365Zm0-20.729V284.547h-1.282v10.365Zm0-20.73V269h-1.282v5.182Z" fill="rgba(255,215,74,0.7)"/>
      <path id="Path_30" data-name="Path 30" d="M377.456,727.881a20.387,20.387,0,0,1-3.065-7.4l.629-.125a19.9,19.9,0,0,1-.379-3.88v-4.927H374V701.7h.641v-9.855H374V681.99h.641v-9.854H374v-9.855h.641v-9.854H374v-9.854h.641v-9.854H374v-9.855h.641V613.01H374v-9.854h.641V593.3H374v-9.854h.641V578.52a19.9,19.9,0,0,1,.379-3.88l-.629-.125a20.387,20.387,0,0,1,3.065-7.4l.533.356a20,20,0,0,1,5.486-5.486l-.356-.533a20.387,20.387,0,0,1,7.4-3.065l.125.629a19.9,19.9,0,0,1,3.88-.379h5.138V558h10.275v.641h10.275V558h10.275v.641h10.275V558h10.275v.641h10.275V558h10.276v.641h10.275V558h10.275v.641h10.275V558h10.275v.641H522.96V558h10.275v.641H543.51V558h10.275v.641H564.06V558h10.275v.641h10.276V558h10.275v.641h10.275V558h10.275v.641h10.275V558h10.275v.641h10.276V558h10.275v.641h10.275V558h10.275v.641h10.275V558h10.276v.641h10.275V558h10.275v.641h10.275V558h10.275v.641h10.275V558h10.276v.641h10.275V558h10.275v.641h10.275V558h10.275v.641h10.275V558H820.94v.641h10.275V558H841.49v.641h10.275V558H862.04v.641h10.276V558h10.275v.641h10.275V558h10.275v.641h10.275V558h10.275v.641h10.276V558h10.275v.641h10.275V558h10.275v.641h10.275V558h10.276v.641h5.137a19.9,19.9,0,0,1,3.88.379l.125-.629a20.374,20.374,0,0,1,7.4,3.065l-.36.533a19.965,19.965,0,0,1,5.49,5.486l.53-.356a20.255,20.255,0,0,1,3.07,7.4l-.63.125a19.827,19.827,0,0,1,.38,3.88v4.927h.64V593.3h-.64v9.855h.64v9.854h-.64v9.854h.64v9.855h-.64v9.854h.64v9.854h-.64v9.854h.64v9.855h-.64v9.854h.64v9.854h-.64V701.7h.64v9.854h-.64v4.927a19.827,19.827,0,0,1-.38,3.88l.63.125a20.255,20.255,0,0,1-3.07,7.4l-.53-.356a19.965,19.965,0,0,1-5.49,5.486l.36.533a20.374,20.374,0,0,1-7.4,3.065l-.125-.629a19.9,19.9,0,0,1-3.88.379h-5.137V737H975.068v-.641H964.792V737H954.517v-.641H944.242V737H933.967v-.641H923.692V737H913.416v-.641H903.141V737H892.866v-.641H882.591V737H872.316v-.641H862.04V737H851.765v-.641H841.49V737H831.215v-.641H820.94V737H810.665v-.641H800.389V737H790.114v-.641H779.839V737H769.564v-.641H759.289V737H749.013v-.641H738.738V737H728.463v-.641H718.188V737H707.913v-.641H697.638V737H687.362v-.641H677.087V737H666.812v-.641H656.537V737H646.262v-.641H635.987V737H625.711v-.641H615.436V737H605.161v-.641H594.886V737H584.611v-.641H574.335V737H564.06v-.641H553.785V737H543.51v-.641H533.235V737H522.96v-.641H512.684V737H502.409v-.641H492.134V737H481.859v-.641H471.584V737H461.309v-.641H451.033V737H440.758v-.641H430.483V737H420.208v-.641H409.933V737H399.657v-.641H394.52a19.9,19.9,0,0,1-3.88-.379l-.125.629a20.387,20.387,0,0,1-7.4-3.065l.356-.533a20,20,0,0,1-5.486-5.486Z" fill="none" stroke="rgba(255,215,74,0.7)" stroke-width="1.282" stroke-dasharray="10.26 10.26"/>
    </g>
    <rect id="Rectangle_96" data-name="Rectangle 96" width="137" height="38" transform="translate(6207 3169)" fill="#d2c5ea"/>
    <text id="Arbitrou" transform="translate(6239 3197)" fill="#fff" font-size="20" font-family="SegoeUI, Segoe UI"><tspan x="0" y="0">Arbitrou</tspan></text>
  </g>
</svg>
